<?xml version="1.0" standalone="no"?>
<!DOCTYPE svg PUBLIC "-//W3C//DTD SVG 20010904//EN"
 "http://www.w3.org/TR/2001/REC-SVG-20010904/DTD/svg10.dtd">
<svg version="1.0" xmlns="http://www.w3.org/2000/svg"
 width="150.000000pt" height="150.000000pt" viewBox="0 0 150.000000 150.000000"
 preserveAspectRatio="xMidYMid meet">
<metadata>
Created by potrace 1.11, written by Peter Selinger 2001-2013
</metadata>
<g transform="translate(0.000000,150.000000) scale(0.100000,-0.100000)"
fill="#000000" stroke="none">
<path d="M651 1445 c-16 -14 -33 -35 -36 -45 -5 -17 -12 -19 -51 -13 -36 5
-44 3 -44 -10 0 -26 59 -86 94 -95 25 -7 32 -14 34 -40 2 -17 -2 -41 -8 -52
-6 -12 -9 -25 -5 -28 12 -12 35 31 35 66 0 22 9 45 25 64 20 24 25 40 25 88 0
97 -14 110 -69 65z m49 -58 c0 -46 -21 -102 -32 -87 -18 23 -38 62 -38 73 0
20 39 67 56 67 10 0 14 -14 14 -53z m-110 -32 c35 -18 59 -55 36 -55 -17 0
-76 47 -76 61 0 12 6 11 40 -6z"/>
<path d="M796 1454 c-3 -9 -6 -42 -6 -74 0 -48 5 -64 25 -88 16 -19 25 -42 25
-64 0 -35 23 -78 35 -66 4 3 1 16 -5 28 -6 11 -10 35 -8 52 2 26 9 33 34 40
35 9 94 69 94 95 0 13 -8 15 -44 10 -39 -6 -46 -4 -51 13 -7 23 -61 70 -80 70
-7 0 -16 -7 -19 -16z m63 -40 c12 -15 21 -33 21 -41 0 -11 -20 -50 -38 -73
-11 -15 -32 41 -32 87 0 61 16 70 49 27z m101 -53 c0 -14 -59 -61 -76 -61 -22
0 0 36 34 54 32 18 42 19 42 7z"/>
<path d="M424 1408 c-19 -36 -22 -174 -4 -192 12 -12 12 -13 39 65 19 57 21
73 11 107 -14 55 -26 59 -46 20z m17 -111 c-13 -13 -15 50 -3 80 5 13 8 5 10
-26 2 -24 -2 -49 -7 -54z"/>
<path d="M1052 1423 c-23 -44 -23 -77 -1 -142 27 -78 27 -77 39 -65 18 18 15
156 -4 192 -19 37 -22 38 -34 15z m28 -96 c0 -23 -4 -36 -10 -32 -5 3 -10 27
-10 53 0 34 3 43 10 32 5 -8 10 -32 10 -53z"/>
<path d="M330 1339 c0 -25 33 -22 38 4 2 12 -3 17 -17 17 -15 0 -21 -6 -21
-21z"/>
<path d="M1142 1343 c5 -26 38 -29 38 -4 0 15 -6 21 -21 21 -14 0 -19 -5 -17
-17z"/>
<path d="M166 1303 c10 -57 43 -120 77 -149 16 -14 62 -40 101 -59 39 -18 89
-50 110 -70 57 -52 69 -30 18 32 -22 26 -54 78 -71 115 -39 81 -92 132 -162
152 -77 23 -81 22 -73 -21z m99 -12 c23 -10 53 -33 69 -52 26 -31 80 -138 73
-145 -2 -2 -36 13 -77 34 -80 40 -124 89 -136 150 -6 27 -4 32 12 32 11 0 37
-9 59 -19z"/>
<path d="M1262 1321 c-69 -24 -115 -69 -153 -151 -17 -36 -49 -87 -71 -113
-51 -62 -39 -84 18 -32 21 20 71 52 110 70 39 19 85 45 101 59 34 29 67 92 77
149 8 44 0 46 -82 18z m54 -43 c-12 -61 -56 -110 -136 -150 -41 -21 -75 -36
-77 -34 -7 7 47 114 73 145 29 34 94 70 128 71 16 0 18 -5 12 -32z"/>
<path d="M704 1205 c-28 -27 -59 -62 -68 -77 -32 -50 3 -120 60 -120 39 0 60
48 26 60 -8 3 -12 -3 -10 -14 4 -22 -27 -31 -47 -14 -8 7 -15 27 -15 46 0 27
10 43 52 83 l52 50 40 -37 c23 -20 46 -43 53 -51 17 -22 16 -76 -2 -91 -20
-17 -51 -8 -47 14 2 11 -2 17 -10 14 -34 -12 -13 -60 26 -60 57 0 92 70 60
120 -9 15 -40 50 -68 77 l-51 51 -51 -51z"/>
<path d="M478 1213 c-45 -53 -27 -98 69 -169 41 -30 80 -53 86 -51 6 2 -15 23
-47 48 -33 24 -70 54 -83 66 -40 39 -24 110 24 101 20 -4 26 -53 6 -53 -20 0
-27 -14 -9 -21 36 -14 64 54 34 84 -18 18 -63 15 -80 -5z"/>
<path d="M952 1218 c-30 -30 -2 -98 34 -84 18 7 11 21 -9 21 -20 0 -14 49 6
53 39 8 61 -43 38 -87 -5 -9 -32 -32 -60 -51 -28 -19 -51 -38 -51 -42 0 -31
118 55 136 98 15 35 11 58 -14 87 -17 20 -62 23 -80 5z"/>
<path d="M143 1164 c-8 -21 13 -42 28 -27 13 13 5 43 -11 43 -6 0 -13 -7 -17
-16z"/>
<path d="M1333 1164 c-8 -21 13 -42 28 -27 13 13 5 43 -11 43 -6 0 -13 -7 -17
-16z"/>
<path d="M103 1084 c-49 -18 -54 -30 -17 -44 39 -15 94 -12 149 9 57 22 70 41
27 41 -16 0 -49 2 -73 5 -26 3 -61 -2 -86 -11z m92 -10 c26 -10 -2 -24 -49
-24 -51 0 -34 18 26 29 3 0 14 -2 23 -5z"/>
<path d="M1267 1093 c-28 -3 -47 -9 -45 -15 6 -16 98 -48 140 -48 42 0 88 15
88 29 0 12 -87 42 -114 39 -12 -1 -43 -3 -69 -5z m128 -34 c10 -10 -54 -12
-80 -3 -13 5 -14 9 -3 15 14 10 68 2 83 -12z"/>
<path d="M292 1030 c-27 -25 -28 -61 -4 -83 34 -31 82 -16 82 25 0 25 -16 23
-23 -3 -7 -24 -34 -23 -51 3 -8 14 -6 22 11 39 29 30 64 19 105 -32 63 -79
106 -124 113 -117 8 7 -42 71 -111 145 -47 49 -86 56 -122 23z"/>
<path d="M1106 1019 c-41 -35 -82 -97 -71 -107 4 -4 14 4 23 18 29 45 89 100
109 100 30 0 60 -37 47 -58 -17 -26 -45 -27 -51 -3 -7 26 -23 28 -23 3 0 -41
54 -57 83 -24 23 25 21 57 -5 82 -31 29 -71 25 -112 -11z"/>
<path d="M113 945 c4 -42 3 -47 -24 -61 -35 -17 -66 -71 -50 -87 5 -5 39 -11
75 -11 52 -1 70 3 95 22 16 12 41 22 55 22 30 0 76 20 76 33 0 5 -10 6 -22 2
-13 -4 -36 -9 -53 -11 -28 -5 -32 -1 -52 45 -14 33 -33 57 -55 71 -47 28 -51
26 -45 -25z m76 -41 c6 -15 9 -29 6 -33 -9 -8 -65 56 -65 74 0 14 3 14 23 0
13 -8 29 -27 36 -41z m-13 -50 c29 -20 19 -38 -26 -48 -35 -6 -90 3 -90 15 0
18 41 49 65 49 14 0 37 -7 51 -16z"/>
<path d="M1352 970 c-22 -14 -41 -38 -55 -71 -20 -46 -24 -50 -52 -45 -16 2
-40 7 -52 11 -13 4 -23 3 -23 -2 0 -13 46 -33 76 -33 14 0 39 -10 55 -22 25
-19 43 -23 95 -22 36 0 70 6 75 11 16 16 -15 70 -50 87 -27 14 -28 19 -24 61
6 51 2 53 -45 25z m28 -25 c0 -19 -56 -82 -65 -73 -9 9 13 50 39 70 26 21 26
21 26 3z m50 -95 c27 -27 25 -36 -11 -44 -34 -6 -77 1 -97 17 -11 9 -9 14 10
29 31 23 73 23 98 -2z"/>
<path d="M705 924 c-68 -35 -104 -97 -105 -178 0 -134 127 -228 252 -187 47
16 86 57 70 73 -10 10 -16 10 -30 0 -84 -61 -165 -50 -225 30 -48 64 -20 181
53 220 45 24 116 20 158 -10 26 -19 31 -20 42 -7 42 50 -137 100 -215 59z"/>
<path d="M1031 856 c-32 -34 -26 -80 12 -84 15 -2 27 1 27 7 0 6 -9 11 -20 11
-26 0 -27 31 -2 53 32 29 61 20 120 -38 l57 -54 -50 -51 c-58 -59 -85 -69
-120 -46 -31 20 -34 56 -5 56 11 0 20 5 20 11 0 6 -12 9 -27 7 -23 -2 -29 -9
-31 -34 -2 -25 3 -37 24 -53 46 -36 77 -28 152 42 37 34 67 64 67 67 0 3 -30
33 -67 68 -78 71 -117 81 -157 38z"/>
<path d="M332 808 c-37 -35 -67 -65 -67 -68 0 -3 30 -33 67 -67 75 -70 106
-78 152 -42 21 16 26 28 24 53 -2 25 -8 32 -30 34 -16 2 -28 -1 -28 -7 0 -6 9
-11 20 -11 29 0 26 -36 -5 -56 -35 -23 -62 -13 -120 46 l-50 51 57 54 c60 59
93 69 121 37 23 -26 22 -52 -3 -52 -11 0 -20 -5 -20 -11 0 -6 12 -9 28 -7 37
4 43 50 11 84 -40 43 -79 33 -157 -38z"/>
<path d="M70 703 c-14 -2 -29 -8 -33 -13 -14 -13 21 -68 52 -84 27 -14 28 -19
24 -61 -6 -51 -2 -53 45 -25 22 14 41 38 55 71 20 46 24 50 52 45 17 -2 40 -7
53 -11 12 -4 22 -3 22 2 0 13 -46 33 -76 33 -14 0 -38 9 -53 21 -29 21 -94 32
-141 22z m118 -36 c11 -9 9 -14 -10 -29 -13 -9 -35 -18 -50 -18 -27 0 -68 30
-68 49 0 22 101 21 128 -2z m12 -52 c0 -16 -27 -57 -47 -70 -33 -22 -31 3 3
44 23 27 44 40 44 26z"/>
<path d="M1324 696 c-18 -8 -35 -19 -38 -25 -4 -6 -20 -11 -36 -11 -34 0 -80
-19 -80 -33 0 -5 10 -6 23 -2 12 4 36 9 52 11 28 5 32 1 52 -45 14 -33 33 -57
55 -71 47 -28 51 -26 45 25 -4 42 -3 47 24 61 32 16 66 71 52 85 -16 16 -117
20 -149 5z m95 -12 c36 -8 38 -17 11 -44 -25 -25 -67 -25 -98 -2 -19 15 -21
20 -10 29 11 9 31 17 59 22 4 0 21 -2 38 -5z m-65 -95 c34 -41 36 -66 3 -44
-20 13 -47 54 -47 70 0 14 21 1 44 -26z"/>
<path d="M473 584 c-103 -127 -132 -144 -169 -103 -14 15 -16 24 -8 37 17 26
45 27 51 3 7 -26 23 -28 23 -3 0 41 -54 57 -83 24 -23 -25 -21 -57 5 -82 36
-33 75 -26 122 23 71 76 117 135 107 141 -5 4 -27 -15 -48 -40z"/>
<path d="M1041 562 c-1 -13 18 -41 47 -72 37 -38 55 -50 78 -50 60 0 96 67 56
103 -34 31 -82 16 -82 -25 0 -25 16 -23 23 3 6 24 34 23 51 -3 13 -21 -17 -58
-47 -58 -20 0 -78 54 -109 100 -17 25 -17 25 -17 2z"/>
<path d="M450 463 c-19 -19 -67 -49 -106 -68 -39 -19 -85 -45 -101 -59 -34
-29 -67 -92 -77 -148 -8 -44 -4 -45 73 -22 70 20 123 71 162 152 17 37 49 88
70 114 22 27 37 52 34 58 -9 15 -16 11 -55 -27z m-70 -136 c-35 -75 -82 -121
-140 -138 -48 -14 -54 -10 -45 30 12 58 60 107 137 145 40 19 74 33 76 32 2
-2 -11 -33 -28 -69z"/>
<path d="M544 444 c-93 -69 -111 -114 -66 -166 17 -21 62 -24 80 -6 30 30 2
98 -34 84 -18 -7 -11 -21 9 -21 20 0 14 -49 -6 -53 -37 -7 -59 36 -41 82 3 9
35 36 70 61 66 48 79 61 67 68 -5 2 -40 -20 -79 -49z"/>
<path d="M1005 490 c-3 -6 12 -31 34 -58 21 -26 53 -77 70 -114 39 -81 92
-132 162 -152 77 -23 81 -22 73 22 -10 56 -43 119 -77 148 -16 14 -62 40 -101
59 -39 18 -88 50 -110 69 -43 40 -42 40 -51 26z m241 -165 c32 -25 74 -97 74
-128 0 -37 -99 0 -144 54 -22 26 -76 129 -76 145 0 8 116 -48 146 -71z"/>
<path d="M668 476 c-29 -15 -52 -61 -44 -91 3 -13 34 -53 69 -88 l62 -63 51
50 c28 28 59 63 68 78 32 50 -3 121 -60 121 -39 0 -60 -49 -26 -61 8 -3 12 3
10 14 -4 22 27 31 47 14 18 -15 19 -69 2 -91 -7 -8 -30 -31 -53 -51 l-40 -37
-52 50 c-42 40 -52 56 -52 83 0 19 7 39 15 46 20 16 51 8 47 -13 -3 -18 13
-23 23 -7 10 17 -4 47 -24 53 -11 2 -30 -1 -43 -7z"/>
<path d="M921 462 c-7 -2 7 -18 36 -38 59 -42 73 -60 73 -95 0 -31 -21 -52
-47 -47 -20 4 -26 53 -6 53 20 0 27 14 9 21 -23 9 -46 -14 -46 -45 0 -71 88
-69 113 2 11 31 -18 82 -69 118 -27 20 -55 34 -63 31z"/>
<path d="M83 450 c-35 -14 -28 -26 24 -44 50 -17 187 -12 180 7 -5 16 -100 47
-142 46 -22 0 -50 -4 -62 -9z m115 -19 c11 -7 11 -9 -2 -14 -19 -8 -74 2 -82
14 -7 11 67 11 84 0z"/>
<path d="M1270 440 c-24 -9 -46 -22 -47 -27 -7 -19 130 -24 180 -7 53 18 59
30 21 44 -37 15 -103 10 -154 -10z m126 -9 c-8 -12 -63 -22 -82 -14 -13 5 -13
7 -2 14 17 11 91 11 84 0z"/>
<path d="M143 344 c-8 -21 13 -42 28 -27 13 13 5 43 -11 43 -6 0 -13 -7 -17
-16z"/>
<path d="M1333 344 c-8 -21 13 -42 28 -27 13 13 5 43 -11 43 -6 0 -13 -7 -17
-16z"/>
<path d="M636 313 c4 -10 8 -36 8 -57 1 -36 -2 -40 -30 -48 -35 -9 -94 -69
-94 -95 0 -13 8 -15 43 -10 39 5 43 3 62 -26 11 -17 32 -38 48 -47 24 -13 29
-13 37 0 5 8 10 43 10 77 0 51 -4 66 -25 91 -15 18 -25 42 -25 62 0 17 -5 40
-10 51 -13 24 -35 26 -24 2z m-6 -143 c-12 -22 -68 -55 -78 -45 -9 9 54 65 74
65 12 0 13 -4 4 -20z m60 1 c16 -31 13 -121 -4 -121 -17 0 -56 46 -56 66 0 16
33 74 42 74 4 0 12 -9 18 -19z"/>
<path d="M850 311 c-5 -11 -10 -34 -10 -51 0 -20 -10 -44 -25 -62 -21 -25 -25
-40 -25 -91 0 -34 5 -69 10 -77 8 -13 13 -13 37 0 16 9 37 30 48 47 19 29 23
31 63 26 34 -5 42 -3 42 10 0 26 -59 86 -94 95 -28 8 -31 12 -30 48 0 21 4 47
8 57 11 24 -11 22 -24 -2z m13 -152 c22 -39 22 -51 -4 -83 -33 -42 -49 -34
-49 25 0 48 13 89 28 89 4 0 15 -14 25 -31z m69 2 c18 -16 30 -32 26 -36 -10
-10 -66 23 -78 45 -17 31 13 26 52 -9z"/>
<path d="M416 271 c-14 -23 -8 -157 8 -189 20 -39 32 -35 46 19 9 34 8 51 -12
109 -22 68 -31 80 -42 61z m34 -129 c0 -34 -3 -43 -10 -32 -13 20 -13 93 0 85
6 -3 10 -27 10 -53z"/>
<path d="M1052 210 c-20 -58 -21 -75 -12 -109 14 -54 26 -58 46 -19 12 23 17
55 16 106 -3 116 -17 123 -50 22z m19 -97 c-8 -14 -10 -8 -11 28 0 25 3 49 8
53 11 12 14 -62 3 -81z"/>
<path d="M330 151 c0 -15 6 -21 21 -21 25 0 22 33 -4 38 -12 2 -17 -3 -17 -17z"/>
<path d="M1147 163 c-14 -13 -6 -33 13 -33 13 0 20 7 20 20 0 19 -20 27 -33
13z"/>
</g>
</svg>
