<?xml version="1.0" encoding="utf-8"?>
<!-- Generator: Adobe Illustrator 16.0.0, SVG Export Plug-In . SVG Version: 6.00 Build 0)  -->
<!DOCTYPE svg PUBLIC "-//W3C//DTD SVG 1.1//EN" "http://www.w3.org/Graphics/SVG/1.1/DTD/svg11.dtd">
<svg version="1.1" id="Capa_1" xmlns="http://www.w3.org/2000/svg" xmlns:xlink="http://www.w3.org/1999/xlink" x="0px" y="0px"
	 width="150px" height="150px" viewBox="0 0 150 150" enable-background="new 0 0 150 150" xml:space="preserve">
<path fill="#B6883E" d="M141.746,75c0,36.861-29.883,66.746-66.746,66.746c-36.861,0-66.746-29.885-66.746-66.746
	C8.254,38.137,38.139,8.253,75,8.253C111.863,8.253,141.746,38.137,141.746,75"/>
<g>
	<g>
		<g>
			<rect x="73.698" y="34.5" fill="#FFFFFF" width="2.606" height="8.12"/>
		</g>
	</g>
	<g>
		<g>
			
				<rect x="81.687" y="39.795" transform="matrix(-0.4197 0.9076 -0.9076 -0.4197 159.041 -19.4775)" fill="#FFFFFF" width="8.12" height="2.609"/>
		</g>
	</g>
	<g>
		<g>
			
				<rect x="62.949" y="37.04" transform="matrix(-0.9076 0.4199 -0.4199 -0.9076 139.8258 51.4194)" fill="#FFFFFF" width="2.609" height="8.12"/>
		</g>
	</g>
	<g>
		<g>
			
				<rect x="56.641" y="60.846" transform="matrix(-0.4229 0.9062 -0.9062 -0.4229 138.5398 35.5648)" fill="#FFFFFF" width="2.609" height="2.098"/>
		</g>
	</g>
	<g>
		<g>
			
				<rect x="59.711" y="64.993" transform="matrix(-0.4223 0.9064 -0.9064 -0.4223 146.647 38.627)" fill="#FFFFFF" width="2.608" height="2.098"/>
		</g>
	</g>
	<g>
		<g>
			
				<rect x="60.688" y="74.798" transform="matrix(-0.4234 0.9059 -0.9059 -0.4234 156.9531 51.7981)" fill="#FFFFFF" width="2.609" height="2.097"/>
		</g>
	</g>
	<g>
		<g>
			
				<rect x="49.904" y="76.292" transform="matrix(-0.4232 0.906 -0.906 -0.4232 142.9519 63.6708)" fill="#FFFFFF" width="2.61" height="2.096"/>
		</g>
	</g>
	<g>
		<g>
			
				<rect x="51.451" y="85.164" transform="matrix(-0.4229 0.9062 -0.9062 -0.4229 153.1901 74.87)" fill="#FFFFFF" width="2.609" height="2.096"/>
		</g>
	</g>
	<g>
		<g>
			<path fill="#FFFFFF" d="M117.972,105.316l-8.776-0.034l-6.455-13.829l1.835-2.586c2.767-3.897,3.229-9.009,1.208-13.34
				l-12.951-27.75L75,56.098l-17.83-8.32l-12.953,27.75c-2.021,4.331-1.557,9.442,1.208,13.34l1.835,2.586l-6.453,13.827
				l-8.778,0.036l-1.104,2.365l16.752,7.818l1.104-2.365l-5.61-6.75l6.453-13.828l3.16-0.255c4.764-0.385,8.979-3.313,11-7.644
				L75,60.622l11.22,24.037c2.019,4.33,6.233,7.259,10.997,7.644l3.16,0.255l6.455,13.828l-5.61,6.75l1.104,2.365l16.75-7.818
				L117.972,105.316z M43.24,110.551l-5.672-2.647l3.46-0.015L43.24,110.551z M61.42,83.556c-1.625,3.482-5.015,5.837-8.847,6.146
				l-3.177,0.257l-1.845-2.6c-2.224-3.135-2.595-7.245-0.97-10.728l9.541-20.446c0.113,0.126,0.219,0.261,0.332,0.407
				c0.45,0.582,1.01,1.304,2.37,1.94c1.361,0.635,2.276,0.599,3.01,0.572c0.592-0.022,1.019-0.039,1.807,0.329
				c0.79,0.368,1.052,0.707,1.413,1.173c0.45,0.581,1.012,1.304,2.372,1.939c1.361,0.636,2.273,0.6,3.01,0.573
				c0.184-0.007,0.354-0.013,0.523-0.007L61.42,83.556z M72.111,60.644c-0.723-0.172-1.288-0.151-1.776-0.133
				c-0.59,0.022-1.017,0.039-1.807-0.329c-0.788-0.368-1.05-0.707-1.413-1.173c-0.45-0.582-1.009-1.304-2.37-1.939
				c-1.36-0.635-2.275-0.6-3.009-0.573c-0.593,0.022-1.02,0.039-1.807-0.329c-0.791-0.368-1.053-0.705-1.413-1.173
				c-0.3-0.384-0.646-0.832-1.243-1.275l1.156-2.476l14.837,6.924L72.111,60.644z M78.585,61.015
				c-0.115,0.147-0.22,0.281-0.333,0.407l-1.519-3.255l14.837-6.924l1.52,3.253c-0.17,0.006-0.34,0.001-0.523-0.006
				c-0.736-0.028-1.649-0.064-3.01,0.572c-1.361,0.636-1.922,1.358-2.373,1.94c-0.36,0.467-0.622,0.804-1.412,1.172
				c-0.788,0.369-1.215,0.353-1.807,0.329c-0.733-0.028-1.648-0.063-3.01,0.573C79.595,59.712,79.033,60.434,78.585,61.015z
				 M100.604,89.958l-3.177-0.257c-3.83-0.309-7.22-2.663-8.845-6.146l-9.179-19.667c0.597-0.442,0.943-0.891,1.243-1.275
				c0.36-0.467,0.622-0.806,1.412-1.173c0.788-0.368,1.215-0.352,1.807-0.329c0.736,0.028,1.648,0.063,3.01-0.572
				c1.361-0.636,1.922-1.358,2.373-1.94c0.36-0.467,0.622-0.804,1.412-1.173c0.788-0.368,1.215-0.352,1.807-0.329
				c0.486,0.019,1.052,0.039,1.773-0.133l9.18,19.667c1.625,3.482,1.252,7.593-0.972,10.728L100.604,89.958z M106.762,110.551
				l2.21-2.662l3.462,0.015L106.762,110.551z"/>
		</g>
	</g>
	<g>
		<g>
			
				<rect x="93.877" y="67.764" transform="matrix(-0.9062 0.4228 -0.4228 -0.9062 210.1523 91.5188)" fill="#FFFFFF" width="2.097" height="2.607"/>
		</g>
	</g>
	<g>
		<g>
			
				<rect x="87.942" y="62.065" transform="matrix(-0.9062 0.4228 -0.4228 -0.9062 196.4294 83.1664)" fill="#FFFFFF" width="2.097" height="2.609"/>
		</g>
	</g>
	<g>
		<g>
			
				<rect x="86.012" y="69.55" transform="matrix(-0.9063 0.4227 -0.4227 -0.9063 195.9104 98.271)" fill="#FFFFFF" width="2.098" height="2.608"/>
		</g>
	</g>
	<g>
		<g>
			
				<rect x="91.979" y="78.553" transform="matrix(-0.9062 0.4228 -0.4228 -0.9062 211.0954 112.8878)" fill="#FFFFFF" width="2.097" height="2.607"/>
		</g>
	</g>
	<g>
		<g>
			
				<rect x="98.099" y="79.953" transform="matrix(-0.9062 0.4228 -0.4228 -0.9062 223.3538 112.9694)" fill="#FFFFFF" width="2.097" height="2.607"/>
		</g>
	</g>
</g>
</svg>
