<?xml version="1.0" encoding="utf-8"?>
<!-- Generator: Adobe Illustrator 22.0.1, SVG Export Plug-In . SVG Version: 6.00 Build 0)  -->
<svg version="1.1" id="Layer_1" xmlns="http://www.w3.org/2000/svg" xmlns:xlink="http://www.w3.org/1999/xlink" x="0px" y="0px"
	 viewBox="422.7 549.9 150 150" style="enable-background:new 422.7 549.9 150 150;" xml:space="preserve">
<style type="text/css">
	.st0{fill:#FFFFFF;}
	.st1{fill:#B6883E;}
</style>
<g>
	<circle class="st1" cx="497.7" cy="624.9" r="66.7"/>
</g>
<path class="st0" d="M538.3,639.3L504,619.2v-5.8c0-2.5-1.9-4.6-4.4-4.8v-2.3c3.7-0.9,6.5-4.2,6.5-8.2c0-4.6-3.8-8.4-8.4-8.4
	s-8.4,3.8-8.4,8.4c0,1.1,0.9,1.9,1.9,1.9s1.9-0.9,1.9-1.9c0-2.5,2.1-4.6,4.6-4.6s4.6,2.1,4.6,4.6c0,2.5-2.1,4.6-4.6,4.6
	c-1.1,0-1.9,0.9-1.9,1.9v4c-2.4,0.3-4.4,2.3-4.4,4.8v5.8l-34.4,20.1c-2.7,1.6-4.3,4.5-4.3,7.6c0,4.8,3.9,8.8,8.8,8.8h10.7v2.8
	c0,1.1,0.9,1.9,1.9,1.9s1.9-0.9,1.9-1.9v-2.8h43.3v2.8c0,1.1,0.9,1.9,1.9,1.9c1.1,0,1.9-0.9,1.9-1.9v-2.8h10.7
	c4.8,0,8.8-3.9,8.8-8.8C542.6,643.8,541,640.9,538.3,639.3z M496.3,612.3h2.8c0.6,0,1,0.5,1,1v4c-1.6-0.4-3.3-0.4-4.9,0v-4
	C495.2,612.8,495.7,612.3,496.3,612.3z M476.1,651.8v-2.9h43.3v2.9H476.1L476.1,651.8z M468,645.1l29.7-17.4l29.7,17.4H468
	L468,645.1z M533.9,651.8h-10.7v-2.9h10.7c1.1,0,2.1-0.9,2.1-2.1c0-0.7-0.4-1.4-1-1.8l-36.3-21.3c-0.6-0.4-1.3-0.4-1.9,0l-36.3,21.3
	c-0.6,0.4-1,1-1,1.8c0,1.1,0.9,2.1,2.1,2.1h10.7v2.9h-10.7c-2.7,0-4.9-2.2-4.9-4.9c0-1.7,0.9-3.4,2.4-4.2l35.5-20.8
	c1-0.6,2.1-0.9,3.1-0.9s2.2,0.3,3.1,0.9l35.5,20.8c1.5,0.9,2.4,2.5,2.4,4.2C538.8,649.6,536.6,651.8,533.9,651.8z"/>
</svg>
