<?xml version="1.0" encoding="utf-8"?>
<!-- Generator: Adobe Illustrator 22.0.1, SVG Export Plug-In . SVG Version: 6.00 Build 0)  -->
<svg version="1.1" id="Layer_1" xmlns="http://www.w3.org/2000/svg" xmlns:xlink="http://www.w3.org/1999/xlink" x="0px" y="0px"
	 viewBox="592.7 549.9 150 150" style="enable-background:new 592.7 549.9 150 150;" xml:space="preserve">
<style type="text/css">
	.st0{fill:#FFFFFF;}
	.st1{fill:#B6883E;}
</style>
<g>
	<circle class="st1" cx="667.7" cy="624.9" r="66.7"/>
</g>
<g>
	<g>
		<g>
			<path class="st0" d="M667.7,644.9c-0.8,0-1.4,0.6-1.4,1.4c0,0.8,0.6,1.4,1.4,1.4s1.4-0.6,1.4-1.4
				C669.1,645.5,668.5,644.9,667.7,644.9z"/>
		</g>
	</g>
	<g>
		<g>
			<path class="st0" d="M698.4,607.9c-3.1,0-5.7,2.6-5.7,5.7c0,0.6,0.1,1.2,0.3,1.7c-1.2,2.1-2.8,3.5-4.2,4.5
				c-4-4.4-9.5-7.4-15.7-8.6c-0.5-1.8-0.9-3.6-1-5.4c0.8-1,1.3-2.3,1.3-3.6c0-3.1-2.6-5.7-5.7-5.7s-5.7,2.6-5.7,5.7
				c0,1.3,0.5,2.6,1.3,3.6c-0.2,1.8-0.5,3.6-1,5.4c-6.2,1.1-11.7,4.1-15.7,8.6c-1.4-0.9-3-2.4-4.2-4.5c0.2-0.6,0.3-1.1,0.3-1.7
				c0-3.1-2.6-5.7-5.7-5.7s-5.7,2.6-5.7,5.7c0,2.1,1.2,4.1,3,5l8.8,26.7c-1.4,0.7-2.4,2.2-2.4,3.9c0,2.4,1.9,4.3,4.3,4.3h45.5
				c2.4,0,4.3-1.9,4.3-4.3c0-1.7-1-3.2-2.4-3.9l8.9-26.7c1.8-1,3-2.9,3-5C704.1,610.4,701.6,607.9,698.4,607.9z M686.2,621.1
				c-1.5,0.6-3,0.9-4.3,0.9c-2.8,0-5.7-3-7.7-7.8C678.9,615.5,683,617.8,686.2,621.1z M667.7,599.3c1.6,0,2.8,1.3,2.8,2.8
				c0,1.6-1.3,2.8-2.8,2.8c-1.5,0-2.8-1.3-2.8-2.8C664.8,600.6,666.1,599.3,667.7,599.3z M661.2,614.3c-2,4.7-5,7.8-7.7,7.8
				c-1.3,0-2.8-0.3-4.3-0.9C652.3,617.8,656.5,615.5,661.2,614.3z M636.1,616.3C636.1,616.3,636.1,616.3,636.1,616.3
				c-1.2-0.4-1.9-1.5-1.9-2.7c0-1.6,1.3-2.8,2.8-2.8s2.8,1.3,2.8,2.8C639.8,615.5,637.9,616.9,636.1,616.3z M689.4,644.9h-16
				c-0.8,0-1.4,0.6-1.4,1.4s0.6,1.4,1.4,1.4h17.1c0,0,0,0,0,0c0,0,0,0,0,0c0.8,0,1.4,0.6,1.4,1.4c0,0.8-0.6,1.4-1.4,1.4h-45.5
				c-0.8,0-1.4-0.6-1.4-1.4c0-0.8,0.6-1.4,1.4-1.4H662c0.8,0,1.4-0.6,1.4-1.4s-0.6-1.4-1.4-1.4h-16l-8.5-25.6
				c1.2-0.1,2.3-0.6,3.2-1.4c1.4,2,3.3,3.7,5.5,5c0,0,0,0,0,0c0,0,0,0,0,0c2.4,1.3,4.9,2.1,7.2,2.1c5.5,0,9.4-6.2,11.3-12.1
				c0,0,0,0,0,0c0,0,0,0,0-0.1c0.5-1.7,1-3.5,1.2-5.2c0.5,0.2,1.1,0.3,1.7,0.3c0.6,0,1.2-0.1,1.7-0.3c0.2,1.8,0.7,3.5,1.2,5.2
				c0,0,0,0,0,0c0,0,0,0,0,0c1.9,5.8,5.8,12.1,11.3,12.1c2.3,0,4.9-0.7,7.2-2.1c0,0,0,0,0,0c0,0,0,0,0,0c2.2-1.3,4.1-3,5.5-5
				c0.9,0.8,2,1.3,3.2,1.4L689.4,644.9z M699.5,616.2C699.5,616.2,699.4,616.2,699.5,616.2c-1.9,0.7-3.9-0.7-3.9-2.6
				c0-1.6,1.3-2.8,2.8-2.8s2.8,1.3,2.8,2.8C701.3,614.7,700.6,615.8,699.5,616.2z"/>
		</g>
	</g>
	<g>
		<g>
			<path class="st0" d="M667.7,624.9c-3.9,0-7.1,3.8-7.1,8.5c0,4.7,3.2,8.5,7.1,8.5s7.1-3.8,7.1-8.5
				C674.8,628.8,671.6,624.9,667.7,624.9z M667.7,639.2c-2.4,0-4.3-2.6-4.3-5.7c0-3.1,1.9-5.7,4.3-5.7s4.3,2.6,4.3,5.7
				C672,636.6,670,639.2,667.7,639.2z"/>
		</g>
	</g>
	<g>
		<g>
			<path class="st0" d="M681.9,630.6c-2.4,0-4.3,1.9-4.3,4.3c0,2.4,1.9,4.3,4.3,4.3s4.3-1.9,4.3-4.3
				C686.2,632.5,684.3,630.6,681.9,630.6z M681.9,636.3c-0.8,0-1.4-0.6-1.4-1.4c0-0.8,0.6-1.4,1.4-1.4c0.8,0,1.4,0.6,1.4,1.4
				C683.3,635.7,682.7,636.3,681.9,636.3z"/>
		</g>
	</g>
	<g>
		<g>
			<path class="st0" d="M653.5,630.6c-2.4,0-4.3,1.9-4.3,4.3c0,2.4,1.9,4.3,4.3,4.3s4.3-1.9,4.3-4.3
				C657.7,632.5,655.8,630.6,653.5,630.6z M653.5,636.3c-0.8,0-1.4-0.6-1.4-1.4c0-0.8,0.6-1.4,1.4-1.4c0.8,0,1.4,0.6,1.4,1.4
				C654.9,635.7,654.2,636.3,653.5,636.3z"/>
		</g>
	</g>
</g>
</svg>
