<?xml version="1.0" encoding="utf-8"?>
<!-- Generator: Adobe Illustrator 22.0.1, SVG Export Plug-In . SVG Version: 6.00 Build 0)  -->
<svg version="1.1" id="Layer_1" xmlns="http://www.w3.org/2000/svg" xmlns:xlink="http://www.w3.org/1999/xlink" x="0px" y="0px"
	 viewBox="732.6 345.9 150 150" style="enable-background:new 732.6 345.9 150 150;" xml:space="preserve">
<style type="text/css">
	.st0{fill:#FFFFFF;}
</style>
<g>
	<g>
		<g>
			<rect x="805.7" y="360.7" class="st0" width="3.9" height="12.1"/>
		</g>
	</g>
	<g>
		<g>
			
				<rect x="817.6" y="368.6" transform="matrix(0.4198 -0.9076 0.9076 0.4198 141.5777 962.5107)" class="st0" width="12.1" height="3.9"/>
		</g>
	</g>
	<g>
		<g>
			
				<rect x="789.7" y="364.5" transform="matrix(0.9076 -0.4198 0.4198 0.9076 -82.4082 366.5615)" class="st0" width="3.9" height="12.1"/>
		</g>
	</g>
	<g>
		<g>
			
				<rect x="780.3" y="399.9" transform="matrix(0.4229 -0.9062 0.9062 0.4229 87.678 940.5729)" class="st0" width="3.9" height="3.1"/>
		</g>
	</g>
	<g>
		<g>
			
				<rect x="784.9" y="406.1" transform="matrix(0.4229 -0.9062 0.9062 0.4229 84.7081 948.2515)" class="st0" width="3.9" height="3.1"/>
		</g>
	</g>
	<g>
		<g>
			
				<rect x="786.4" y="420.6" transform="matrix(0.4229 -0.9062 0.9062 0.4229 72.3313 957.9866)" class="st0" width="3.9" height="3.1"/>
		</g>
	</g>
	<g>
		<g>
			
				<rect x="770.3" y="422.9" transform="matrix(0.4229 -0.9062 0.9062 0.4229 61.0602 944.7271)" class="st0" width="3.9" height="3.1"/>
		</g>
	</g>
	<g>
		<g>
			
				<rect x="772.6" y="436.1" transform="matrix(0.4229 -0.9062 0.9062 0.4229 50.4282 954.4288)" class="st0" width="3.9" height="3.1"/>
		</g>
	</g>
	<g>
		<g>
			<path class="st0" d="M871.6,466l-13.1-0.1l-9.6-20.6l2.7-3.8c4.1-5.8,4.8-13.4,1.8-19.8l-19.3-41.3l-26.5,12.4l-26.5-12.4
				l-19.3,41.3c-3,6.4-2.3,14,1.8,19.8l2.7,3.8l-9.6,20.6l-13.1,0.1l-1.6,3.5l24.9,11.6l1.6-3.5l-8.3-10l9.6-20.6l4.7-0.4
				c7.1-0.6,13.4-4.9,16.4-11.4l16.7-35.8l16.7,35.8c3,6.4,9.3,10.8,16.4,11.4l4.7,0.4l9.6,20.6l-8.3,10l1.6,3.5l24.9-11.6
				L871.6,466z M760.4,473.8l-8.4-3.9l5.1,0L760.4,473.8z M787.4,433.7c-2.4,5.2-7.5,8.7-13.2,9.1l-4.7,0.4l-2.7-3.9
				c-3.3-4.7-3.9-10.8-1.4-16l14.2-30.4c0.2,0.2,0.3,0.4,0.5,0.6c0.7,0.9,1.5,1.9,3.5,2.9c2,0.9,3.4,0.9,4.5,0.9
				c0.9,0,1.5-0.1,2.7,0.5c1.2,0.5,1.6,1.1,2.1,1.7c0.7,0.9,1.5,1.9,3.5,2.9c2,0.9,3.4,0.9,4.5,0.9c0.3,0,0.5,0,0.8,0L787.4,433.7z
				 M803.3,399.6c-1.1-0.3-1.9-0.2-2.6-0.2c-0.9,0-1.5,0.1-2.7-0.5c-1.2-0.5-1.6-1.1-2.1-1.7c-0.7-0.9-1.5-1.9-3.5-2.9
				c-2-0.9-3.4-0.9-4.5-0.9c-0.9,0-1.5,0.1-2.7-0.5c-1.2-0.5-1.6-1.1-2.1-1.7c-0.4-0.6-1-1.2-1.8-1.9l1.7-3.7l22.1,10.3L803.3,399.6
				z M813,400.1c-0.2,0.2-0.3,0.4-0.5,0.6l-2.3-4.8l22.1-10.3l2.3,4.8c-0.3,0-0.5,0-0.8,0c-1.1,0-2.5-0.1-4.5,0.9
				c-2,0.9-2.9,2-3.5,2.9c-0.5,0.7-0.9,1.2-2.1,1.7c-1.2,0.5-1.8,0.5-2.7,0.5c-1.1,0-2.5-0.1-4.5,0.9
				C814.5,398.2,813.6,399.3,813,400.1z M845.7,443.2l-4.7-0.4c-5.7-0.5-10.7-4-13.2-9.1l-13.7-29.3c0.9-0.7,1.4-1.3,1.8-1.9
				c0.5-0.7,0.9-1.2,2.1-1.7c1.2-0.5,1.8-0.5,2.7-0.5c1.1,0,2.5,0.1,4.5-0.9c2-0.9,2.9-2,3.5-2.9c0.5-0.7,0.9-1.2,2.1-1.7
				c1.2-0.5,1.8-0.5,2.7-0.5c0.7,0,1.6,0.1,2.6-0.2l13.7,29.3c2.4,5.2,1.9,11.3-1.4,16L845.7,443.2z M854.9,473.8l3.3-4l5.1,0
				L854.9,473.8z"/>
		</g>
	</g>
	<g>
		<g>
			
				<rect x="835.7" y="410.2" transform="matrix(0.9062 -0.4228 0.4228 0.9062 -95.728 392.6855)" class="st0" width="3.1" height="3.9"/>
		</g>
	</g>
	<g>
		<g>
			
				<rect x="826.9" y="401.7" transform="matrix(0.9062 -0.423 0.423 0.9062 -92.9741 388.2764)" class="st0" width="3.1" height="3.9"/>
		</g>
	</g>
	<g>
		<g>
			
				<rect x="824" y="412.8" transform="matrix(0.9062 -0.4229 0.4229 0.9062 -97.9508 388.0449)" class="st0" width="3.1" height="3.9"/>
		</g>
	</g>
	<g>
		<g>
			
				<rect x="832.9" y="426.2" transform="matrix(0.9062 -0.4229 0.4229 0.9062 -102.7808 393.0482)" class="st0" width="3.1" height="3.9"/>
		</g>
	</g>
	<g>
		<g>
			
				<rect x="842" y="428.3" transform="matrix(0.9062 -0.4229 0.4229 0.9062 -102.808 397.1028)" class="st0" width="3.1" height="3.9"/>
		</g>
	</g>
</g>
</svg>
