<?xml version="1.0" encoding="utf-8"?>
<!-- Generator: Adobe Illustrator 22.0.1, SVG Export Plug-In . SVG Version: 6.00 Build 0)  -->
<svg version="1.1" id="Layer_1" xmlns="http://www.w3.org/2000/svg" xmlns:xlink="http://www.w3.org/1999/xlink" x="0px" y="0px"
	 viewBox="932.7 549.9 150 150" style="enable-background:new 932.7 549.9 150 150;" xml:space="preserve">
<style type="text/css">
	.st0{fill:#FFFFFF;}
	.st1{fill:#B6883E;}
</style>
<g>
	<circle class="st1" cx="1007.7" cy="624.9" r="66.7"/>
</g>
<g>
	<g>
		<path class="st0" d="M1040.1,643.7c3.2-3.2,3.2-8.4,0-11.6c-3.2-3.2-8.4-3.2-11.6,0l-4.4,4.4c-1.2,1.2-3.2,1.2-4.4,0l-7.8-7.8
			c-0.5-0.5-1.1-0.8-1.8-0.8c-0.7,0-1.3,0.3-1.8,0.8c-2.1,2.1-5,3.3-8,3.3c-3,0-5.9-1.2-8-3.3l-7.1-7.1l16-16l7.1,7.1
			c2,2,3.1,4.6,3.3,7.3c0.1,1.4,1.2,2.4,2.6,2.4c0,0,0.1,0,0.2,0c1.4-0.1,2.5-1.3,2.4-2.7c-0.2-4-1.9-7.8-4.8-10.7l-7.1-7.1l0.8-0.8
			c1-1,1-2.6,0-3.6c-1-1-2.6-1-3.6,0l-5,5l-8.7-8.7c-1-1-2.6-1-3.6,0c-1,1-1,2.6,0,3.6l8.7,8.7l-7.5,7.5l-8.7-8.7c-1-1-2.6-1-3.6,0
			c-1,1-1,2.6,0,3.6l8.7,8.7l-5,5c-1,1-1,2.6,0,3.6c0.5,0.5,1.2,0.8,1.8,0.8c0.7,0,1.3-0.3,1.8-0.8l0.8-0.8l7.1,7.1
			c3.1,3.1,7.2,4.8,11.6,4.8c3.5,0,6.9-1.1,9.7-3.1l6.1,6.1c1.6,1.6,3.7,2.4,5.8,2.4s4.2-0.8,5.8-2.4l4.4-4.4c1.2-1.2,3.2-1.2,4.4,0
			c1.2,1.2,1.2,3.2,0,4.4l-4.4,4.4c-1.6,1.6-2.4,3.6-2.4,5.8c0,2.2,0.9,4.3,2.4,5.8c0.5,0.5,1.2,0.8,1.8,0.8s1.3-0.3,1.8-0.8
			c1-1,1-2.6,0-3.6c-0.6-0.6-0.9-1.4-0.9-2.2c0-0.8,0.3-1.6,0.9-2.2L1040.1,643.7z"/>
	</g>
</g>
</svg>
