<?xml version="1.0" encoding="utf-8"?>
<!-- Generator: Adobe Illustrator 22.0.1, SVG Export Plug-In . SVG Version: 6.00 Build 0)  -->
<svg version="1.1" id="Layer_1" xmlns="http://www.w3.org/2000/svg" xmlns:xlink="http://www.w3.org/1999/xlink" x="0px" y="0px"
	 viewBox="902.6 345.9 150 150" style="enable-background:new 902.6 345.9 150 150;" xml:space="preserve">
<style type="text/css">
	.st0{fill:#FFFFFF;}
</style>
<g>
	<path class="st0" d="M985.1,470c-0.8-0.8-2.1-0.8-2.9,0c-0.8,0.8-0.8,2.1,0,2.9l8.1,8.1c0.4,0.4,0.9,0.6,1.4,0.6
		c0.5,0,1-0.2,1.4-0.6c0.8-0.8,0.8-2.1,0-2.9L985.1,470z"/>
	<path class="st0" d="M977.6,457.3c-1.1,0-2,0.9-2,2v5.2l-13.5,13.5c-0.8,0.8-0.8,2.1,0,2.9c0.4,0.4,0.9,0.6,1.4,0.6
		c0.5,0,1-0.2,1.4-0.6l14.1-14.1c0.4-0.4,0.6-0.9,0.6-1.4v-6.1C979.7,458.2,978.8,457.3,977.6,457.3z"/>
	<path class="st0" d="M1036.2,364.4h-56.5v-2c0-1.1-0.9-2-2-2s-2,0.9-2,2v2h-56.5c-1.1,0-2,0.9-2,2v8.1c0,1.1,0.9,2,2,2h105
		c1.1,0,2-0.9,2-2s-0.9-2-2-2h-103v-4h113.1v4h-2c-1.1,0-2,0.9-2,2v68.6c0,3.3-2.7,6.1-6.1,6.1h-92.9c-3.3,0-6.1-2.7-6.1-6.1v-60.6
		c0-1.1-0.9-2-2-2c-1.1,0-2,0.9-2,2v60.6c0,5.6,4.5,10.1,10.1,10.1h92.9c5.6,0,10.1-4.5,10.1-10.1v-66.6h2c1.1,0,2-0.9,2-2v-8.1
		C1038.2,365.3,1037.3,364.4,1036.2,364.4z"/>
	<g>
		<g>
			<g>
				<path class="st0" d="M1000.7,386.3c-0.4-0.6-1.4-0.7-2-0.3L985,397l-17.7-7.4c-0.4-0.2-0.9-0.1-1.3,0.2l-19,13.6
					c-0.6,0.4-0.8,1.3-0.3,1.9c0.3,0.4,0.7,0.6,1.1,0.6c0.3,0,0.5-0.1,0.8-0.3l18.4-13.1l17.8,7.4c0.4,0.2,1,0.1,1.4-0.2l14.3-11.4
					C1001,387.8,1001.1,386.9,1000.7,386.3z"/>
			</g>
		</g>
		<g>
			<g>
				<path class="st0" d="M1020.5,432.8h-6.3v-39.3c0-0.8-0.6-1.4-1.4-1.4h-12.5c-0.8,0-1.4,0.6-1.4,1.4v39.3h-4.6v-25.7
					c0-0.8-0.6-1.4-1.4-1.4h-12.6c-0.8,0-1.4,0.6-1.4,1.4v25.7h-4.6V405c0-0.8-0.6-1.4-1.4-1.4h-12.5c-0.8,0-1.4,0.6-1.4,1.4v27.7
					h-4.6V413c0-0.8-0.6-1.4-1.4-1.4h-12.6c-0.8,0-1.4,0.6-1.4,1.4v19.8h-6.4c-0.8,0-1.4,0.6-1.4,1.4c0,0.8,0.6,1.4,1.4,1.4h7.6
					h12.5h7.5h12.5h7.3H993h7.3h12.5h7.6c0.8,0,1.4-0.6,1.4-1.4C1021.9,433.4,1021.3,432.8,1020.5,432.8z M952.1,432.8h-9.8v-18.4
					h9.8V432.8z M971.9,432.8h-9.8v-26.4h9.8V432.8z M991.7,432.8h-9.8v-24.3h9.8V432.8z M1011.5,432.8h-9.8v-37.9h9.8V432.8z"/>
			</g>
		</g>
	</g>
</g>
</svg>
