<?xml version="1.0" encoding="utf-8"?>
<!-- Generator: Adobe Illustrator 16.0.0, SVG Export Plug-In . SVG Version: 6.00 Build 0)  -->
<!DOCTYPE svg PUBLIC "-//W3C//DTD SVG 1.1//EN" "http://www.w3.org/Graphics/SVG/1.1/DTD/svg11.dtd">
<svg version="1.1" id="Capa_1" xmlns="http://www.w3.org/2000/svg" xmlns:xlink="http://www.w3.org/1999/xlink" x="0px" y="0px"
	 width="150px" height="150px" viewBox="0 0 150 150" enable-background="new 0 0 150 150" xml:space="preserve">
<path fill="#B6883E" d="M141.746,75c0,36.861-29.883,66.746-66.746,66.746c-36.861,0-66.746-29.885-66.746-66.746
	C8.254,38.137,38.139,8.253,75,8.253C111.863,8.253,141.746,38.137,141.746,75"/>
<g>
	<g>
		<g>
			<path fill="#FFFFFF" d="M110.283,101.768H39.717c-0.672,0-1.217,0.544-1.217,1.217c0,4.694,3.82,8.517,8.516,8.517h55.967
				c4.697,0,8.518-3.822,8.518-8.517C111.5,102.312,110.955,101.768,110.283,101.768z M102.982,109.067H47.016
				c-2.938,0-5.395-2.094-5.961-4.867h67.889C108.379,106.974,105.922,109.067,102.982,109.067z"/>
		</g>
	</g>
	<g>
		<g>
			<path fill="#FFFFFF" d="M99.332,76.218H50.666c-3.354,0-6.084,2.729-6.084,6.083v20.684c0,0.673,0.545,1.216,1.217,1.216h58.4
				c0.674,0,1.217-0.545,1.217-1.216V82.301C105.416,78.946,102.688,76.218,99.332,76.218z M102.982,101.768H47.016V82.301
				c0-2.013,1.639-3.65,3.65-3.65h48.666c2.014,0,3.65,1.638,3.65,3.65V101.768L102.982,101.768z"/>
		</g>
	</g>
	<g>
		<g>
			<path fill="#FFFFFF" d="M88.383,54.317H61.615c-3.354,0-6.082,2.729-6.082,6.083v17.033c0,0.673,0.545,1.217,1.217,1.217h36.5
				c0.672,0,1.217-0.545,1.217-1.217V60.4C94.467,57.046,91.736,54.317,88.383,54.317z M92.033,76.218H57.967V60.4
				c0-2.013,1.637-3.65,3.648-3.65h26.768c2.012,0,3.65,1.637,3.65,3.65V76.218z"/>
		</g>
	</g>
	<g>
		<g>
			<path fill="#FFFFFF" d="M104.197,89.603c-0.002,0-0.006,0-0.01,0c-1.033,0-2.045-0.419-2.775-1.151
				c-0.002-0.003-0.006-0.005-0.006-0.007c-2.486-2.482-6.533-2.48-9.012,0.002c-1.541,1.528-4.045,1.527-5.586,0.001
				c-0.002-0.001-0.002-0.003-0.002-0.003c-2.488-2.482-6.533-2.48-9.012,0.002c-1.541,1.528-4.047,1.527-5.586,0.001
				c-0.002-0.001-0.002-0.003-0.002-0.003c-2.488-2.482-6.531-2.48-9.014,0.002c-1.541,1.527-4.045,1.527-5.584,0.001
				c-0.002-0.001-0.002-0.003-0.004-0.004c-2.486-2.483-6.531-2.48-9.016,0.007c-0.73,0.731-1.742,1.151-2.775,1.151
				c-0.002,0-0.006,0-0.01,0l-0.006,2.433c0.004,0,0.01,0,0.016,0c1.676,0,3.314-0.678,4.498-1.864
				c1.535-1.539,4.037-1.54,5.574-0.004c0.002,0.003,0.006,0.005,0.008,0.007c2.484,2.465,6.529,2.465,9.018-0.003
				c1.537-1.539,4.037-1.54,5.574-0.004c0.004,0.003,0.006,0.005,0.008,0.007c2.484,2.465,6.529,2.465,9.016-0.004
				c1.535-1.535,4.027-1.539,5.566-0.013c0.01,0.009,0.02,0.019,0.029,0.028c2.484,2.451,6.52,2.447,9.004-0.016
				c1.535-1.536,4.027-1.541,5.566-0.014c0.008,0.008,0.018,0.017,0.025,0.025c1.182,1.178,2.816,1.853,4.486,1.853
				c0.004,0,0.01,0,0.018,0.001L104.197,89.603z"/>
		</g>
	</g>
	<g>
		<g>
			<path fill="#FFFFFF" d="M92.385,65.918c-1.535,1.536-4.035,1.534-5.578-0.007c-2.484-2.462-6.527-2.465-9.021,0.007
				c-0.744,0.745-1.732,1.153-2.785,1.153h-0.002c-1.053-0.001-2.043-0.411-2.791-1.161c-2.479-2.459-6.51-2.466-8.994-0.02
				c-0.01,0.008-0.02,0.017-0.027,0.025c-0.744,0.745-1.734,1.153-2.787,1.153h-0.002c-1.053,0-2.043-0.411-2.787-1.156
				l-1.721,1.719c2.477,2.482,6.508,2.49,8.996,0.026c0.006-0.007,0.014-0.014,0.021-0.021c1.539-1.528,4.045-1.527,5.582-0.003
				c1.203,1.205,2.805,1.869,4.508,1.87c0,0,0.002,0,0.004,0c1.701,0,3.301-0.662,4.508-1.867c1.541-1.528,4.047-1.527,5.582-0.003
				c2.484,2.484,6.529,2.488,9.021,0L92.385,65.918z"/>
		</g>
	</g>
	<g>
		<g>
			<rect x="61.615" y="60.399" fill="#FFFFFF" width="2.434" height="2.433"/>
		</g>
	</g>
	<g>
		<g>
			<rect x="67.699" y="59.183" fill="#FFFFFF" width="2.434" height="2.433"/>
		</g>
	</g>
	<g>
		<g>
			<rect x="73.783" y="60.399" fill="#FFFFFF" width="2.434" height="2.433"/>
		</g>
	</g>
	<g>
		<g>
			<rect x="79.865" y="59.183" fill="#FFFFFF" width="2.434" height="2.433"/>
		</g>
	</g>
	<g>
		<g>
			<rect x="85.949" y="60.399" fill="#FFFFFF" width="2.434" height="2.433"/>
		</g>
	</g>
	<g>
		<g>
			<rect x="61.615" y="82.3" fill="#FFFFFF" width="2.434" height="2.434"/>
		</g>
	</g>
	<g>
		<g>
			<rect x="67.699" y="81.083" fill="#FFFFFF" width="2.434" height="2.434"/>
		</g>
	</g>
	<g>
		<g>
			<rect x="73.783" y="82.3" fill="#FFFFFF" width="2.434" height="2.434"/>
		</g>
	</g>
	<g>
		<g>
			<rect x="79.865" y="81.083" fill="#FFFFFF" width="2.434" height="2.434"/>
		</g>
	</g>
	<g>
		<g>
			<rect x="85.949" y="82.3" fill="#FFFFFF" width="2.434" height="2.434"/>
		</g>
	</g>
	<g>
		<g>
			<rect x="49.449" y="82.3" fill="#FFFFFF" width="2.434" height="2.434"/>
		</g>
	</g>
	<g>
		<g>
			<rect x="55.533" y="81.083" fill="#FFFFFF" width="2.434" height="2.434"/>
		</g>
	</g>
	<g>
		<g>
			<rect x="92.033" y="81.083" fill="#FFFFFF" width="2.434" height="2.434"/>
		</g>
	</g>
	<g>
		<g>
			<rect x="98.115" y="82.3" fill="#FFFFFF" width="2.434" height="2.434"/>
		</g>
	</g>
	<g>
		<g>
			<path fill="#FFFFFF" d="M77.432,47.017h-4.865c-0.672,0-1.217,0.545-1.217,1.216v7.3c0,0.671,0.545,1.217,1.217,1.217h4.865
				c0.674,0,1.217-0.545,1.217-1.217v-7.3C78.648,47.562,78.105,47.017,77.432,47.017z M76.217,54.317h-2.434V49.45h2.434V54.317z"
				/>
		</g>
	</g>
	<g>
		<g>
			<path fill="#FFFFFF" d="M78.119,42.042c-0.354-1.418-1.238-2.616-2.492-3.369c-0.385-0.232-0.869-0.232-1.254,0
				c-0.766,0.46-1.414,1.108-1.873,1.874c-1.555,2.588-0.715,5.958,1.873,7.513c0.193,0.116,0.41,0.174,0.627,0.174
				s0.434-0.058,0.627-0.174c0.766-0.46,1.412-1.108,1.873-1.874C78.252,44.933,78.473,43.462,78.119,42.042z M75.412,44.934
				c-0.117,0.196-0.256,0.377-0.414,0.542c-0.365-0.378-0.627-0.848-0.758-1.373c-0.195-0.789-0.072-1.606,0.346-2.303
				c0.117-0.196,0.256-0.377,0.414-0.541c0.365,0.378,0.627,0.848,0.758,1.372C75.955,43.419,75.832,44.237,75.412,44.934z"/>
		</g>
	</g>
	<g>
		<g>
			<path fill="#FFFFFF" d="M67.699,47.017h-4.867c-0.672,0-1.217,0.545-1.217,1.216v7.3c0,0.671,0.545,1.217,1.217,1.217h4.867
				c0.674,0,1.217-0.545,1.217-1.217v-7.3C68.916,47.562,68.371,47.017,67.699,47.017z M66.482,54.317h-2.434V49.45h2.434V54.317z"
				/>
		</g>
	</g>
	<g>
		<g>
			<path fill="#FFFFFF" d="M65.895,38.673c-0.387-0.231-0.869-0.231-1.254,0c-0.766,0.46-1.414,1.108-1.873,1.874
				c-1.555,2.588-0.717,5.958,1.871,7.513c0.195,0.116,0.41,0.174,0.627,0.174c0.219,0,0.436-0.058,0.627-0.174
				c0.768-0.46,1.416-1.108,1.875-1.874C69.322,43.598,68.482,40.228,65.895,38.673z M65.68,44.934
				c-0.117,0.196-0.256,0.377-0.414,0.542c-0.365-0.378-0.627-0.848-0.758-1.373c-0.197-0.789-0.074-1.606,0.344-2.303
				c0.117-0.196,0.258-0.377,0.416-0.541c0.365,0.378,0.627,0.848,0.756,1.372C66.221,43.419,66.098,44.237,65.68,44.934z"/>
		</g>
	</g>
	<g>
		<g>
			<path fill="#FFFFFF" d="M87.166,47.017h-4.867c-0.672,0-1.217,0.545-1.217,1.216v7.3c0,0.671,0.545,1.217,1.217,1.217h4.867
				c0.674,0,1.217-0.545,1.217-1.217v-7.3C88.383,47.562,87.84,47.017,87.166,47.017z M85.949,54.317h-2.434V49.45h2.434V54.317z"/>
		</g>
	</g>
	<g>
		<g>
			<path fill="#FFFFFF" d="M87.852,42.042c-0.354-1.418-1.238-2.616-2.494-3.369c-0.381-0.23-0.865-0.231-1.252,0
				c-0.766,0.46-1.414,1.108-1.873,1.874c-0.754,1.253-0.973,2.724-0.619,4.144c0.354,1.418,1.238,2.616,2.492,3.369
				c0.195,0.117,0.41,0.174,0.627,0.174s0.436-0.058,0.625-0.174c0.768-0.46,1.414-1.108,1.875-1.874
				C87.984,44.933,88.205,43.462,87.852,42.042z M85.146,44.934c-0.117,0.196-0.256,0.377-0.414,0.542
				c-0.365-0.378-0.627-0.848-0.758-1.373c-0.197-0.789-0.076-1.606,0.344-2.303c0.119-0.196,0.258-0.377,0.416-0.541
				c0.365,0.378,0.627,0.848,0.756,1.372C85.688,43.419,85.566,44.237,85.146,44.934z"/>
		</g>
	</g>
</g>
</svg>
