<?xml version="1.0" encoding="utf-8"?>
<!-- Generator: Adobe Illustrator 16.0.0, SVG Export Plug-In . SVG Version: 6.00 Build 0)  -->
<!DOCTYPE svg PUBLIC "-//W3C//DTD SVG 1.1//EN" "http://www.w3.org/Graphics/SVG/1.1/DTD/svg11.dtd">
<svg version="1.1" id="Capa_1" xmlns="http://www.w3.org/2000/svg" xmlns:xlink="http://www.w3.org/1999/xlink" x="0px" y="0px"
	 width="150px" height="150px" viewBox="0 0 150 150" enable-background="new 0 0 150 150" xml:space="preserve">
<path fill="#B6883E" d="M141.746,75c0,36.861-29.883,66.746-66.746,66.746c-36.862,0-66.747-29.885-66.747-66.746
	C8.253,38.137,38.138,8.253,75,8.253C111.863,8.253,141.746,38.137,141.746,75"/>
<g>
	<g>
		<g>
			<path fill="#FFFFFF" d="M57.967,52.683c-4.225,4.225-4.225,11.076,0,15.3l16.086,16.084c0.522,0.524,1.372,0.524,1.895,0
				l16.087-16.084c4.243-4.207,4.275-11.057,0.068-15.3c-4.206-4.244-11.057-4.275-15.301-0.069
				c-0.022,0.022-0.046,0.046-0.069,0.069L75,54.416l-1.733-1.733C69.042,48.458,62.191,48.458,57.967,52.683z M74.053,57.259
				c0.522,0.523,1.372,0.523,1.895,0l2.682-2.681c3.179-3.178,8.33-3.178,11.509,0c3.179,3.178,3.179,8.331,0,11.509L75,81.225
				L59.862,66.087c-3.178-3.178-3.178-8.332,0-11.509c3.177-3.178,8.331-3.178,11.509,0L74.053,57.259z"/>
			<rect x="73.754" y="93.749" fill="#FFFFFF" width="2.681" height="21.448"/>
			<rect x="97.789" y="84.367" fill="#FFFFFF" width="2.68" height="30.83"/>
			<rect x="49.531" y="85.706" fill="#FFFFFF" width="2.682" height="29.491"/>
			<path fill="#FFFFFF" d="M58.914,74.983h-2.682c-0.354,0-0.696,0.141-0.947,0.392l-2.681,2.681l1.896,1.896l2.288-2.288h0.785
				v6.704h-0.838l-10.344-9.052c-0.244-0.214-0.559-0.332-0.883-0.332h-2.681c-0.74,0-1.342,0.6-1.342,1.339v9.384
				c0,0.74,0.602,1.341,1.342,1.341h2.681c0.356,0,0.696-0.142,0.948-0.392l2.68-2.683l-1.895-1.895l-2.289,2.289H44.17v-6.704
				h0.836l10.346,9.052c0.244,0.214,0.558,0.332,0.881,0.332h2.682c0.741,0,1.341-0.601,1.341-1.341v-9.384
				C60.255,75.583,59.655,74.983,58.914,74.983z"/>
			<path fill="#FFFFFF" d="M83.145,83.025c-0.002,0-0.005,0-0.007,0h-2.681c-0.355,0-0.696,0.142-0.948,0.394l-2.68,2.68
				l1.896,1.896l2.288-2.289h0.783v6.703H80.96l-10.345-9.051c-0.245-0.214-0.558-0.333-0.881-0.333h-2.682
				c-0.741,0-1.341,0.6-1.341,1.342v9.382c0,0.74,0.6,1.341,1.341,1.341h2.682c0.354,0,0.695-0.142,0.946-0.392l2.681-2.684
				l-1.896-1.894l-2.288,2.288h-0.785v-6.703h0.843l10.348,9.052c0.243,0.214,0.556,0.332,0.881,0.332h2.681
				c0.74,0,1.34-0.601,1.34-1.341v-9.382C84.484,83.625,83.885,83.025,83.145,83.025z"/>
			<path fill="#FFFFFF" d="M107.171,73.642h-2.681c-0.355,0-0.696,0.141-0.947,0.392l-2.683,2.682l1.896,1.896l2.288-2.289h0.787
				v6.703h-0.838l-10.346-9.051c-0.244-0.214-0.558-0.332-0.883-0.333h-2.68c-0.739,0-1.34,0.6-1.34,1.341v9.384
				c0,0.739,0.601,1.339,1.34,1.339h2.68c0.356,0,0.696-0.142,0.949-0.393l2.681-2.682l-1.895-1.895l-2.289,2.288h-0.786v-6.703
				h0.836l10.347,9.052c0.245,0.213,0.557,0.332,0.882,0.332h2.681c0.741,0,1.341-0.6,1.341-1.339v-9.384
				C108.512,74.242,107.912,73.642,107.171,73.642z"/>
			<path fill="#FFFFFF" d="M50.871,74.983c2.784-0.122,5.41-1.331,7.312-3.369l-1.852-1.94c-1.411,1.55-3.367,2.492-5.46,2.627
				c-6.91,0-13.403-13.379-13.403-21.447c0.02-7.403,6.037-13.388,13.44-13.368c5.967,0.017,11.205,3.975,12.85,9.711l2.578-0.729
				c-2.444-8.541-11.347-13.484-19.889-11.041c-6.89,1.972-11.644,8.261-11.661,15.426C34.786,59.114,41.577,74.983,50.871,74.983z"
				/>
			<path fill="#FFFFFF" d="M50.871,42.812V40.13c-5.92,0.007-10.716,4.805-10.724,10.724h2.682
				C42.833,46.414,46.431,42.816,50.871,42.812z"/>
			<path fill="#FFFFFF" d="M99.129,36.109c-5.755,0-11.104,3.62-13.962,9.437l2.406,1.182c2.403-4.896,6.833-7.938,11.556-7.938
				c7.391,0,13.403,7.216,13.403,16.085c0,8.871-6.013,16.086-13.403,16.086c-1.693-0.001-3.364-0.379-4.892-1.108l-1.142,2.425
				c1.884,0.897,3.945,1.362,6.033,1.363c8.87,0,16.085-8.418,16.085-18.767S107.999,36.109,99.129,36.109z"/>
			<path fill="#FFFFFF" d="M99.129,44.152v-2.682c-3.694,0-7.2,2.468-9.149,6.434l2.41,1.183
				C93.881,46.045,96.465,44.152,99.129,44.152z"/>
			<rect x="40.147" y="53.535" fill="#FFFFFF" width="2.682" height="2.681"/>
			<path fill="#FFFFFF" d="M62.841,60.333c0-1.533,1.243-2.776,2.775-2.776v-2.682c-3.014,0.001-5.456,2.446-5.456,5.461
				c0.002,1.446,0.574,2.833,1.598,3.855l1.896-1.896C63.132,61.776,62.84,61.069,62.841,60.333z"/>
			
				<rect x="63.725" y="65.6" transform="matrix(0.707 0.7072 -0.7072 0.707 66.5623 -26.7939)" fill="#FFFFFF" width="3.79" height="2.68"/>
		</g>
	</g>
</g>
</svg>
