<?xml version="1.0" encoding="utf-8"?>
<!-- Generator: Adobe Illustrator 22.0.1, SVG Export Plug-In . SVG Version: 6.00 Build 0)  -->
<svg version="1.1" id="Layer_1" xmlns="http://www.w3.org/2000/svg" xmlns:xlink="http://www.w3.org/1999/xlink" x="0px" y="0px"
	 viewBox="762.7 549.9 150 150" style="enable-background:new 762.7 549.9 150 150;" xml:space="preserve">
<style type="text/css">
	.st0{fill:#FFFFFF;}
	.st1{fill:#B6883E;}
</style>
<g>
	<circle class="st1" cx="837.7" cy="624.9" r="66.7"/>
</g>
<g>
	<g>
		<g>
			<path class="st0" d="M858.1,628c0-0.8-0.4-1.6-1-2.2c-5.3-4.7-12.2-7.4-19.4-7.4s-14,2.6-19.4,7.4c-0.6,0.6-1,1.4-1,2.2
				c0,0.8,0.3,1.7,0.9,2.3l5.9,5.9c1.1,1.1,2.9,1.2,4.2,0.2c2.6-2.2,6-3.4,9.5-3.4c3.5,0,6.8,1.2,9.5,3.4c0.6,0.5,1.3,0.7,2,0.7
				c0.8,0,1.6-0.3,2.2-0.9l5.9-5.9C857.8,629.7,858.1,628.9,858.1,628z M849.2,634L849.2,634c-3.2-2.7-7.3-4.2-11.5-4.2
				c-4.2,0-8.3,1.5-11.5,4.2l-5.9-5.8c4.8-4.2,10.9-6.6,17.3-6.6c6.4,0,12.6,2.3,17.3,6.6L849.2,634z"/>
		</g>
	</g>
	<g>
		<g>
			<path class="st0" d="M842.3,643c-1.2-1.2-2.9-1.9-4.6-1.9s-3.4,0.7-4.6,1.9c-2.5,2.5-2.5,6.6,0,9.2c1.3,1.3,2.9,1.9,4.6,1.9
				c1.7,0,3.3-0.6,4.6-1.9c1.2-1.2,1.9-2.9,1.9-4.6C844.2,645.9,843.5,644.2,842.3,643z M840.1,650c-1.3,1.3-3.5,1.3-4.8,0
				c-1.3-1.3-1.3-3.5,0-4.8c0.6-0.6,1.5-1,2.4-1c0.9,0,1.8,0.4,2.4,1c0,0,0,0,0,0c0.6,0.6,1,1.5,1,2.4
				C841.1,648.5,840.7,649.4,840.1,650z"/>
		</g>
	</g>
	<g>
		<g>
			<path class="st0" d="M873.1,609.8c-19.9-18.7-51-18.7-70.9,0c-0.6,0.6-1,1.4-1,2.2c0,0.8,0.3,1.6,0.9,2.2l5.8,5.8
				c1.2,1.2,3,1.2,4.3,0.1c6.9-6.4,15.9-10,25.4-10c9.5,0,18.5,3.5,25.4,10c0.6,0.5,1.3,0.8,2.1,0.8c0.8,0,1.6-0.3,2.2-0.9l5.8-5.8
				c0.6-0.6,0.9-1.4,0.9-2.2C874.1,611.2,873.8,610.4,873.1,609.8z M865.2,617.9c-7.5-6.9-17.3-10.8-27.5-10.8
				c-10.3,0-20,3.8-27.5,10.8l-5.8-5.8c18.7-17.6,48-17.6,66.7,0l0,0L865.2,617.9z"/>
		</g>
	</g>
</g>
</svg>
