<?xml version="1.0" encoding="utf-8"?>
<!-- Generator: Adobe Illustrator 22.0.1, SVG Export Plug-In . SVG Version: 6.00 Build 0)  -->
<svg version="1.1" id="Layer_1" xmlns="http://www.w3.org/2000/svg" xmlns:xlink="http://www.w3.org/1999/xlink" x="0px" y="0px"
	 viewBox="592.7 722.4 150 150" style="enable-background:new 592.7 722.4 150 150;" xml:space="preserve">
<style type="text/css">
	.st0{fill:#FFFFFF;}
	.st1{fill:#B6883E;}
</style>
<g>
	<circle class="st1" cx="667.7" cy="797.4" r="66.7"/>
</g>
<g>
	<g>
		<g>
			<path class="st0" d="M703.4,794.6L662.2,771c-3.2-1.8-7.5-0.8-9.6,2.2l-8,11.4c-0.8,1.1-1.2,2.4-1.2,3.8c0,2.4,1.3,4.6,3.3,5.7
				l8.7,5l-1.6,2.1c-0.8,1.1-1.3,2.5-1.3,4c0,1.5,0.5,2.8,1.4,4l-2.3,3.5h-11.2V808c0-0.8-0.7-1.5-1.5-1.5h-6.1
				c-0.8,0-1.5,0.7-1.5,1.5v15.2c0,0.8,0.7,1.5,1.5,1.5h6.1c0.8,0,1.5-0.7,1.5-1.5v-1.5h11.2c3.1,0,5.9-1.5,7.6-4.1l2.5-3.7
				c0.5,0.1,1,0.2,1.5,0.2c2.4,0,4.7-1.3,5.9-3.4l1.7-2.8l12.9,7.5c0.2,0.1,0.5,0.2,0.8,0.2c0.1,0,0.3,0,0.4-0.1
				c0.4-0.1,0.7-0.4,0.9-0.8l1.1-2.3c0.2,0,0.4,0.1,0.5,0.1c5.9,0,10.6-4.8,10.6-10.6c0-0.6-0.1-1.3-0.2-2l5.5-2.7
				c0.5-0.3,0.8-0.8,0.8-1.3C704.1,795.4,703.8,794.8,703.4,794.6z M637.3,821.7h-3v-12.1h3L637.3,821.7L637.3,821.7z M656.6,816
				c-1.1,1.7-3,2.7-5.1,2.7h-11.2v-3h11.2c1,0,2-0.5,2.5-1.4l2.1-3.2l2.6,1.6L656.6,816z M666.4,809.2c-1.1,1.8-3.6,2.4-5.3,1.3
				l-3.8-2.3c-1.1-0.6-1.7-1.8-1.7-3c0-0.8,0.3-1.5,0.7-2.1l1.8-2.4l10,5.8L666.4,809.2z M683.8,812l-35.5-20.5
				c-1.1-0.6-1.8-1.8-1.8-3.1c0-0.7,0.2-1.4,0.6-2.1l3.8-5.4l37.6,21.7L683.8,812z M688.4,809.5l3.2-6.4l3.4-1.7
				c0,0.2,0.1,0.4,0.1,0.6C695,805.8,692.1,809,688.4,809.5z M690.5,800.3l-37.9-21.8l2.4-3.5c0.8-1.1,2.1-1.8,3.5-1.8
				c0.7,0,1.5,0.2,2.1,0.6l38.7,22.1L690.5,800.3z"/>
			<circle class="st0" cx="681.4" cy="805" r="1.5"/>
		</g>
	</g>
</g>
</svg>
