<?xml version="1.0" encoding="utf-8"?>
<!-- Generator: Adobe Illustrator 22.0.1, SVG Export Plug-In . SVG Version: 6.00 Build 0)  -->
<svg version="1.1" id="Layer_1" xmlns="http://www.w3.org/2000/svg" xmlns:xlink="http://www.w3.org/1999/xlink" x="0px" y="0px"
	 viewBox="762.7 722.4 150 150" style="enable-background:new 762.7 722.4 150 150;" xml:space="preserve">
<style type="text/css">
	.st0{fill:#FFFFFF;}
	.st1{fill:#B6883E;}
</style>
<g>
	<circle class="st1" cx="837.7" cy="797.4" r="66.7"/>
</g>
<g>
	<g>
		<g>
			<path class="st0" d="M848.1,813.5c-0.8-0.5-1.6-0.9-2.3-1.4c0.2-1.6,0.2-3.2,0-4.7c0.8-0.5,1.6-0.9,2.3-1.4
				c1.3-0.8,1.8-2.4,1.2-3.8c0,0,0,0,0,0l-1.7-4c-0.6-1.4-2.1-2.2-3.6-1.8c-0.9,0.2-1.7,0.4-2.6,0.7c-1-1.2-2.1-2.4-3.4-3.4
				c0.2-0.9,0.5-1.8,0.7-2.6c0.4-1.5-0.4-3-1.8-3.6l-4-1.7c-1.4-0.6-3,0-3.8,1.2c-0.5,0.8-0.9,1.6-1.4,2.3c-1.6-0.2-3.2-0.2-4.7,0
				c-0.5-0.8-0.9-1.6-1.4-2.3c-0.8-1.3-2.4-1.8-3.8-1.2l-4,1.7c-1.4,0.6-2.2,2.1-1.8,3.6c0.2,0.9,0.4,1.7,0.7,2.6
				c-1.2,1-2.4,2.1-3.4,3.4c-0.9-0.2-1.8-0.5-2.6-0.7c-1.5-0.4-3,0.4-3.6,1.8l-1.7,4c-0.6,1.4,0,3,1.2,3.8c0.8,0.5,1.6,0.9,2.3,1.4
				c-0.2,1.6-0.2,3.2,0,4.7c-0.8,0.5-1.6,0.9-2.3,1.4c-1.3,0.8-1.8,2.4-1.2,3.8l1.7,4c0.6,1.4,2.1,2.2,3.6,1.8
				c0.9-0.2,1.7-0.4,2.6-0.7c1,1.2,2.1,2.4,3.4,3.4c-0.2,0.9-0.5,1.8-0.7,2.6c-0.4,1.5,0.4,3,1.8,3.6l4,1.7c0.4,0.2,0.8,0.2,1.2,0.2
				c1,0,2.1-0.5,2.6-1.5c0.5-0.8,0.9-1.5,1.4-2.3c1.6,0.2,3.2,0.2,4.7,0c0.5,0.8,0.9,1.6,1.4,2.3c0.8,1.3,2.4,1.8,3.8,1.2l4-1.7
				c1.4-0.6,2.2-2.1,1.8-3.6c-0.2-0.9-0.4-1.7-0.7-2.6c1.2-1,2.4-2.1,3.4-3.4c0.9,0.2,1.8,0.5,2.6,0.7c1.5,0.4,3-0.4,3.6-1.8l1.7-4
				C849.9,815.9,849.3,814.2,848.1,813.5z M844.7,819.9c-0.8-0.2-1.7-0.4-2.5-0.7c-1.2-0.3-2.4,0.1-3.2,1.1c-0.9,1.1-1.9,2.1-3,3
				c-1,0.8-1.4,2-1.1,3.2c0.2,0.8,0.4,1.7,0.7,2.5l-3.7,1.5c-0.4-0.7-0.9-1.5-1.3-2.2c-0.6-1.1-1.8-1.7-3-1.5
				c-1.4,0.2-2.8,0.2-4.2,0c-1.2-0.2-2.4,0.4-3,1.5c-0.4,0.8-0.9,1.5-1.3,2.2l-3.7-1.5c0.2-0.8,0.4-1.7,0.7-2.5
				c0.3-1.2-0.1-2.4-1.1-3.2c-1.1-0.9-2.1-1.9-3-3c-0.8-1-2-1.4-3.2-1.1c-0.8,0.2-1.7,0.4-2.5,0.7l-1.5-3.7c0.7-0.4,1.5-0.9,2.2-1.3
				c1.1-0.6,1.7-1.8,1.5-3c-0.2-1.4-0.2-2.8,0-4.2c0.2-1.2-0.4-2.4-1.5-3c-0.8-0.4-1.5-0.9-2.2-1.3l1.5-3.7c0.8,0.2,1.7,0.4,2.5,0.7
				c1.2,0.3,2.4-0.1,3.2-1.1c0.9-1.1,1.9-2.1,3-3c1-0.8,1.4-2,1.1-3.2c-0.2-0.8-0.4-1.7-0.7-2.5l3.7-1.5c0.4,0.7,0.9,1.5,1.3,2.2
				c0.6,1.1,1.8,1.7,3,1.5c1.4-0.2,2.8-0.2,4.2,0c1.2,0.2,2.4-0.4,3-1.5c0.4-0.8,0.9-1.5,1.3-2.2l3.7,1.5c-0.2,0.8-0.4,1.7-0.7,2.5
				c-0.3,1.2,0.1,2.4,1.1,3.2c1.1,0.9,2.1,1.9,3,3c0.8,1,2,1.4,3.2,1.1c0.8-0.2,1.7-0.4,2.5-0.7l1.5,3.7c-0.7,0.4-1.5,0.9-2.2,1.3
				c-1.1,0.6-1.7,1.8-1.5,3c0.2,1.4,0.2,2.8,0,4.2c-0.2,1.2,0.4,2.4,1.5,3c0.8,0.4,1.5,0.9,2.2,1.3L844.7,819.9z"/>
		</g>
	</g>
	<g>
		<g>
			<path class="st0" d="M835.7,805.5C835.7,805.5,835.7,805.5,835.7,805.5c-2.3-5.7-8.9-8.4-14.5-6c-5.7,2.3-8.4,8.9-6,14.5
				c1.1,2.7,3.3,4.9,6,6c1.4,0.6,2.8,0.9,4.3,0.9s2.9-0.3,4.3-0.9C835.3,817.6,838,811.1,835.7,805.5z M828.4,817
				c-1.9,0.8-4.1,0.8-6,0c-1.9-0.8-3.4-2.3-4.3-4.3c-1.7-4,0.2-8.6,4.3-10.3c1-0.4,2-0.6,3-0.6c3.1,0,6,1.8,7.3,4.8
				C834.3,810.7,832.4,815.3,828.4,817z"/>
		</g>
	</g>
	<g>
		<g>
			<path class="st0" d="M871.9,775.4c-0.6-0.1-1.1-0.2-1.7-0.2c-0.3-1-0.7-1.9-1.2-2.8c0.4-0.5,0.7-0.9,1-1.4c0.8-1,0.6-2.5-0.3-3.4
				l-2.2-2.2c-0.9-0.9-2.3-1-3.4-0.3c-0.5,0.3-0.9,0.7-1.4,1c-0.9-0.5-1.8-0.9-2.8-1.2c-0.1-0.6-0.2-1.2-0.2-1.7
				c-0.2-1.3-1.3-2.2-2.6-2.2H854c-1.3,0-2.4,0.9-2.6,2.2c-0.1,0.6-0.2,1.1-0.2,1.7c-1,0.3-1.9,0.7-2.8,1.2c-0.5-0.4-0.9-0.7-1.4-1
				c-1-0.8-2.5-0.6-3.4,0.3l-2.2,2.2c-0.9,0.9-1,2.3-0.3,3.4c0.3,0.5,0.7,0.9,1,1.4c-0.5,0.9-0.9,1.8-1.2,2.8
				c-0.6,0.1-1.2,0.2-1.7,0.2c-1.3,0.2-2.2,1.3-2.2,2.6v3.2c0,1.3,0.9,2.4,2.2,2.6c0.6,0.1,1.1,0.2,1.7,0.2c0.3,1,0.7,1.9,1.2,2.8
				c-0.4,0.5-0.7,0.9-1,1.4c-0.8,1-0.6,2.5,0.3,3.4l2.2,2.2c0.9,0.9,2.3,1,3.4,0.3c0.5-0.3,0.9-0.7,1.4-1c0.9,0.5,1.8,0.9,2.8,1.2
				c0.1,0.6,0.2,1.2,0.2,1.7c0.2,1.3,1.3,2.2,2.6,2.2h3.2c1.3,0,2.4-0.9,2.6-2.2c0.1-0.6,0.2-1.1,0.2-1.7c1-0.3,1.9-0.7,2.8-1.2
				c0.5,0.4,0.9,0.7,1.4,1c1,0.8,2.5,0.6,3.4-0.3l2.2-2.2c0.9-0.9,1-2.3,0.3-3.4c-0.3-0.5-0.7-0.9-1-1.4c0.5-0.9,0.9-1.8,1.2-2.8
				c0.6-0.1,1.2-0.2,1.7-0.2c1.3-0.2,2.2-1.3,2.2-2.6v-3.2C874.1,776.6,873.2,775.5,871.9,775.4z M871,780.7c-0.5,0.1-1,0.1-1.6,0.2
				c-1,0.1-1.9,0.9-2.2,1.9c-0.3,1-0.6,1.9-1.1,2.8c-0.5,0.9-0.4,2,0.2,2.9c0.3,0.4,0.6,0.8,0.9,1.3l-1.6,1.6
				c-0.4-0.3-0.8-0.6-1.3-0.9c-0.8-0.6-1.9-0.7-2.9-0.2c-0.9,0.5-1.8,0.9-2.7,1.1c-1,0.3-1.7,1.1-1.9,2.2c-0.1,0.5-0.1,1-0.2,1.6
				h-2.3c-0.1-0.5-0.1-1-0.2-1.6c-0.1-1-0.9-1.9-1.9-2.2c-1-0.3-1.9-0.6-2.8-1.1c-0.9-0.5-2-0.4-2.9,0.2c-0.4,0.3-0.8,0.6-1.3,0.9
				l-1.6-1.6c0.3-0.4,0.6-0.8,0.9-1.3c0.6-0.8,0.7-1.9,0.2-2.9c-0.5-0.9-0.9-1.8-1.1-2.8c-0.3-1-1.1-1.7-2.2-1.9
				c-0.5-0.1-1-0.1-1.6-0.2v-2.3c0.5-0.1,1-0.1,1.6-0.2c1-0.1,1.9-0.9,2.2-1.9c0.3-1,0.6-1.9,1.1-2.8c0.5-0.9,0.4-2-0.2-2.9
				c-0.3-0.4-0.6-0.8-0.9-1.3l1.6-1.6c0.4,0.3,0.8,0.6,1.3,0.9c0.8,0.6,1.9,0.7,2.9,0.2c0.9-0.5,1.8-0.9,2.7-1.1
				c1-0.3,1.7-1.1,1.9-2.2c0.1-0.5,0.1-1,0.2-1.6h2.3c0.1,0.5,0.1,1,0.2,1.6c0.1,1,0.9,1.9,1.9,2.2c1,0.3,1.9,0.6,2.8,1.1
				c0.9,0.5,2,0.4,2.9-0.2c0.4-0.3,0.8-0.6,1.3-0.9l1.6,1.6c-0.3,0.4-0.6,0.8-0.9,1.3c-0.6,0.8-0.7,1.9-0.2,2.9
				c0.5,0.9,0.9,1.8,1.1,2.8c0.3,1,1.1,1.7,2.2,1.9c0.5,0.1,1,0.1,1.6,0.2V780.7L871,780.7z"/>
		</g>
	</g>
	<g>
		<g>
			<path class="st0" d="M855.6,772.9c-3.6,0-6.6,3-6.6,6.6c0,3.6,3,6.6,6.6,6.6c3.6,0,6.6-3,6.6-6.6
				C862.2,775.9,859.2,772.9,855.6,772.9z M855.6,783.2c-2,0-3.7-1.6-3.7-3.7c0-2,1.6-3.7,3.7-3.7c2,0,3.7,1.6,3.7,3.7
				C859.3,781.5,857.6,783.2,855.6,783.2z"/>
		</g>
	</g>
</g>
</svg>
