<?xml version="1.0" encoding="utf-8"?>
<!-- Generator: Adobe Illustrator 22.0.1, SVG Export Plug-In . SVG Version: 6.00 Build 0)  -->
<svg version="1.1" id="Layer_1" xmlns="http://www.w3.org/2000/svg" xmlns:xlink="http://www.w3.org/1999/xlink" x="0px" y="0px"
	 viewBox="82.7 722.4 150 150" style="enable-background:new 82.7 722.4 150 150;" xml:space="preserve">
<style type="text/css">
	.st0{fill:#FFFFFF;}
	.st1{fill:#B6883E;}
</style>
<g>
	<circle class="st1" cx="157.7" cy="797.4" r="66.7"/>
</g>
<g>
	<g>
		<g>
			<path class="st0" d="M170.5,824.9c-0.8,0-1.4,0.6-1.4,1.4c0,0.8,0.6,1.4,1.4,1.4s1.4-0.6,1.4-1.4
				C171.9,825.5,171.3,824.9,170.5,824.9z"/>
		</g>
	</g>
	<g>
		<g>
			<path class="st0" d="M183.9,812.2c-1.4-2.1-3.5-3.8-5.9-4.7l-10.4-4.1c2.7-2.7,4.3-6.3,4.3-10.2c0-1.5-0.2-3-0.7-4.5
				c0.4-0.3,0.7-0.7,0.7-1.2v-4.4l2.5-5l2.4-1.2c0.5-0.2,0.8-0.7,0.8-1.3v-4.3c0-0.6-0.4-1.2-1-1.4l-4-1.3l-9.8-7.4
				c-0.2-0.2-0.5-0.3-0.9-0.3h-8.5c-0.3,0-0.6,0.1-0.9,0.3l-9.8,7.4l-4,1.3c-0.6,0.2-1,0.7-1,1.3v4.3c0,0.5,0.3,1,0.8,1.3l2.4,1.2
				l2.5,5v4.4c0,0.5,0.3,1,0.7,1.2c-0.5,1.4-0.7,2.9-0.7,4.5c0,3.9,1.6,7.5,4.3,10.2l-10.4,4.1c-2.4,0.9-4.4,2.6-5.9,4.7
				c-1.4,2.1-2.2,4.6-2.2,7.2v13c0,0.8,0.6,1.4,1.4,1.4h25.6c0,0,0,0,0,0c0,0,0,0,0,0h2.8c0,0,0,0,0,0c0,0,0,0,0,0h25.6
				c0.8,0,1.4-0.6,1.4-1.4v-13C186.1,816.8,185.4,814.3,183.9,812.2z M172.1,808.2l-8.7,14.4v-4.3c0-0.9-0.3-1.8-0.9-2.6l-2.5-3.3
				c1.2-0.8,1.9-2.1,1.9-3.6v-2.1c1.1-0.3,2.1-0.8,3-1.4L172.1,808.2z M143.3,776.4c-0.1-0.3-0.4-0.5-0.6-0.6l-2.1-1v-2.4l3.3-1.1
				c0.1,0,0.3-0.1,0.4-0.2l9.6-7.3h7.6l9.6,7.3c0.1,0.1,0.3,0.2,0.4,0.2l3.3,1.1v2.4l-2.1,1c-0.3,0.1-0.5,0.4-0.6,0.6l-2.5,4.9
				h-23.9L143.3,776.4z M146.3,784.2h22.8v2.2l-3.7,1.2c-2.5,0.8-5.1,1.2-7.7,1.2c-1.3,0-2.6-0.1-3.9-0.3c-1.3-0.2-2.6-0.5-3.8-0.9
				l-2.7-0.9c-0.1-0.1-0.3-0.3-0.5-0.4c-0.1-0.1-0.3-0.1-0.4-0.1V784.2z M146.3,793.2c0-1.2,0.2-2.4,0.6-3.5l2.2,0.7
				c1.4,0.5,2.8,0.8,4.3,1c1.4,0.2,2.9,0.3,4.4,0.3c2.9,0,5.8-0.5,8.6-1.4l2.3-0.7c0.4,1.1,0.6,2.3,0.6,3.5c0,3.8-1.9,7.3-5,9.4
				c0,0,0,0-0.1,0c-1.2,0.8-2.4,1.3-3.8,1.6c-1.6,0.4-3.4,0.4-5.1,0c-1.4-0.3-2.7-0.9-3.8-1.7C148.2,800.5,146.3,797,146.3,793.2z
				 M159.1,807.3v1.5c0,0.8-0.6,1.4-1.4,1.4c-0.4,0-0.7-0.1-1-0.4c-0.3-0.3-0.4-0.6-0.4-1v-1.5c0.5,0,0.9,0.1,1.4,0.1
				C158.2,807.4,158.6,807.4,159.1,807.3z M150.4,805.4c1,0.6,2,1,3,1.4v2.1c0,1.1,0.4,2.2,1.3,3c0.2,0.2,0.4,0.4,0.7,0.6l-2.5,3.3
				c-0.6,0.7-0.9,1.6-0.9,2.6v4.3l-8.7-14.4L150.4,805.4z M132.1,831v-11.6c0-4.1,2.5-7.7,6.3-9.3l2.2-0.9l11.5,19l1.7,2.8H132.1z
				 M160.5,827.3l-2.2,3.7h-1.2l-2.2-3.7v-9c0-0.3,0.1-0.6,0.3-0.9l2.6-3.4l2.6,3.4c0.2,0.2,0.3,0.5,0.3,0.9V827.3L160.5,827.3z
				 M161.6,831l13.1-21.8l2.2,0.9c3.8,1.5,6.3,5.1,6.3,9.3V831H161.6z"/>
		</g>
	</g>
	<g>
		<g>
			<path class="st0" d="M157.7,767.1c-3.1,0-5.7,2.6-5.7,5.7s2.6,5.7,5.7,5.7c3.1,0,5.7-2.6,5.7-5.7S160.8,767.1,157.7,767.1z
				 M157.7,775.7c-1.6,0-2.8-1.3-2.8-2.8s1.3-2.8,2.8-2.8c1.6,0,2.8,1.3,2.8,2.8S159.3,775.7,157.7,775.7z"/>
		</g>
	</g>
	<g>
		<g>
			<path class="st0" d="M179,824.9h-2.8c-0.8,0-1.4,0.6-1.4,1.4c0,0.8,0.6,1.4,1.4,1.4h2.8c0.8,0,1.4-0.6,1.4-1.4
				C180.5,825.5,179.8,824.9,179,824.9z"/>
		</g>
	</g>
</g>
</svg>
