<?xml version="1.0" encoding="utf-8"?>
<!-- Generator: Adobe Illustrator 22.0.1, SVG Export Plug-In . SVG Version: 6.00 Build 0)  -->
<svg version="1.1" id="Layer_1" xmlns="http://www.w3.org/2000/svg" xmlns:xlink="http://www.w3.org/1999/xlink" x="0px" y="0px"
	 viewBox="562.6 345.9 150 150" style="enable-background:new 562.6 345.9 150 150;" xml:space="preserve">
<style type="text/css">
	.st0{fill:#FFFFFF;}
</style>
<g>
	<g>
		<g>
			<path class="st0" d="M699.1,467.6H576.2c-1.2,0-2.1,0.9-2.1,2.1c0,8.2,6.7,14.8,14.8,14.8h97.5c8.2,0,14.8-6.7,14.8-14.8
				C701.2,468.5,700.3,467.6,699.1,467.6z M686.4,480.3h-97.5c-5.1,0-9.4-3.6-10.4-8.5h118.3C695.8,476.7,691.5,480.3,686.4,480.3z"
				/>
		</g>
	</g>
	<g>
		<g>
			<path class="st0" d="M680,423.1h-84.8c-5.8,0-10.6,4.8-10.6,10.6v36c0,1.2,0.9,2.1,2.1,2.1h101.7c1.2,0,2.1-0.9,2.1-2.1v-36
				C690.6,427.8,685.9,423.1,680,423.1z M686.4,467.6h-97.5v-33.9c0-3.5,2.9-6.4,6.4-6.4H680c3.5,0,6.4,2.9,6.4,6.4L686.4,467.6
				L686.4,467.6z"/>
		</g>
	</g>
	<g>
		<g>
			<path class="st0" d="M661,384.9h-46.6c-5.8,0-10.6,4.8-10.6,10.6v29.7c0,1.2,0.9,2.1,2.1,2.1h63.6c1.2,0,2.1-0.9,2.1-2.1v-29.7
				C671.6,389.7,666.8,384.9,661,384.9z M667.3,423.1H608v-27.6c0-3.5,2.9-6.4,6.4-6.4H661c3.5,0,6.4,2.9,6.4,6.4V423.1z"/>
		</g>
	</g>
	<g>
		<g>
			<path class="st0" d="M688.5,446.4C688.5,446.4,688.5,446.4,688.5,446.4c-1.8,0-3.6-0.7-4.9-2c0,0,0,0,0,0
				c-4.3-4.3-11.4-4.3-15.7,0c-2.7,2.7-7,2.7-9.7,0c0,0,0,0,0,0c-4.3-4.3-11.4-4.3-15.7,0c-2.7,2.7-7.1,2.7-9.7,0c0,0,0,0,0,0
				c-4.3-4.3-11.4-4.3-15.7,0c-2.7,2.7-7,2.7-9.7,0c0,0,0,0,0,0c-4.3-4.3-11.4-4.3-15.7,0c-1.3,1.3-3,2-4.8,2c0,0,0,0,0,0l0,4.2
				c0,0,0,0,0,0c2.9,0,5.8-1.2,7.8-3.2c2.7-2.7,7-2.7,9.7,0c0,0,0,0,0,0c4.3,4.3,11.4,4.3,15.7,0c2.7-2.7,7-2.7,9.7,0c0,0,0,0,0,0
				c4.3,4.3,11.4,4.3,15.7,0c2.7-2.7,7-2.7,9.7,0c0,0,0,0,0,0c4.3,4.3,11.4,4.3,15.7,0c2.7-2.7,7-2.7,9.7,0c0,0,0,0,0,0
				c2.1,2.1,4.9,3.2,7.8,3.2c0,0,0,0,0,0L688.5,446.4z"/>
		</g>
	</g>
	<g>
		<g>
			<path class="st0" d="M667.9,405.1c-2.7,2.7-7,2.7-9.7,0c-4.3-4.3-11.4-4.3-15.7,0c-1.3,1.3-3,2-4.9,2c0,0,0,0,0,0
				c-1.8,0-3.6-0.7-4.9-2c-4.3-4.3-11.3-4.3-15.7,0c0,0,0,0,0,0c-1.3,1.3-3,2-4.9,2c0,0,0,0,0,0c-1.8,0-3.6-0.7-4.9-2l-3,3
				c4.3,4.3,11.3,4.3,15.7,0c0,0,0,0,0,0c2.7-2.7,7-2.7,9.7,0c2.1,2.1,4.9,3.3,7.9,3.3c0,0,0,0,0,0c3,0,5.8-1.2,7.9-3.3
				c2.7-2.7,7.1-2.7,9.7,0c4.3,4.3,11.4,4.3,15.7,0L667.9,405.1z"/>
		</g>
	</g>
	<g>
		<g>
			<rect x="614.3" y="395.5" class="st0" width="4.2" height="4.2"/>
		</g>
	</g>
	<g>
		<g>
			<rect x="624.9" y="393.4" class="st0" width="4.2" height="4.2"/>
		</g>
	</g>
	<g>
		<g>
			<rect x="635.5" y="395.5" class="st0" width="4.2" height="4.2"/>
		</g>
	</g>
	<g>
		<g>
			<rect x="646.1" y="393.4" class="st0" width="4.2" height="4.2"/>
		</g>
	</g>
	<g>
		<g>
			<rect x="656.7" y="395.5" class="st0" width="4.2" height="4.2"/>
		</g>
	</g>
	<g>
		<g>
			<rect x="614.3" y="433.7" class="st0" width="4.2" height="4.2"/>
		</g>
	</g>
	<g>
		<g>
			<rect x="624.9" y="431.5" class="st0" width="4.2" height="4.2"/>
		</g>
	</g>
	<g>
		<g>
			<rect x="635.5" y="433.7" class="st0" width="4.2" height="4.2"/>
		</g>
	</g>
	<g>
		<g>
			<rect x="646.1" y="431.5" class="st0" width="4.2" height="4.2"/>
		</g>
	</g>
	<g>
		<g>
			<rect x="656.7" y="433.7" class="st0" width="4.2" height="4.2"/>
		</g>
	</g>
	<g>
		<g>
			<rect x="593.1" y="433.7" class="st0" width="4.2" height="4.2"/>
		</g>
	</g>
	<g>
		<g>
			<rect x="603.7" y="431.5" class="st0" width="4.2" height="4.2"/>
		</g>
	</g>
	<g>
		<g>
			<rect x="667.3" y="431.5" class="st0" width="4.2" height="4.2"/>
		</g>
	</g>
	<g>
		<g>
			<rect x="677.9" y="433.7" class="st0" width="4.2" height="4.2"/>
		</g>
	</g>
	<g>
		<g>
			<path class="st0" d="M641.9,372.2h-8.5c-1.2,0-2.1,0.9-2.1,2.1V387c0,1.2,0.9,2.1,2.1,2.1h8.5c1.2,0,2.1-0.9,2.1-2.1v-12.7
				C644,373.1,643.1,372.2,641.9,372.2z M639.8,384.9h-4.2v-8.5h4.2V384.9z"/>
		</g>
	</g>
	<g>
		<g>
			<path class="st0" d="M643.1,363.5c-0.6-2.5-2.2-4.6-4.3-5.9c-0.7-0.4-1.5-0.4-2.2,0c-1.3,0.8-2.5,1.9-3.3,3.3
				c-2.7,4.5-1.2,10.4,3.3,13.1c0.3,0.2,0.7,0.3,1.1,0.3c0.4,0,0.8-0.1,1.1-0.3c1.3-0.8,2.5-1.9,3.3-3.3
				C643.3,368.6,643.7,366,643.1,363.5z M638.4,368.6c-0.2,0.3-0.4,0.7-0.7,0.9c-0.6-0.7-1.1-1.5-1.3-2.4c-0.3-1.4-0.1-2.8,0.6-4
				c0.2-0.3,0.4-0.7,0.7-0.9c0.6,0.7,1.1,1.5,1.3,2.4C639.3,365.9,639.1,367.3,638.4,368.6z"/>
		</g>
	</g>
	<g>
		<g>
			<path class="st0" d="M624.9,372.2h-8.5c-1.2,0-2.1,0.9-2.1,2.1V387c0,1.2,0.9,2.1,2.1,2.1h8.5c1.2,0,2.1-0.9,2.1-2.1v-12.7
				C627,373.1,626.1,372.2,624.9,372.2z M622.8,384.9h-4.2v-8.5h4.2V384.9z"/>
		</g>
	</g>
	<g>
		<g>
			<path class="st0" d="M621.8,357.7c-0.7-0.4-1.5-0.4-2.2,0c-1.3,0.8-2.5,1.9-3.3,3.3c-2.7,4.5-1.2,10.4,3.3,13.1
				c0.3,0.2,0.7,0.3,1.1,0.3c0.4,0,0.8-0.1,1.1-0.3c1.3-0.8,2.5-1.9,3.3-3.3C627.7,366.2,626.3,360.4,621.8,357.7z M621.4,368.6
				c-0.2,0.3-0.4,0.7-0.7,0.9c-0.6-0.7-1.1-1.5-1.3-2.4c-0.3-1.4-0.1-2.8,0.6-4c0.2-0.3,0.4-0.7,0.7-0.9c0.6,0.7,1.1,1.5,1.3,2.4
				C622.3,365.9,622.1,367.3,621.4,368.6z"/>
		</g>
	</g>
	<g>
		<g>
			<path class="st0" d="M658.8,372.2h-8.5c-1.2,0-2.1,0.9-2.1,2.1V387c0,1.2,0.9,2.1,2.1,2.1h8.5c1.2,0,2.1-0.9,2.1-2.1v-12.7
				C661,373.1,660,372.2,658.8,372.2z M656.7,384.9h-4.2v-8.5h4.2V384.9z"/>
		</g>
	</g>
	<g>
		<g>
			<path class="st0" d="M660,363.5c-0.6-2.5-2.2-4.6-4.3-5.9c-0.7-0.4-1.5-0.4-2.2,0c-1.3,0.8-2.5,1.9-3.3,3.3
				c-1.3,2.2-1.7,4.7-1.1,7.2c0.6,2.5,2.2,4.6,4.3,5.9c0.3,0.2,0.7,0.3,1.1,0.3c0.4,0,0.8-0.1,1.1-0.3c1.3-0.8,2.5-1.9,3.3-3.3
				C660.3,368.6,660.6,366,660,363.5z M655.3,368.6c-0.2,0.3-0.4,0.7-0.7,0.9c-0.6-0.7-1.1-1.5-1.3-2.4c-0.3-1.4-0.1-2.8,0.6-4
				c0.2-0.3,0.4-0.7,0.7-0.9c0.6,0.7,1.1,1.5,1.3,2.4C656.3,365.9,656,367.3,655.3,368.6z"/>
		</g>
	</g>
</g>
</svg>
