<?xml version="1.0" encoding="utf-8"?>
<!-- Generator: Adobe Illustrator 16.0.0, SVG Export Plug-In . SVG Version: 6.00 Build 0)  -->
<!DOCTYPE svg PUBLIC "-//W3C//DTD SVG 1.1//EN" "http://www.w3.org/Graphics/SVG/1.1/DTD/svg11.dtd">
<svg version="1.1" id="Capa_1" xmlns="http://www.w3.org/2000/svg" xmlns:xlink="http://www.w3.org/1999/xlink" x="0px" y="0px"
	 width="150px" height="150px" viewBox="0 0 150 150" enable-background="new 0 0 150 150" xml:space="preserve">
<path fill="#B6883E" d="M141.746,75c0,36.861-29.883,66.746-66.746,66.746c-36.861,0-66.746-29.885-66.746-66.746
	C8.254,38.137,38.139,8.253,75,8.253C111.863,8.253,141.746,38.137,141.746,75"/>
<g>
	<path fill="#FFFFFF" d="M79.51,104.557c-0.476-0.477-1.245-0.477-1.721,0c-0.476,0.476-0.476,1.244,0,1.721l4.867,4.866
		c0.237,0.237,0.549,0.356,0.86,0.356s0.622-0.119,0.859-0.356c0.477-0.476,0.477-1.245,0-1.72L79.51,104.557z"/>
	<path fill="#FFFFFF" d="M74.999,96.9c-0.673,0-1.216,0.545-1.216,1.217v3.146l-8.16,8.159c-0.476,0.476-0.476,1.245,0,1.721
		c0.237,0.237,0.549,0.356,0.859,0.356c0.312,0,0.623-0.119,0.86-0.356l8.517-8.517c0.228-0.229,0.356-0.538,0.356-0.86v-3.649
		C76.216,97.445,75.672,96.9,74.999,96.9z"/>
	<path fill="#FFFFFF" d="M110.283,40.934H76.216v-1.217c0-0.672-0.544-1.217-1.217-1.217s-1.216,0.545-1.216,1.217v1.216H39.716
		c-0.673,0-1.216,0.545-1.216,1.217v4.867c0,0.671,0.543,1.217,1.216,1.217h63.267c0.673,0,1.217-0.545,1.217-1.217
		s-0.544-1.217-1.217-1.217h-62.05v-2.433h68.134V45.8h-1.217c-0.673,0-1.217,0.545-1.217,1.217v41.366
		c0,2.013-1.638,3.65-3.65,3.65H47.017c-2.013,0-3.65-1.638-3.65-3.65v-36.5c0-0.671-0.544-1.217-1.217-1.217
		s-1.217,0.545-1.217,1.217v36.5c0,3.354,2.729,6.084,6.084,6.084h55.966c3.354,0,6.084-2.729,6.084-6.084V48.233h1.217
		c0.673,0,1.217-0.545,1.217-1.217V42.15C111.5,41.479,110.956,40.934,110.283,40.934z"/>
	<g>
		<g>
			<g>
				<path fill="#FFFFFF" d="M88.867,54.121c-0.256-0.358-0.817-0.409-1.175-0.153l-8.279,6.593l-10.682-4.446
					c-0.256-0.103-0.563-0.051-0.767,0.102l-11.448,8.177c-0.357,0.255-0.459,0.767-0.204,1.124
					c0.153,0.256,0.409,0.358,0.665,0.358c0.153,0,0.307-0.051,0.46-0.153l11.09-7.921l10.732,4.446
					c0.255,0.102,0.613,0.051,0.817-0.103l8.637-6.848C89.072,55.041,89.123,54.478,88.867,54.121z"/>
			</g>
		</g>
		<g>
			<g>
				<path fill="#FFFFFF" d="M100.826,82.127h-3.782V58.464c0-0.46-0.357-0.817-0.817-0.817h-7.513c-0.46,0-0.817,0.357-0.817,0.817
					v23.663h-2.76V66.642c0-0.46-0.357-0.818-0.817-0.818h-7.564c-0.459,0-0.817,0.358-0.817,0.818v15.485h-2.76V65.415
					c0-0.46-0.357-0.818-0.817-0.818h-7.513c-0.46,0-0.817,0.358-0.817,0.818v16.712H61.27V70.219c0-0.46-0.357-0.818-0.817-0.818
					h-7.563c-0.46,0-0.817,0.357-0.817,0.818v11.908h-3.833c-0.46,0-0.818,0.357-0.818,0.817s0.358,0.817,0.818,0.817h4.599h7.513
					h4.498h7.513h4.395h7.513h4.396h7.513h4.6c0.46,0,0.817-0.357,0.817-0.817C101.644,82.484,101.286,82.127,100.826,82.127z
					 M59.584,82.127h-5.878v-11.09h5.878V82.127z M71.542,82.127h-5.877V66.232h5.877V82.127z M83.45,82.127h-5.877V67.459h5.877
					V82.127z M95.409,82.127h-5.877V59.282h5.877V82.127z"/>
			</g>
		</g>
	</g>
</g>
</svg>
