<?xml version="1.0" encoding="utf-8"?>
<!-- Generator: Adobe Illustrator 16.0.0, SVG Export Plug-In . SVG Version: 6.00 Build 0)  -->
<!DOCTYPE svg PUBLIC "-//W3C//DTD SVG 1.1//EN" "http://www.w3.org/Graphics/SVG/1.1/DTD/svg11.dtd">
<svg version="1.1" id="Capa_1" xmlns="http://www.w3.org/2000/svg" xmlns:xlink="http://www.w3.org/1999/xlink" x="0px" y="0px"
	 width="150px" height="150px" viewBox="0 0 150 150" enable-background="new 0 0 150 150" xml:space="preserve">
<path fill="#B6883E" d="M141.746,75c0,36.861-29.883,66.746-66.746,66.746c-36.862,0-66.747-29.885-66.747-66.746
	C8.253,38.137,38.138,8.253,75,8.253C111.863,8.253,141.746,38.137,141.746,75"/>
<g>
	<g>
		<g>
			<path fill="#FFFFFF" d="M75,87.262c-0.806,0-1.46,0.654-1.46,1.461c0,0.806,0.654,1.459,1.46,1.459s1.46-0.653,1.46-1.459
				C76.46,87.916,75.806,87.262,75,87.262z"/>
		</g>
	</g>
	<g>
		<g>
			<path fill="#FFFFFF" d="M59.249,54.017c-0.327-0.737-1.19-1.068-1.927-0.741l-6.275,2.789c-0.736,0.328-1.068,1.19-0.741,1.927
				c0.242,0.544,0.775,0.867,1.335,0.867c0.198,0,0.399-0.041,0.592-0.126l6.275-2.789C59.245,55.616,59.576,54.753,59.249,54.017z"
				/>
		</g>
	</g>
	<g>
		<g>
			<path fill="#FFFFFF" d="M98.953,56.064l-6.275-2.789c-0.736-0.327-1.6,0.004-1.927,0.741c-0.328,0.737,0.004,1.6,0.741,1.927
				l6.274,2.789c0.193,0.085,0.395,0.126,0.593,0.126c0.559,0,1.093-0.324,1.335-0.868C100.021,57.254,99.689,56.392,98.953,56.064z
				"/>
		</g>
	</g>
	<g>
		<g>
			<path fill="#FFFFFF" d="M111.208,79.086l-8.76-11.679c-0.017-0.021-0.034-0.041-0.051-0.061c-0.01-0.012-0.02-0.024-0.029-0.036
				c-0.042-0.047-0.087-0.091-0.133-0.131c-0.006-0.005-0.013-0.01-0.019-0.015c-0.045-0.037-0.091-0.071-0.139-0.102
				c-0.01-0.006-0.02-0.013-0.03-0.02c-0.056-0.034-0.112-0.065-0.172-0.092c-0.001-0.001-0.002-0.001-0.003-0.002l-16.981-7.547
				c2.085-2.375,3.248-5.42,3.248-8.639c0-3.732-1.596-7.302-4.378-9.792c-2.779-2.489-6.518-3.679-10.256-3.264
				c-2.801,0.31-5.491,1.574-7.574,3.56c-2.087,1.989-3.476,4.617-3.908,7.399c-0.617,3.961,0.524,7.832,3.083,10.737l-16.979,7.546
				c-0.002,0-0.003,0.001-0.004,0.002c-0.059,0.026-0.116,0.058-0.171,0.092c-0.011,0.006-0.021,0.013-0.031,0.02
				c-0.048,0.031-0.094,0.064-0.138,0.102c-0.006,0.005-0.013,0.01-0.02,0.016c-0.046,0.04-0.09,0.084-0.132,0.131
				c-0.011,0.012-0.021,0.024-0.03,0.036c-0.017,0.02-0.034,0.039-0.05,0.06l-8.76,11.679c-0.267,0.356-0.357,0.814-0.245,1.244
				s0.413,0.786,0.82,0.967l7.893,3.508v14.43c0,0.577,0.34,1.1,0.867,1.334l26.28,11.68c0.002,0.002,0.005,0.002,0.007,0.004
				c0.039,0.017,0.078,0.031,0.118,0.045c0.008,0.002,0.015,0.006,0.021,0.008c0.045,0.014,0.091,0.026,0.137,0.037
				c0.003,0,0.006,0.001,0.009,0.002c0.097,0.02,0.197,0.031,0.301,0.031c0.103,0,0.203-0.012,0.301-0.031
				c0.003-0.001,0.006-0.002,0.008-0.002c0.047-0.011,0.093-0.023,0.138-0.037c0.007-0.002,0.014-0.006,0.021-0.008
				c0.04-0.014,0.079-0.028,0.118-0.045c0.002-0.002,0.005-0.002,0.007-0.004l26.28-11.68c0.527-0.234,0.867-0.757,0.867-1.334
				v-14.43l7.893-3.508c0.406-0.181,0.708-0.537,0.82-0.967C111.564,79.9,111.475,79.442,111.208,79.086z M64.908,49.114
				c0.69-4.433,4.441-8.01,8.92-8.506c2.956-0.328,5.792,0.574,7.986,2.538c2.164,1.938,3.405,4.714,3.405,7.617
				c0,3.104-1.392,6.002-3.822,7.956c-0.092,0.075-0.185,0.147-0.279,0.218c-0.231,0.172-0.443,0.37-0.636,0.585H76.46v-5.235
				l2.492-2.493c0.57-0.57,0.57-1.495,0-2.065c-0.569-0.57-1.494-0.57-2.064,0L75,51.618l-1.888-1.888
				c-0.57-0.57-1.495-0.57-2.065,0c-0.569,0.57-0.569,1.495,0,2.065l2.493,2.492v5.235h-4.025c-0.193-0.218-0.408-0.417-0.642-0.592
				c-0.093-0.069-0.183-0.141-0.274-0.214C65.713,56.396,64.334,52.806,64.908,49.114z M72.08,65.362
				c-0.223,0-0.436-0.048-0.633-0.143c-0.511-0.246-0.827-0.75-0.827-1.317v-1.46h8.76v1.46c0,0.589-0.351,1.117-0.893,1.346
				c-0.179,0.076-0.37,0.114-0.567,0.114H72.08z M77.92,68.282c0,1.61-1.31,2.92-2.92,2.92c-0.779,0-1.513-0.304-2.064-0.856
				s-0.855-1.285-0.855-2.064L77.92,68.282L77.92,68.282z M67.42,61.569c0.048,0.065,0.092,0.133,0.129,0.207
				c0.101,0.201,0.151,0.417,0.151,0.642v1.485c0,1.255,0.548,2.441,1.46,3.262v1.118c0,1.56,0.607,3.026,1.711,4.129
				c1.103,1.103,2.569,1.711,4.129,1.711c3.22,0,5.84-2.62,5.84-5.84v-1.117c0.913-0.816,1.46-1.991,1.46-3.263v-1.485
				c0-0.223,0.052-0.445,0.149-0.643c0.036-0.072,0.081-0.141,0.129-0.206l15.106,6.714L75,78.365L52.314,68.282L67.42,61.569z
				 M42.228,79.373l6.963-9.284l23.542,10.464l-6.963,9.283L42.228,79.373z M99.82,98.285l-23.36,10.383V94.563
				c0-0.807-0.653-1.46-1.46-1.46s-1.46,0.653-1.46,1.46v14.105L50.18,98.285V86.102l15.467,6.875
				c0.622,0.277,1.353,0.087,1.762-0.458L75,82.396l7.592,10.122c0.283,0.377,0.72,0.584,1.169,0.584c0.199,0,0.4-0.041,0.592-0.126
				l15.468-6.875V98.285z M84.23,89.836l-6.963-9.283l23.542-10.464l6.963,9.284L84.23,89.836z"/>
		</g>
	</g>
	<g>
		<g>
			<path fill="#FFFFFF" d="M58.508,43.654l-6.275-2.789c-0.736-0.327-1.6,0.005-1.927,0.741c-0.327,0.737,0.005,1.6,0.741,1.927
				l6.275,2.789c0.192,0.086,0.394,0.126,0.592,0.126c0.56,0,1.093-0.323,1.335-0.868C59.576,44.844,59.245,43.981,58.508,43.654z"
				/>
		</g>
	</g>
	<g>
		<g>
			<path fill="#FFFFFF" d="M99.694,41.606c-0.328-0.737-1.19-1.068-1.927-0.741l-6.275,2.789c-0.737,0.328-1.068,1.19-0.741,1.927
				c0.241,0.544,0.775,0.868,1.335,0.868c0.198,0,0.399-0.041,0.592-0.126l6.275-2.789C99.689,43.206,100.021,42.343,99.694,41.606z
				"/>
		</g>
	</g>
</g>
</svg>
