<?xml version="1.0" encoding="utf-8"?>
<!-- Generator: Adobe Illustrator 16.0.0, SVG Export Plug-In . SVG Version: 6.00 Build 0)  -->
<!DOCTYPE svg PUBLIC "-//W3C//DTD SVG 1.1//EN" "http://www.w3.org/Graphics/SVG/1.1/DTD/svg11.dtd">
<svg version="1.1" id="Capa_1" xmlns="http://www.w3.org/2000/svg" xmlns:xlink="http://www.w3.org/1999/xlink" x="0px" y="0px"
	 width="150px" height="150px" viewBox="0 0 150 150" enable-background="new 0 0 150 150" xml:space="preserve">
<path fill="#B6883E" d="M141.746,75c0,36.862-29.883,66.746-66.746,66.746c-36.863,0-66.747-29.884-66.747-66.746
	C8.253,38.137,38.137,8.253,75,8.253C111.863,8.253,141.746,38.137,141.746,75"/>
<g>
	<g>
		<g>
			<path fill="#FFFFFF" d="M91.506,63.645l4.345-4.344l-3.095-3.603h-7.458l-3.095,3.603l4.344,4.344
				c-4.215,0.468-8.221,2.12-11.547,4.777c-3.325-2.657-7.332-4.31-11.546-4.777l4.345-4.344l-3.096-3.603h-7.458l-3.095,3.603
				l4.344,4.344C47.265,64.884,38.5,74.428,38.5,85.982c0,12.393,10.082,22.473,22.474,22.473c5.109,0,10.054-1.738,14.026-4.914
				c3.973,3.176,8.918,4.914,14.026,4.914c12.392,0,22.474-10.08,22.474-22.473C111.5,74.428,102.736,64.884,91.506,63.645z
				 M85.157,59.19l1.136-1.323h5.467l1.137,1.323l-3.87,3.869L85.157,59.19z M57.104,59.19l1.137-1.323h5.466l1.136,1.323
				l-3.869,3.869L57.104,59.19z M60.974,106.287c-11.197,0-20.306-9.109-20.306-20.305c0-11.197,9.109-20.306,20.306-20.306
				c4.896,0,9.625,1.767,13.315,4.976c1.146,0.995,2.183,2.124,3.082,3.354c2.557,3.495,3.908,7.635,3.908,11.977
				c0,3.932-1.107,7.699-3.217,10.971c-0.027-0.027-0.053-0.057-0.08-0.084c-0.119-0.121-0.236-0.242-0.352-0.367
				c-0.051-0.055-0.101-0.111-0.15-0.166c-0.095-0.105-0.188-0.211-0.279-0.318c-0.053-0.063-0.104-0.125-0.155-0.188
				c-0.089-0.105-0.175-0.215-0.261-0.324c-0.047-0.063-0.096-0.123-0.143-0.186c-0.094-0.123-0.185-0.25-0.273-0.377
				c-0.028-0.037-0.057-0.076-0.084-0.117c1.552-2.682,2.369-5.725,2.369-8.844c0-3.127-0.821-6.174-2.379-8.859l0.009-0.014
				l-0.368-0.58c-0.711-1.122-1.542-2.156-2.482-3.089c-0.313-0.312-0.638-0.611-0.975-0.898l-0.889-0.761l-0.023,0.031
				c-3.042-2.271-6.754-3.51-10.573-3.51c-9.749,0-17.68,7.93-17.68,17.68c0,9.748,7.931,17.68,17.68,17.68
				c3.829,0,7.549-1.246,10.596-3.527c0.013,0.018,0.028,0.033,0.041,0.049c0.077,0.096,0.156,0.188,0.234,0.281
				c0.06,0.07,0.12,0.143,0.181,0.213c0.083,0.098,0.169,0.191,0.254,0.287c0.059,0.066,0.116,0.131,0.175,0.195
				c0.094,0.104,0.189,0.203,0.285,0.303c0.053,0.057,0.104,0.113,0.158,0.168c0.116,0.119,0.235,0.236,0.354,0.354
				c0.032,0.033,0.064,0.066,0.096,0.098C69.812,104.801,65.463,106.287,60.974,106.287z M79.717,73.58
				c2.676-2.009,5.943-3.109,9.31-3.109c8.554,0,15.512,6.959,15.512,15.512s-6.958,15.512-15.512,15.512
				c-3.366,0-6.634-1.102-9.31-3.111c2.443-3.68,3.73-7.945,3.73-12.4S82.16,77.262,79.717,73.58z M75,92.607
				c-0.974-2.061-1.485-4.318-1.485-6.625s0.511-4.564,1.485-6.625c0.975,2.061,1.485,4.318,1.485,6.625S75.975,90.547,75,92.607z
				 M70.284,73.58c-2.444,3.682-3.731,7.948-3.731,12.403s1.287,8.721,3.731,12.402c-2.676,2.008-5.944,3.109-9.31,3.109
				c-8.553,0-15.512-6.959-15.512-15.512S52.421,70.47,60.974,70.47C64.34,70.47,67.608,71.571,70.284,73.58z M89.026,106.287
				c-4.896,0-9.624-1.766-13.315-4.975c-1.145-0.996-2.182-2.125-3.082-3.354c-2.557-3.494-3.908-7.637-3.908-11.977
				c0-3.932,1.109-7.699,3.217-10.971c0.028,0.027,0.054,0.056,0.082,0.084c0.119,0.12,0.236,0.242,0.351,0.366
				c0.05,0.055,0.1,0.111,0.149,0.166c0.095,0.105,0.188,0.212,0.28,0.32c0.052,0.06,0.103,0.123,0.154,0.185
				c0.089,0.107,0.176,0.217,0.262,0.326c0.047,0.061,0.095,0.123,0.142,0.184c0.093,0.125,0.184,0.25,0.274,0.377
				c0.028,0.039,0.057,0.078,0.084,0.117c-1.552,2.682-2.37,5.725-2.37,8.846c0,3.125,0.821,6.174,2.379,8.859l-0.009,0.014
				l0.368,0.58c0.947,1.494,2.111,2.836,3.457,3.988l0.889,0.76l0.023-0.031c3.043,2.27,6.754,3.51,10.573,3.51
				c9.749,0,17.68-7.932,17.68-17.68c0-9.75-7.931-17.68-17.68-17.68c-3.829,0-7.55,1.245-10.596,3.527
				c-0.014-0.018-0.028-0.033-0.042-0.05c-0.076-0.094-0.154-0.187-0.233-0.279c-0.061-0.072-0.12-0.145-0.182-0.215
				c-0.083-0.096-0.167-0.19-0.251-0.284c-0.06-0.066-0.118-0.133-0.178-0.198c-0.092-0.101-0.186-0.198-0.278-0.296
				c-0.056-0.058-0.108-0.117-0.165-0.175c-0.111-0.114-0.225-0.227-0.338-0.339c-0.037-0.037-0.074-0.075-0.111-0.112
				c3.537-2.72,7.885-4.205,12.374-4.205c11.196,0,20.306,9.109,20.306,20.306C109.332,97.178,100.223,106.287,89.026,106.287z"/>
		</g>
	</g>
	<g>
		<g>
			<rect x="73.916" y="41.544" fill="#FFFFFF" width="2.168" height="6.75"/>
		</g>
	</g>
	<g>
		<g>
			
				<rect x="80.558" y="45.945" transform="matrix(-0.4197 0.9076 -0.9076 -0.4197 161.8495 -9.4115)" fill="#FFFFFF" width="6.749" height="2.169"/>
		</g>
	</g>
	<g>
		<g>
			
				<rect x="64.982" y="43.656" transform="matrix(-0.9076 0.4198 -0.4198 -0.9076 145.7722 61.9811)" fill="#FFFFFF" width="2.168" height="6.75"/>
		</g>
	</g>
</g>
</svg>
