<?xml version="1.0" encoding="utf-8"?>
<!-- Generator: Adobe Illustrator 22.0.1, SVG Export Plug-In . SVG Version: 6.00 Build 0)  -->
<svg version="1.1" id="Layer_1" xmlns="http://www.w3.org/2000/svg" xmlns:xlink="http://www.w3.org/1999/xlink" x="0px" y="0px"
	 viewBox="932.7 722.4 150 150" style="enable-background:new 932.7 722.4 150 150;" xml:space="preserve">
<style type="text/css">
	.st0{fill:#FFFFFF;}
	.st1{fill:#B6883E;}
</style>
<g>
	<circle class="st1" cx="1007.7" cy="797.4" r="66.7"/>
</g>
<g>
	<g>
		<g>
			<path class="st0" d="M1032.3,770c-5.8-5.8-13.5-9-21.7-9c-8.2,0-15.9,3.2-21.7,9c-5.7,5.7-8.9,13.4-9,21.5l-5.6,11.2
				c-0.2,0.5-0.1,1.1,0.4,1.4l5.2,3.1v16.5c0,0.6,0.5,1.1,1.1,1.1h10.3v8.1c0,0.6,0.5,1.1,1.1,1.1c0.6,0,1.1-0.5,1.1-1.1v-9.1
				c0-0.6-0.5-1.1-1.1-1.1H982v-16c0-0.4-0.2-0.7-0.5-0.9l-4.9-2.9l5.3-10.5c0.1-0.1,0.1-0.3,0.1-0.5c0-15.8,12.8-28.6,28.6-28.6
				s28.6,12.8,28.6,28.6c0,8.9-4,17.1-11,22.5c-0.3,0.2-0.4,0.5-0.4,0.8v17.7c0,0.6,0.5,1.1,1.1,1.1c0.6,0,1.1-0.5,1.1-1.1v-17.2
				c7.3-5.9,11.4-14.5,11.4-23.9C1041.3,783.5,1038.1,775.8,1032.3,770z"/>
		</g>
	</g>
	<g>
		<g>
			<path class="st0" d="M1010.5,773.5c-8.1,0-14.8,6.6-14.8,14.8c0,6,3.6,11.4,9.1,13.6v2.4h-1.2c-0.6,0-1.1,0.5-1.1,1.1v8
				c0,3.1,2.5,5.6,5.6,5.6h4.6c3.1,0,5.6-2.5,5.6-5.6v-8c0-0.6-0.5-1.1-1.1-1.1h-1.2v-2.4c2.5-1,4.7-2.8,6.4-5
				c0.3-0.5,0.2-1.1-0.2-1.5c-0.5-0.3-1.1-0.2-1.5,0.2c-1.5,2.1-3.6,3.7-6,4.5c-0.4,0.2-0.7,0.6-0.7,1v3.1h-7v-3.1
				c0-0.5-0.3-0.9-0.7-1c-5-1.8-8.4-6.6-8.4-11.9c0-7,5.7-12.6,12.6-12.6c7,0,12.6,5.7,12.6,12.6c0,1.1-0.1,2.1-0.4,3.2
				c-0.1,0.6,0.2,1.2,0.8,1.3c0.6,0.1,1.2-0.2,1.3-0.8c0.3-1.2,0.5-2.4,0.5-3.7C1025.3,780.2,1018.7,773.5,1010.5,773.5z
				 M1016.3,813.4c0,1.9-1.6,3.5-3.5,3.5h-4.6c-1.9,0-3.5-1.6-3.5-3.5v-0.1c0,0,0,0,0.1,0L1016.3,813.4L1016.3,813.4z M1016.3,811.2
				h-11.5c0,0,0,0-0.1,0v-1.3h11.5V811.2z M1015.1,806.5h1.2v1.3h-11.5v-1.3h1.2H1015.1z"/>
		</g>
	</g>
	<g>
		<g>
			<path class="st0" d="M1017.4,786.1h-4.6v-5.8c0-1-1.2-1.4-1.9-0.7l-8,9.1c-0.6,0.7-0.1,1.8,0.8,1.8h4.6v5.8c0,0.4,0.3,0.8,0.7,1
				c0.4,0.2,0.9,0,1.2-0.3l8-9.1C1018.8,787.2,1018.3,786.1,1017.4,786.1z M1010.5,793.4v-4c0-0.6-0.5-1.1-1.1-1.1h-3.3l4.6-5.2v4
				c0,0.6,0.5,1.1,1.1,1.1h3.3L1010.5,793.4z"/>
		</g>
	</g>
	<g>
		<g>
			<path class="st0" d="M1010.5,767.8c-0.6,0-1.1,0.5-1.1,1.1v2.3c0,0.6,0.5,1.1,1.1,1.1c0.6,0,1.1-0.5,1.1-1.1v-2.3
				C1011.6,768.3,1011.1,767.8,1010.5,767.8z"/>
		</g>
	</g>
	<g>
		<g>
			<path class="st0" d="M999.2,775.4l-1.6-1.6c-0.4-0.4-1.1-0.4-1.5,0c-0.4,0.4-0.4,1.1,0,1.5l1.6,1.6c0.4,0.4,1.2,0.4,1.6-0.1
				C999.6,776.5,999.6,775.8,999.2,775.4z"/>
		</g>
	</g>
	<g>
		<g>
			<path class="st0" d="M993.4,787.2h-2.3c-0.6,0-1.1,0.5-1.1,1.1c0,0.6,0.5,1.1,1.1,1.1h2.3c0.6,0,1.1-0.5,1.1-1.1
				C994.5,787.7,994,787.2,993.4,787.2z"/>
		</g>
	</g>
	<g>
		<g>
			<path class="st0" d="M999.2,799.6c-0.4-0.4-1.1-0.4-1.5,0l-1.6,1.6c-0.4,0.4-0.4,1-0.1,1.5c0.4,0.5,1.1,0.5,1.6,0.1l1.6-1.6
				C999.6,800.7,999.6,800.1,999.2,799.6z"/>
		</g>
	</g>
	<g>
		<g>
			<path class="st0" d="M1025,801.3l-1.6-1.6c-0.4-0.4-1.1-0.4-1.5,0c-0.4,0.4-0.4,1.1,0,1.5l1.6,1.6c0.4,0.4,1.2,0.4,1.6-0.1
				C1025.4,802.2,1025.4,801.6,1025,801.3z"/>
		</g>
	</g>
	<g>
		<g>
			<path class="st0" d="M1029.9,787.2h-2.3c-0.6,0-1.1,0.5-1.1,1.1c0,0.6,0.5,1.1,1.1,1.1h2.3c0.6,0,1.1-0.5,1.1-1.1
				C1031,787.7,1030.5,787.2,1029.9,787.2z"/>
		</g>
	</g>
	<g>
		<g>
			<path class="st0" d="M1025,773.8c-0.4-0.4-1.1-0.4-1.5,0l-1.6,1.6c-0.4,0.4-0.4,1-0.1,1.4c0.4,0.5,1.1,0.5,1.6,0.1l1.6-1.6
				C1025.4,774.9,1025.4,774.3,1025,773.8z"/>
		</g>
	</g>
</g>
</svg>
