<?xml version="1.0" encoding="utf-8"?>
<!-- Generator: Adobe Illustrator 22.0.1, SVG Export Plug-In . SVG Version: 6.00 Build 0)  -->
<svg version="1.1" id="Layer_1" xmlns="http://www.w3.org/2000/svg" xmlns:xlink="http://www.w3.org/1999/xlink" x="0px" y="0px"
	 viewBox="392.6 345.9 150 150" style="enable-background:new 392.6 345.9 150 150;" xml:space="preserve">
<style type="text/css">
	.st0{fill:#FFFFFF;}
</style>
<g>
	<g>
		<g>
			<path class="st0" d="M497.8,400.2l7.9-7.9l-5.7-6.6h-13.6l-5.7,6.6l7.9,7.9c-7.7,0.9-15,3.9-21.1,8.7c-6.1-4.9-13.4-7.9-21.1-8.7
				l7.9-7.9l-5.7-6.6h-13.6l-5.7,6.6l7.9,7.9C417,402.5,401,419.9,401,441c0,22.6,18.4,41,41,41c9.3,0,18.4-3.2,25.6-9
				c7.3,5.8,16.3,9,25.6,9c22.6,0,41-18.4,41-41C534.3,419.9,518.3,402.5,497.8,400.2z M486.2,392.1l2.1-2.4h10l2.1,2.4l-7.1,7.1
				L486.2,392.1z M435,392.1l2.1-2.4h10l2.1,2.4l-7.1,7.1L435,392.1z M442,478.1c-20.4,0-37.1-16.6-37.1-37.1
				c0-20.4,16.6-37.1,37.1-37.1c8.9,0,17.6,3.2,24.3,9.1c2.1,1.8,4,3.9,5.6,6.1c4.7,6.4,7.1,13.9,7.1,21.9c0,7.2-2,14.1-5.9,20
				c-0.1-0.1-0.1-0.1-0.1-0.2c-0.2-0.2-0.4-0.4-0.6-0.7c-0.1-0.1-0.2-0.2-0.3-0.3c-0.2-0.2-0.3-0.4-0.5-0.6
				c-0.1-0.1-0.2-0.2-0.3-0.3c-0.2-0.2-0.3-0.4-0.5-0.6c-0.1-0.1-0.2-0.2-0.3-0.3c-0.2-0.2-0.3-0.5-0.5-0.7
				c-0.1-0.1-0.1-0.1-0.2-0.2c2.8-4.9,4.3-10.5,4.3-16.1c0-5.7-1.5-11.3-4.3-16.2l0,0l-0.7-1.1c-1.3-2-2.8-3.9-4.5-5.6
				c-0.6-0.6-1.2-1.1-1.8-1.6l-1.6-1.4l0,0.1c-5.6-4.1-12.3-6.4-19.3-6.4c-17.8,0-32.3,14.5-32.3,32.3c0,17.8,14.5,32.3,32.3,32.3
				c7,0,13.8-2.3,19.3-6.4c0,0,0.1,0.1,0.1,0.1c0.1,0.2,0.3,0.3,0.4,0.5c0.1,0.1,0.2,0.3,0.3,0.4c0.2,0.2,0.3,0.3,0.5,0.5
				c0.1,0.1,0.2,0.2,0.3,0.4c0.2,0.2,0.3,0.4,0.5,0.6c0.1,0.1,0.2,0.2,0.3,0.3c0.2,0.2,0.4,0.4,0.6,0.6c0.1,0.1,0.1,0.1,0.2,0.2
				C458.2,475.3,450.2,478.1,442,478.1z M476.2,418.4c4.9-3.7,10.9-5.7,17-5.7c15.6,0,28.3,12.7,28.3,28.3
				c0,15.6-12.7,28.3-28.3,28.3c-6.1,0-12.1-2-17-5.7c4.5-6.7,6.8-14.5,6.8-22.6C483.1,432.9,480.7,425.1,476.2,418.4z M467.6,453.1
				c-1.8-3.8-2.7-7.9-2.7-12.1c0-4.2,0.9-8.3,2.7-12.1c1.8,3.8,2.7,7.9,2.7,12.1C470.4,445.2,469.4,449.3,467.6,453.1z M459,418.4
				c-4.5,6.7-6.8,14.5-6.8,22.6c0,8.1,2.3,15.9,6.8,22.6c-4.9,3.7-10.9,5.7-17,5.7c-15.6,0-28.3-12.7-28.3-28.3
				c0-15.6,12.7-28.3,28.3-28.3C448.2,412.7,454.1,414.7,459,418.4z M493.2,478.1c-8.9,0-17.6-3.2-24.3-9.1c-2.1-1.8-4-3.9-5.6-6.1
				c-4.7-6.4-7.1-13.9-7.1-21.9c0-7.2,2-14.1,5.9-20c0.1,0.1,0.1,0.1,0.1,0.2c0.2,0.2,0.4,0.4,0.6,0.7c0.1,0.1,0.2,0.2,0.3,0.3
				c0.2,0.2,0.3,0.4,0.5,0.6c0.1,0.1,0.2,0.2,0.3,0.3c0.2,0.2,0.3,0.4,0.5,0.6c0.1,0.1,0.2,0.2,0.3,0.3c0.2,0.2,0.3,0.5,0.5,0.7
				c0.1,0.1,0.1,0.1,0.2,0.2c-2.8,4.9-4.3,10.5-4.3,16.1c0,5.7,1.5,11.3,4.3,16.2l0,0l0.7,1.1c1.7,2.7,3.9,5.2,6.3,7.3l1.6,1.4
				l0-0.1c5.6,4.1,12.3,6.4,19.3,6.4c17.8,0,32.3-14.5,32.3-32.3c0-17.8-14.5-32.3-32.3-32.3c-7,0-13.8,2.3-19.3,6.4
				c0,0-0.1-0.1-0.1-0.1c-0.1-0.2-0.3-0.3-0.4-0.5c-0.1-0.1-0.2-0.3-0.3-0.4c-0.2-0.2-0.3-0.3-0.5-0.5c-0.1-0.1-0.2-0.2-0.3-0.4
				c-0.2-0.2-0.3-0.4-0.5-0.5c-0.1-0.1-0.2-0.2-0.3-0.3c-0.2-0.2-0.4-0.4-0.6-0.6c-0.1-0.1-0.1-0.1-0.2-0.2c6.5-5,14.4-7.7,22.6-7.7
				c20.4,0,37.1,16.6,37.1,37.1C530.3,461.4,513.7,478.1,493.2,478.1z"/>
		</g>
	</g>
	<g>
		<g>
			<rect x="465.7" y="359.9" class="st0" width="4" height="12.3"/>
		</g>
	</g>
	<g>
		<g>
			
				<rect x="477.8" y="367.9" transform="matrix(0.4198 -0.9076 0.9076 0.4198 -54.932 653.8384)" class="st0" width="12.3" height="4"/>
		</g>
	</g>
	<g>
		<g>
			
				<rect x="449.4" y="363.7" transform="matrix(0.9076 -0.4198 0.4198 0.9076 -113.5846 223.6469)" class="st0" width="4" height="12.3"/>
		</g>
	</g>
</g>
</svg>
