<?xml version="1.0" encoding="utf-8"?>
<!-- Generator: Adobe Illustrator 22.0.1, SVG Export Plug-In . SVG Version: 6.00 Build 0)  -->
<svg version="1.1" id="Layer_1" xmlns="http://www.w3.org/2000/svg" xmlns:xlink="http://www.w3.org/1999/xlink" x="0px" y="0px"
	 viewBox="252.7 549.9 150 150" style="enable-background:new 252.7 549.9 150 150;" xml:space="preserve">
<style type="text/css">
	.st0{fill:#FFFFFF;}
	.st1{fill:#B6883E;}
</style>
<g>
	<circle class="st1" cx="327.7" cy="624.9" r="66.7"/>
</g>
<g>
	<g>
		<path class="st0" d="M362,622.8h-4.9l3.2-3.1c0.9-0.8,0.9-2.2,0.1-3c-0.8-0.9-2.2-0.9-3-0.1l-6.4,6.1h-3.1v-1.4
			c0-1.2-1-2.1-2.1-2.1c-1.2,0-2.1,1-2.1,2.1v1.4h-7.1c-0.2-0.9-0.6-1.8-1.1-2.6l12.3-12.3l6.5-1c1.2-0.2,2-1.3,1.8-2.4
			s-1.3-2-2.4-1.8l-4.5,0.7l0.7-4.4c0.2-1.2-0.6-2.3-1.8-2.4c-1.2-0.2-2.3,0.6-2.4,1.8l-1,6.7l-12.1,12.1c-0.8-0.5-1.7-0.9-2.6-1.1
			V609h1.4c1.2,0,2.1-1,2.1-2.1c0-1.2-1-2.1-2.1-2.1h-1.4v-3l6.1-6.5c0.8-0.9,0.8-2.2-0.1-3c-0.9-0.8-2.2-0.8-3,0.1l-3,3.2v-5
			c0-1.2-1-2.1-2.1-2.1c-1.2,0-2.1,1-2.1,2.1v4.9l-3.1-3.2c-0.8-0.9-2.2-0.9-3-0.1c-0.9,0.8-0.9,2.2-0.1,3l6.1,6.4v3.1h-1.4
			c-1.2,0-2.1,1-2.1,2.1c0,1.2,1,2.1,2.1,2.1h1.4v7.1c-0.8,0.2-1.5,0.5-2.2,0.9l-12.1-12.1l-1-6.7c-0.2-1.2-1.3-2-2.4-1.8
			c-1.2,0.2-2,1.3-1.8,2.4l0.7,4.4l-4.5-0.7c-1.2-0.2-2.3,0.6-2.4,1.8c-0.2,1.2,0.6,2.3,1.8,2.4l6.5,1l12.1,12.1
			c-0.6,0.9-1,1.9-1.3,2.9h-7v-1.4c0-1.2-1-2.1-2.1-2.1c-1.2,0-2.1,1-2.1,2.1v1.4h-3l-6.5-6.1c-0.9-0.8-2.2-0.8-3,0.1
			c-0.8,0.9-0.8,2.2,0.1,3l3.2,3h-5c-1.2,0-2.1,1-2.1,2.1s1,2.1,2.1,2.1h4.9l-3.2,3.1c-0.9,0.8-0.9,2.2-0.1,3c0.4,0.4,1,0.7,1.5,0.7
			c0.5,0,1.1-0.2,1.5-0.6l6.4-6.1h3.1v1.4c0,1.2,1,2.1,2.1,2.1c1.2,0,2.1-1,2.1-2.1v-1.4h7c0.2,0.9,0.6,1.8,1.1,2.6l-12.1,12.1
			l-6.7,1c-1.2,0.2-2,1.3-1.8,2.4c0.2,1.1,1.1,1.8,2.1,1.8c0.1,0,0.2,0,0.3,0l4.4-0.7l-0.7,4.5c-0.2,1.2,0.6,2.3,1.8,2.4
			c0.1,0,0.2,0,0.3,0c1,0,2-0.8,2.1-1.8l1-6.5l12.2-12.2c0.8,0.5,1.6,0.8,2.6,1.1v7.1h-1.4c-1.2,0-2.1,1-2.1,2.1
			c0,1.2,1,2.1,2.1,2.1h1.4v3l-6.1,6.5c-0.8,0.9-0.8,2.2,0.1,3c0.4,0.4,0.9,0.6,1.5,0.6c0.6,0,1.1-0.2,1.6-0.7l3-3.2v5
			c0,1.2,1,2.1,2.1,2.1s2.1-1,2.1-2.1v-4.9l3.1,3.2c0.8,0.9,2.2,0.9,3,0.1c0.9-0.8,0.9-2.2,0.1-3l-6.1-6.4v-3.1h1.4
			c1.2,0,2.1-1,2.1-2.1c0-1.2-1-2.1-2.1-2.1h-1.4v-7.1c1.1-0.3,2.1-0.7,2.9-1.3l12.3,12.3l1,6.5c0.2,1.1,1.1,1.8,2.1,1.8
			c0.1,0,0.2,0,0.3,0c1.2-0.2,2-1.3,1.8-2.4l-0.7-4.5l4.4,0.7c0.1,0,0.2,0,0.3,0c1,0,2-0.8,2.1-1.8c0.2-1.2-0.6-2.3-1.8-2.4l-6.7-1
			l-12.3-12.3c0.4-0.7,0.7-1.4,0.9-2.2h7.1v1.4c0,1.2,1,2.1,2.1,2.1c1.2,0,2.1-1,2.1-2.1v-1.4h3l6.5,6.1c0.4,0.4,0.9,0.6,1.5,0.6
			c0.6,0,1.1-0.2,1.6-0.7c0.8-0.9,0.8-2.2-0.1-3l-3.2-3h5c1.2,0,2.1-1,2.1-2.1C364.2,623.8,363.2,622.8,362,622.8z M327.6,629.7
			c-2.5,0-4.6-2-4.8-4.5c0-0.1,0-0.2,0-0.3c0-0.1,0-0.2,0-0.3c0.2-2.5,2.3-4.5,4.8-4.5c2.7,0,4.8,2.2,4.8,4.8
			C332.5,627.6,330.3,629.7,327.6,629.7z"/>
	</g>
</g>
</svg>
