<?xml version="1.0" encoding="utf-8"?>
<!-- Generator: Adobe Illustrator 16.0.0, SVG Export Plug-In . SVG Version: 6.00 Build 0)  -->
<!DOCTYPE svg PUBLIC "-//W3C//DTD SVG 1.1//EN" "http://www.w3.org/Graphics/SVG/1.1/DTD/svg11.dtd">
<svg version="1.1" id="Capa_1" xmlns="http://www.w3.org/2000/svg" xmlns:xlink="http://www.w3.org/1999/xlink" x="0px" y="0px"
	 width="150px" height="150px" viewBox="0 0 150 150" enable-background="new 0 0 150 150" xml:space="preserve">
<path fill="#B6883E" d="M141.746,75.001c0,36.86-29.883,66.745-66.746,66.745c-36.861,0-66.746-29.885-66.746-66.745
	C8.254,38.138,38.139,8.254,75,8.254C111.863,8.254,141.746,38.138,141.746,75.001"/>
<g>
	<circle fill="#FFFFFF" cx="104.636" cy="60.443" r="1.165"/>
	<circle fill="#FFFFFF" cx="104.636" cy="53.853" r="1.165"/>
	<path fill="#FFFFFF" d="M107.827,68.608c2.376-2.748,3.673-6.219,3.673-9.888c0-4.046-1.575-7.849-4.436-10.709
		c-2.861-2.86-6.664-4.436-10.709-4.436c-3.669,0-7.139,1.296-9.887,3.671l-0.312-0.308c-0.458-0.451-1.196-0.445-1.647,0.013
		s-0.445,1.195,0.013,1.647l0.305,0.3c-2.34,2.737-3.616,6.181-3.616,9.82c0,0.469,0.022,0.934,0.064,1.396L48.947,96.246
		c-0.412,0.461-0.393,1.162,0.045,1.6l3.295,3.295l-0.662,0.662c-2.467,2.467-6.48,2.467-8.947,0c-2.466-2.465-2.466-6.479,0-8.945
		l21.881-21.88c3.375-3.375,3.375-8.866,0-12.241s-8.866-3.375-12.241,0L38.838,72.215l1.647,1.647l13.479-13.479
		c2.467-2.466,6.479-2.466,8.946,0c2.466,2.467,2.466,6.48,0,8.946l-21.88,21.879c-3.375,3.375-3.375,8.867,0,12.242
		c1.688,1.688,3.904,2.531,6.12,2.531c2.217,0,4.433-0.844,6.12-2.531l0.663-0.662l3.295,3.295c0.227,0.227,0.524,0.34,0.823,0.34
		c0.277,0,0.556-0.098,0.777-0.297l30.986-27.725c0.004-0.004,5.145-4.602,5.145-4.602c0.461,0.042,0.926,0.063,1.395,0.063
		c3.639,0,7.082-1.275,9.819-3.614l0.306,0.308c0.228,0.229,0.526,0.343,0.826,0.343c0.297,0,0.594-0.112,0.821-0.339
		c0.456-0.454,0.458-1.191,0.004-1.647L107.827,68.608z M58.098,103.656l-3.338-3.338c-0.002-0.002-3.341-3.34-3.341-3.34
		l25.778-28.812c1.028,2.088,2.387,3.985,4.057,5.655s3.566,3.028,5.655,4.057L58.098,103.656L58.098,103.656z M88.801,76.186
		c-2.202-0.95-4.185-2.296-5.899-4.011s-3.062-3.697-4.012-5.899l2.933-3.277c0.703,2.405,2.004,4.609,3.824,6.431
		c1.822,1.822,4.025,3.121,6.432,3.825L88.801,76.186z M96.355,71.534c-3.423,0-6.641-1.333-9.061-3.753
		c-2.421-2.42-3.754-5.639-3.754-9.061c0-3.023,1.041-5.885,2.951-8.181l2.456,2.42c0.227,0.224,0.522,0.335,0.817,0.335
		c0.301,0,0.602-0.116,0.83-0.347c0.451-0.459,0.445-1.196-0.013-1.647l-2.446-2.41c2.302-1.932,5.179-2.984,8.219-2.984
		c3.423,0,6.641,1.332,9.061,3.753c2.421,2.42,3.754,5.638,3.754,9.062c0,3.045-1.057,5.926-2.994,8.229L93.887,54.603
		c-0.455-0.456-1.191-0.458-1.648-0.004c-0.455,0.454-0.457,1.191-0.003,1.647l12.29,12.346
		C102.231,70.497,99.373,71.534,96.355,71.534L96.355,71.534z"/>
</g>
</svg>
