<?xml version="1.0" encoding="utf-8"?>
<!-- Generator: Adobe Illustrator 22.0.1, SVG Export Plug-In . SVG Version: 6.00 Build 0)  -->
<svg version="1.1" id="Layer_1" xmlns="http://www.w3.org/2000/svg" xmlns:xlink="http://www.w3.org/1999/xlink" x="0px" y="0px"
	 viewBox="222.6 345.9 150 150" style="enable-background:new 222.6 345.9 150 150;" xml:space="preserve">
<style type="text/css">
	.st0{fill:#FFFFFF;}
</style>
<g>
	<g>
		<path class="st0" d="M356.5,386.3h-34.1v-5.9c0-6-4.9-10.9-10.9-10.9h-27.7c-6,0-10.9,4.9-10.9,10.9v5.9h-34.1
			c-5.3,0-9.5,4.3-9.5,9.5v67c0,5.3,4.3,9.5,9.5,9.5h117.7c5.3,0,9.5-4.3,9.5-9.5v-67C366,390.6,361.8,386.3,356.5,386.3z
			 M278.3,380.4c0-3,2.5-5.5,5.5-5.5h27.7c3,0,5.5,2.5,5.5,5.5v5.9h-38.7V380.4z M360.6,462.9c0,2.3-1.8,4.1-4.1,4.1H238.8
			c-2.3,0-4.1-1.8-4.1-4.1v-52.6l41.8,20.3c0.8,5.2,5.3,9.1,10.8,9.1H308c5.4,0,9.9-4,10.8-9.1l26.1-12.7c1.4-0.7,1.9-2.3,1.3-3.6
			c-0.7-1.4-2.3-1.9-3.6-1.3l-24.4,11.8c-1.6-4-5.5-6.9-10.1-6.9h-20.7c-4.6,0-8.5,2.9-10.1,6.9l-42.4-20.6v-8.4
			c0-2.3,1.8-4.1,4.1-4.1h117.7c2.3,0,4.1,1.8,4.1,4.1L360.6,462.9L360.6,462.9z M281.8,428.8c0-3,2.4-5.4,5.4-5.4H308
			c3,0,5.4,2.4,5.4,5.4c0,3-2.4,5.4-5.4,5.4h-20.7C284.3,434.3,281.8,431.9,281.8,428.8z"/>
	</g>
</g>
</svg>
