<?xml version="1.0" encoding="utf-8"?>
<!-- Generator: Adobe Illustrator 22.0.1, SVG Export Plug-In . SVG Version: 6.00 Build 0)  -->
<svg version="1.1" id="Layer_1" xmlns="http://www.w3.org/2000/svg" xmlns:xlink="http://www.w3.org/1999/xlink" x="0px" y="0px"
	 viewBox="252.7 722.4 150 150" style="enable-background:new 252.7 722.4 150 150;" xml:space="preserve">
<style type="text/css">
	.st0{fill:#FFFFFF;}
	.st1{fill:#B6883E;}
</style>
<g>
	<circle class="st1" cx="327.7" cy="797.4" r="66.7"/>
</g>
<g>
	<g>
		<g>
			<path class="st0" d="M358,807v-0.1c0-2.6-2.1-4.8-4.8-4.8h-13.6l0.9-19.7c0-0.4-0.2-0.9-0.6-1c-3.6-1.6-5.9-5.2-5.9-9.1
				c0-3.4,1.7-6.4,4.4-8.3v6.7c0,1.6,1.3,2.8,2.8,2.8h5.6c1.6,0,2.8-1.3,2.8-2.8v-6.7c2.7,1.8,4.4,4.9,4.4,8.3c0,4-2.4,7.6-6.1,9.2
				c-0.4,0.2-0.7,0.6-0.7,1.1l0.8,14.9c0,0.6,0.5,1.1,1.1,1c0.6,0,1.1-0.5,1-1.1l-0.7-14.2c4.1-2.1,6.7-6.3,6.7-10.9
				c0-4.8-2.8-9.2-7.2-11.1c-0.3-0.2-0.7-0.1-1,0.1c-0.3,0.2-0.5,0.5-0.5,0.9v8.6c0,0.3-0.3,0.6-0.6,0.6h-5.6
				c-0.3,0-0.6-0.3-0.6-0.6v-8.6c0-0.4-0.2-0.7-0.5-0.9c-0.3-0.2-0.7-0.2-1-0.1c-4.4,2-7.2,6.3-7.2,11.1c0,4.5,2.5,8.6,6.5,10.8
				l0,2.3c-0.8-0.6-1.7-1-2.7-1c-0.5,0-2,0.1-3.2,1.3c-1,1.1-1.2,2.3-1.2,3c0,0.1,0,0.2,0,0.3c-0.7,2.2-1.7,4.3-2.9,6.3
				c-0.3,0.5-0.1,1.2,0.4,1.5c0.5,0.3,1.2,0.1,1.5-0.4c1.2-2.1,2.3-4.3,3.1-6.7c0.1-0.3,0.2-0.6,0.2-0.9c0-0.3,0.1-1,0.6-1.5
				c0.6-0.6,1.3-0.6,1.5-0.6c0,0,0,0,0,0c1.2,0,2.3,1,2.3,2.3c0,0.5,0,0.9,0,1.4c0,0.7,0,1.3,0,1.9c0,1.7-0.1,3.3-0.2,4.8
				c-0.1,1.9-0.2,3.9-0.2,6.4c0,0.6,0.5,1.1,1.1,1.1h14.7c1.4,0,2.6,1.2,2.6,2.6v0.1c0,1.4-1.2,2.6-2.6,2.6h-3.2
				c-0.6,0-1.1,0.5-1.1,1.1s0.5,1.1,1.1,1.1h3.2c1.4,0,2.6,1.2,2.6,2.6v0c0,1.4-1.2,2.6-2.6,2.6h-3.2c-0.6,0-1.1,0.5-1.1,1.1
				s0.5,1.1,1.1,1.1h3.2c1.4,0,2.6,1.2,2.6,2.6v0.1c0,1.4-1.2,2.6-2.6,2.6h-3.2c-0.6,0-1.1,0.5-1.1,1.1s0.5,1.1,1.1,1.1h3.2
				c1.4,0,2.6,1.2,2.6,2.6s-1.2,2.6-2.6,2.6h-26c-2.6,0-5-1-6.8-2.8l-1.1-1.1V807c1.5-0.8,2.9-1.8,4.2-2.9c0.8-0.6,1.6-1.3,2.3-2.1
				c0.4-0.4,0.4-1.1,0-1.5c-0.4-0.4-1.1-0.4-1.5,0c-0.7,0.7-1.4,1.3-2.1,1.9c-0.9,0.8-1.9,1.4-2.9,2.1c-0.4-1.4-1.6-2.4-3.1-2.4
				h-17.7c-0.6,0-1.1,0.5-1.1,1.1v29.6c0,0.6,0.5,1.1,1.1,1.1h17.7c1.7,0,3.1-1.3,3.2-3c2.2,1.9,5,3,7.9,3h26c2.6,0,4.8-2.1,4.8-4.8
				c0-1.5-0.7-2.8-1.7-3.7c1.1-0.9,1.7-2.2,1.7-3.7v-0.1c0-1.5-0.7-2.8-1.7-3.7c1.1-0.9,1.7-2.2,1.7-3.7v0c0-1.5-0.7-2.8-1.7-3.7
				C357.4,809.8,358,808.4,358,807z M317.1,806.3C317.1,806.3,317.1,806.3,317.1,806.3v24.4c0,0.6-0.4,1-1,1h-16.6v-27.4h16.6
				c0.6,0,1,0.4,1,1L317.1,806.3L317.1,806.3z"/>
		</g>
	</g>
	<g>
		<g>
			<circle class="st0" cx="310.8" cy="809.9" r="1.5"/>
		</g>
	</g>
</g>
</svg>
