<?xml version="1.0" encoding="utf-8"?>
<!-- Generator: Adobe Illustrator 16.0.0, SVG Export Plug-In . SVG Version: 6.00 Build 0)  -->
<!DOCTYPE svg PUBLIC "-//W3C//DTD SVG 1.1//EN" "http://www.w3.org/Graphics/SVG/1.1/DTD/svg11.dtd">
<svg version="1.1" id="Capa_1" xmlns="http://www.w3.org/2000/svg" xmlns:xlink="http://www.w3.org/1999/xlink" x="0px" y="0px"
	 width="150px" height="150px" viewBox="0 0 150 150" enable-background="new 0 0 150 150" xml:space="preserve">
<path fill="#B6883E" d="M141.746,75c0,36.862-29.883,66.746-66.746,66.746c-36.863,0-66.747-29.884-66.747-66.746
	C8.253,38.137,38.137,8.253,75,8.253C111.863,8.253,141.746,38.137,141.746,75"/>
<g>
	<g>
		<g>
			<path fill="#FFFFFF" d="M98.434,91.294c-0.002,0-0.002-0.001-0.002-0.001c-1.308-0.848-2.359-1.25-2.608-1.34l-7.586-3.161
				l-5.348-3.529c-0.053-0.034-0.106-0.063-0.16-0.089v-2.286c4.039-2.017,6.964-5.937,7.596-10.579
				c3.256-0.263,5.825-2.996,5.825-6.318c0-1.645-0.629-3.144-1.658-4.271v-8.115c0-10.237-8.327-18.564-18.563-18.564h-1.438
				c-10.235,0-18.563,8.327-18.563,18.563v8.025c-1.081,1.138-1.746,2.673-1.746,4.363c0,3.323,2.57,6.055,5.826,6.318
				c0.631,4.642,3.558,8.562,7.596,10.578v2.139l-5.575,3.678c-0.076,0.018-0.151,0.04-0.225,0.07l-7.627,3.179
				c-0.381,0.137-2.623,0.998-4.848,3.1c-2.203,2.08-4.829,5.823-4.829,11.843v10.734c0,0.735,0.596,1.332,1.333,1.332h15.739
				c0.736,0,1.333-0.597,1.333-1.332c0-0.736-0.597-1.333-1.333-1.333h-4.104v-9.89c0-0.735-0.597-1.332-1.333-1.332
				c-0.736,0-1.333,0.597-1.333,1.332v9.89h-7.637v-9.4c0-9.6,7.596-12.325,7.915-12.436c0.03-0.01,0.059-0.021,0.088-0.033
				l6.354-2.647l6.868,24.517h-2.647c-0.736,0-1.333,0.597-1.333,1.333s0.596,1.332,1.333,1.332h4.399c0.002,0,0.003,0,0.005,0
				c0.001,0,0.003,0,0.005,0h10.037h0.003h0.015c0.002,0,0.004,0,0.005,0c0.002,0,0.004,0,0.005,0h23.952
				c0.735,0,1.332-0.599,1.332-1.335v-10.731C105.5,97.053,101.072,93.008,98.434,91.294z M86.086,88.564l-4.015,8.249l-4.978-3.664
				l5.264-5.464c0.292-0.303,0.411-0.709,0.36-1.097c0.007-0.055,0.012-0.111,0.012-0.169v-0.069L86.086,88.564z M77.99,97.117
				l-1.047,2.788h-3.588l0,0l-1.178-2.813l2.891-2.126L77.99,97.117z M70.249,86.644c0.012-0.073,0.021-0.147,0.021-0.224v-2.663
				c0-0.001,0-0.002,0-0.003v-1.862c1.128,0.297,2.312,0.455,3.532,0.455h2.731c1.22,0,2.403-0.158,3.532-0.454v4.331l-4.961,5.149
				L70.249,86.644z M93.486,63.99c0,1.806-1.311,3.309-3.03,3.616v-7.232C92.176,60.68,93.486,62.184,93.486,63.99z M59.877,67.606
				c-1.719-0.307-3.03-1.809-3.03-3.616s1.31-3.31,3.03-3.617V67.606z M61.215,56.368c-0.002,0-0.004,0-0.006,0
				c-0.046,0-0.091,0.001-0.136,0.006c-0.015,0.001-0.028,0.004-0.042,0.006c-0.03,0.004-0.061,0.008-0.09,0.014
				c-0.019,0.004-0.038,0.01-0.056,0.015c-0.024,0.006-0.048,0.011-0.072,0.018c-0.021,0.006-0.042,0.015-0.063,0.023
				c-0.02,0.007-0.04,0.014-0.058,0.021c-0.024,0.011-0.047,0.023-0.071,0.034c-0.015,0.007-0.03,0.014-0.045,0.022
				c-0.023,0.012-0.044,0.027-0.067,0.041c-0.014,0.009-0.029,0.016-0.042,0.026c-0.021,0.014-0.041,0.03-0.062,0.045
				c-0.013,0.011-0.028,0.021-0.042,0.031c-0.019,0.016-0.035,0.032-0.052,0.047c-0.014,0.013-0.029,0.025-0.042,0.038
				c-0.016,0.017-0.031,0.034-0.046,0.051c-0.013,0.015-0.027,0.028-0.04,0.044c-0.014,0.017-0.026,0.035-0.04,0.052
				c-0.012,0.017-0.025,0.033-0.037,0.051c-0.012,0.016-0.021,0.035-0.033,0.052c-0.011,0.02-0.023,0.038-0.034,0.057
				c-0.009,0.017-0.018,0.036-0.026,0.054c-0.01,0.021-0.021,0.041-0.03,0.063c-0.007,0.017-0.013,0.035-0.02,0.053
				c-0.008,0.023-0.018,0.046-0.025,0.069c-0.006,0.018-0.01,0.037-0.015,0.055c-0.006,0.024-0.013,0.047-0.019,0.072
				c-0.004,0.02-0.006,0.04-0.009,0.06c-0.004,0.024-0.008,0.048-0.011,0.073c-0.002,0.021-0.002,0.042-0.003,0.063
				c-0.001,0.019-0.002,0.038-0.003,0.057c-0.444,0.045-0.874,0.137-1.285,0.269v-6.347c0-8.767,7.131-15.898,15.898-15.898h1.437
				c8.768,0,15.899,7.132,15.899,15.899v6.375c-0.437-0.147-0.896-0.25-1.37-0.298c0-0.005-0.002-0.011-0.002-0.017
				c0-0.029-0.002-0.059-0.004-0.087c-0.003-0.018-0.004-0.035-0.007-0.052c-0.004-0.025-0.007-0.052-0.012-0.077
				c-0.004-0.02-0.009-0.042-0.015-0.062c-0.006-0.021-0.01-0.042-0.016-0.062c-0.007-0.022-0.015-0.046-0.023-0.069
				c-0.006-0.017-0.012-0.034-0.019-0.05c-0.01-0.024-0.021-0.048-0.032-0.072c-0.007-0.015-0.014-0.029-0.021-0.044
				c-0.013-0.023-0.025-0.045-0.039-0.067c-0.009-0.016-0.018-0.03-0.026-0.044c-0.014-0.021-0.027-0.041-0.042-0.06
				c-0.012-0.016-0.022-0.031-0.034-0.046c-0.014-0.017-0.027-0.033-0.042-0.05c-0.015-0.017-0.029-0.032-0.044-0.047
				c-0.014-0.015-0.028-0.028-0.043-0.042c-0.017-0.016-0.034-0.032-0.052-0.047c-0.015-0.013-0.029-0.024-0.045-0.035
				c-0.019-0.015-0.037-0.03-0.057-0.043c-0.017-0.011-0.032-0.021-0.051-0.032c-0.019-0.012-0.037-0.024-0.057-0.036
				c-0.02-0.01-0.041-0.02-0.061-0.031c-0.019-0.009-0.036-0.018-0.055-0.026c-0.023-0.01-0.048-0.02-0.073-0.028
				c-0.016-0.006-0.032-0.012-0.049-0.018c-0.027-0.009-0.055-0.016-0.083-0.023c-0.013-0.002-0.024-0.007-0.036-0.01
				c-5.214-1.187-6.787-7.754-6.802-7.818c-0.116-0.511-0.521-0.907-1.033-1.011c-0.513-0.105-1.04,0.099-1.347,0.524
				C74.311,56.289,61.427,56.368,61.215,56.368L61.215,56.368z M62.542,68.424v-9.438c3.407-0.209,12.458-1.342,18.279-7.438
				c1.006,2.363,3.085,5.813,6.971,7.154v9.722c0,6.208-5.051,11.259-11.259,11.259h-2.731
				C67.593,79.683,62.542,74.632,62.542,68.424z M67.604,86.219v0.201c0,0.142,0.022,0.277,0.063,0.404
				c-0.146,0.465-0.033,0.993,0.339,1.356l5.073,4.94l-5.017,3.692l-4.013-8.249L67.604,86.219z M69.796,109.438l-2.613-9.328
				c0.021,0.006,0.041,0.014,0.062,0.019c0.106,0.026,0.212,0.038,0.319,0.038c0.281,0,0.559-0.089,0.79-0.258l1.614-1.189
				l1.124,2.684L69.796,109.438z M71.711,114.297l1.892-11.727h3.128l1.892,11.727H71.711z M79.238,101.375l0.982-2.616l1.561,1.149
				c0.23,0.169,0.509,0.258,0.79,0.258c0.105,0,0.214-0.012,0.319-0.038c0.109-0.026,0.214-0.069,0.313-0.122l-2.655,9.482
				L79.238,101.375z M102.835,114.297L102.835,114.297h-7.638v-9.89c0-0.736-0.596-1.332-1.332-1.332s-1.334,0.596-1.334,1.332v9.89
				H81.967l6.831-24.385l6.034,2.515c0.026,0.011,0.057,0.022,0.084,0.032c0.008,0.003,0.899,0.313,2.064,1.07h0.001
				c2.671,1.732,5.854,5.112,5.854,11.366V114.297z"/>
			<path fill="#FFFFFF" d="M76.725,69.641c0.736,0,1.334-0.597,1.334-1.333c0-0.736-0.598-1.333-1.334-1.333h-0.982v-3.085
				c0-0.735-0.597-1.332-1.333-1.332s-1.333,0.597-1.333,1.332v4.418c0,0.736,0.596,1.333,1.333,1.333H76.725z"/>
		</g>
	</g>
</g>
</svg>
