<?xml version="1.0" encoding="utf-8"?>
<!-- Generator: Adobe Illustrator 22.0.1, SVG Export Plug-In . SVG Version: 6.00 Build 0)  -->
<svg version="1.1" id="Layer_1" xmlns="http://www.w3.org/2000/svg" xmlns:xlink="http://www.w3.org/1999/xlink" x="0px" y="0px"
	 viewBox="82.7 549.9 150 150" style="enable-background:new 82.7 549.9 150 150;" xml:space="preserve">
<style type="text/css">
	.st0{fill:#FFFFFF;}
	.st1{fill:#B6883E;}
</style>
<g>
	<circle class="st1" cx="157.7" cy="624.9" r="66.7"/>
</g>
<g>
	<g>
		<path class="st0" d="M121.2,633.1c0-1.3,0.1-2.4,0.3-3.5c0.2-1,0.5-2,1-2.9c0.5-0.9,1.2-1.7,2-2.5c0.9-0.8,2-1.5,3.3-2.3
			c1.2-0.6,2.2-1.2,3.1-1.6c0.9-0.5,1.6-0.9,2.2-1.3c0.6-0.4,1-0.8,1.4-1.2c0.3-0.4,0.5-0.9,0.5-1.4c0-0.8-0.3-1.6-1-2.2
			c-0.7-0.6-1.7-0.9-2.9-0.9c-0.7,0-1.3,0.1-1.9,0.3c-0.6,0.2-1.1,0.4-1.6,0.7c-0.5,0.3-0.9,0.7-1.4,1c-0.4,0.4-0.8,0.8-1.1,1.2
			l-3.7-4.2c0.4-0.4,0.9-0.8,1.6-1.3c0.7-0.5,1.5-0.9,2.4-1.3c0.9-0.4,1.9-0.8,3.1-1c1.1-0.3,2.3-0.4,3.6-0.4c1.4,0,2.7,0.2,3.9,0.5
			c1.1,0.4,2.1,0.8,2.9,1.5s1.4,1.4,1.8,2.3c0.4,0.9,0.6,1.9,0.6,2.9c0,1-0.2,1.9-0.6,2.6c-0.4,0.8-0.8,1.4-1.4,2
			c-0.6,0.6-1.2,1.1-1.8,1.6c-0.7,0.4-1.3,0.8-1.9,1.2c-0.5,0.3-1.1,0.6-1.7,1c-0.7,0.4-1.3,0.8-1.9,1.2c-0.6,0.4-1.2,0.9-1.8,1.4
			c-0.5,0.5-0.9,0.9-1.2,1.4h12.9v5.1H121.2z"/>
		<path class="st0" d="M167.6,620.6c0,1.9-0.3,3.6-0.8,5.2c-0.6,1.6-1.3,2.9-2.3,4.1c-1,1.1-2.1,2-3.5,2.7c-1.3,0.6-2.8,1-4.4,1
			c-1.6,0-3-0.3-4.4-1c-1.3-0.6-2.5-1.5-3.5-2.7c-1-1.1-1.7-2.5-2.3-4.1c-0.6-1.6-0.8-3.3-0.8-5.2c0-1.9,0.3-3.6,0.8-5.2
			c0.6-1.6,1.3-2.9,2.3-4.1c1-1.1,2.1-2,3.5-2.7s2.8-1,4.4-1c1.6,0,3,0.3,4.4,1c1.3,0.7,2.5,1.6,3.5,2.7c1,1.1,1.7,2.5,2.3,4.1
			S167.6,618.7,167.6,620.6z M161.8,620.6c0-1.1-0.1-2.2-0.4-3.1c-0.3-0.9-0.6-1.8-1.1-2.4c-0.5-0.7-1-1.2-1.7-1.6
			c-0.6-0.4-1.3-0.6-2.1-0.6c-0.8,0-1.5,0.2-2.1,0.6c-0.6,0.4-1.2,0.9-1.7,1.6c-0.5,0.7-0.8,1.5-1.1,2.4c-0.3,0.9-0.4,2-0.4,3.1
			c0,1.1,0.1,2.2,0.4,3.1c0.3,0.9,0.6,1.7,1.1,2.4c0.5,0.7,1,1.2,1.7,1.6c0.6,0.4,1.4,0.6,2.1,0.6c0.8,0,1.5-0.2,2.1-0.6
			c0.6-0.4,1.2-0.9,1.7-1.6c0.5-0.7,0.8-1.5,1.1-2.4C161.7,622.8,161.8,621.7,161.8,620.6z"/>
		<path class="st0" d="M193.6,620.6c0,1.9-0.3,3.6-0.8,5.2c-0.6,1.6-1.3,2.9-2.3,4.1c-1,1.1-2.1,2-3.5,2.7c-1.3,0.6-2.8,1-4.4,1
			c-1.6,0-3-0.3-4.4-1c-1.3-0.6-2.5-1.5-3.5-2.7c-1-1.1-1.7-2.5-2.3-4.1c-0.6-1.6-0.8-3.3-0.8-5.2c0-1.9,0.3-3.6,0.8-5.2
			c0.6-1.6,1.3-2.9,2.3-4.1c1-1.1,2.1-2,3.5-2.7c1.3-0.7,2.8-1,4.4-1c1.6,0,3,0.3,4.4,1c1.3,0.7,2.5,1.6,3.5,2.7
			c1,1.1,1.7,2.5,2.3,4.1C193.4,617,193.6,618.7,193.6,620.6z M187.9,620.6c0-1.1-0.1-2.2-0.4-3.1c-0.3-0.9-0.6-1.8-1.1-2.4
			c-0.5-0.7-1-1.2-1.7-1.6c-0.6-0.4-1.3-0.6-2.1-0.6c-0.8,0-1.5,0.2-2.1,0.6c-0.6,0.4-1.2,0.9-1.7,1.6c-0.5,0.7-0.8,1.5-1.1,2.4
			c-0.3,0.9-0.4,2-0.4,3.1c0,1.1,0.1,2.2,0.4,3.1c0.3,0.9,0.6,1.7,1.1,2.4c0.5,0.7,1,1.2,1.7,1.6c0.6,0.4,1.4,0.6,2.1,0.6
			c0.8,0,1.5-0.2,2.1-0.6c0.6-0.4,1.2-0.9,1.7-1.6c0.5-0.7,0.8-1.5,1.1-2.4C187.8,622.8,187.9,621.7,187.9,620.6z"/>
	</g>
	<g>
		<path class="st0" d="M161.1,656.2h-3.6v-8c0-1.1-0.2-2-0.6-2.5c-0.4-0.5-0.9-0.8-1.6-0.8c-0.7,0-1.4,0.3-2,0.8
			c-0.6,0.6-1.1,1.3-1.4,2.2v8.3h-3.6v-8c0-1.1-0.2-2-0.6-2.5c-0.4-0.5-0.9-0.8-1.6-0.8c-0.7,0-1.4,0.3-2,0.8
			c-0.6,0.5-1.1,1.3-1.4,2.1v8.3H139V642h3.3v2.6c0.5-0.9,1.2-1.6,2.2-2.1c0.9-0.5,2-0.7,3.1-0.7c1.2,0,2.1,0.3,2.8,0.9
			c0.7,0.6,1.1,1.3,1.2,2.1c0.6-1,1.3-1.7,2.2-2.2c0.9-0.5,1.9-0.8,3-0.8c0.9,0,1.6,0.2,2.1,0.5c0.6,0.3,1,0.8,1.3,1.3
			c0.3,0.5,0.5,1.1,0.6,1.8c0.1,0.7,0.2,1.3,0.2,2V656.2z"/>
		<path class="st0" d="M163.7,656.2c0-0.8,0.1-1.5,0.2-2.2c0.1-0.7,0.3-1.3,0.7-1.8c0.3-0.6,0.7-1.1,1.3-1.6c0.6-0.5,1.3-1,2.1-1.4
			c0.7-0.4,1.4-0.7,2-1c0.6-0.3,1-0.6,1.4-0.8c0.4-0.3,0.7-0.5,0.9-0.8c0.2-0.3,0.3-0.6,0.3-0.9c0-0.5-0.2-1-0.7-1.4
			c-0.4-0.4-1.1-0.6-1.9-0.6c-0.4,0-0.8,0.1-1.2,0.2c-0.4,0.1-0.7,0.3-1,0.5c-0.3,0.2-0.6,0.4-0.9,0.7c-0.3,0.2-0.5,0.5-0.7,0.8
			l-2.3-2.7c0.2-0.3,0.6-0.5,1-0.8c0.4-0.3,0.9-0.6,1.5-0.8c0.6-0.3,1.2-0.5,2-0.7c0.7-0.2,1.5-0.3,2.3-0.3c0.9,0,1.7,0.1,2.5,0.3
			c0.7,0.2,1.3,0.5,1.8,0.9c0.5,0.4,0.9,0.9,1.1,1.5c0.3,0.6,0.4,1.2,0.4,1.9c0,0.6-0.1,1.2-0.4,1.7c-0.2,0.5-0.5,0.9-0.9,1.3
			c-0.4,0.4-0.8,0.7-1.2,1c-0.4,0.3-0.8,0.5-1.2,0.7c-0.3,0.2-0.7,0.4-1.1,0.6c-0.4,0.2-0.8,0.5-1.2,0.8c-0.4,0.3-0.8,0.6-1.1,0.9
			c-0.3,0.3-0.6,0.6-0.8,0.9h8.2v3.3H163.7z"/>
	</g>
</g>
</svg>
