<?xml version="1.0" encoding="utf-8"?>
<!-- Generator: Adobe Illustrator 22.0.1, SVG Export Plug-In . SVG Version: 6.00 Build 0)  -->
<svg version="1.1" id="Layer_1" xmlns="http://www.w3.org/2000/svg" xmlns:xlink="http://www.w3.org/1999/xlink" x="0px" y="0px"
	 viewBox="422.7 722.4 150 150" style="enable-background:new 422.7 722.4 150 150;" xml:space="preserve">
<style type="text/css">
	.st0{fill:#FFFFFF;}
	.st1{fill:#B6883E;}
</style>
<g>
	<circle class="st1" cx="497.7" cy="797.4" r="66.7"/>
</g>
<g>
	<g>
		<g>
			<path class="st0" d="M526.5,768.6H481c-4.2,0-7.6,3.4-7.6,7.6v7.6h3v-7.6c0-2.5,2-4.6,4.6-4.6h45.5c2.5,0,4.6,2,4.6,4.6v36.4
				c0,2.5-2,4.6-4.6,4.6h-34.9v3h34.9c4.2,0,7.6-3.4,7.6-7.6v-36.4C534.1,772,530.7,768.6,526.5,768.6z"/>
		</g>
	</g>
	<g>
		<g>
			<path class="st0" d="M503.8,761c-5,0-9.1,4.1-9.1,9.1h3c0-3.4,2.7-6.1,6.1-6.1s6.1,2.7,6.1,6.1h3
				C512.9,765.1,508.8,761,503.8,761z"/>
		</g>
	</g>
	<g>
		<g>
			<rect x="474.9" y="777.7" class="st0" width="53.1" height="3"/>
		</g>
	</g>
	<g>
		<g>
			<path class="st0" d="M512.9,794.4h-4.6v-4.6c0-0.8-0.7-1.5-1.5-1.5h-6.1c-0.8,0-1.5,0.7-1.5,1.5v4.6h-4.6c-0.8,0-1.5,0.7-1.5,1.5
				v6.1c0,0.8,0.7,1.5,1.5,1.5h4.6v4.6c0,0.8,0.7,1.5,1.5,1.5h6.1c0.8,0,1.5-0.7,1.5-1.5v-4.6h4.6c0.8,0,1.5-0.7,1.5-1.5v-6.1
				C514.4,795.1,513.7,794.4,512.9,794.4z M511.4,800.5h-4.6c-0.8,0-1.5,0.7-1.5,1.5v4.6h-3V802c0-0.8-0.7-1.5-1.5-1.5h-4.6v-3h4.6
				c0.8,0,1.5-0.7,1.5-1.5v-4.6h3v4.6c0,0.8,0.7,1.5,1.5,1.5h4.6V800.5z"/>
		</g>
	</g>
	<g>
		<g>
			<rect x="525" y="811.1" class="st0" width="3" height="3"/>
		</g>
	</g>
	<g>
		<g>
			<rect x="518.9" y="811.1" class="st0" width="3" height="3"/>
		</g>
	</g>
	<g>
		<g>
			<rect x="525" y="805" class="st0" width="3" height="3"/>
		</g>
	</g>
	<g>
		<g>
			<path class="st0" d="M481,794.4h-12.1c-4.2,0-7.6,3.4-7.6,7.6v24.3c0,4.2,3.4,7.6,7.6,7.6H481c4.2,0,7.6-3.4,7.6-7.6V802
				C488.6,797.8,485.2,794.4,481,794.4z M485.5,826.3c0,2.5-2,4.6-4.6,4.6h-12.1c-2.5,0-4.6-2-4.6-4.6V802c0-2.5,2-4.6,4.6-4.6H481
				c2.5,0,4.6,2,4.6,4.6L485.5,826.3L485.5,826.3z"/>
		</g>
	</g>
	<g>
		<g>
			<path class="st0" d="M478,786.8h-6.1c-2.5,0-4.6,2-4.6,4.6v4.6h3v-4.6c0-0.8,0.7-1.5,1.5-1.5h6.1c0.8,0,1.5,0.7,1.5,1.5v4.6h3
				v-4.6C482.5,788.8,480.5,786.8,478,786.8z"/>
		</g>
	</g>
	<g>
		<g>
			<rect x="462.8" y="802" class="st0" width="24.3" height="3"/>
		</g>
	</g>
	<g>
		<g>
			<rect x="462.8" y="823.2" class="st0" width="24.3" height="3"/>
		</g>
	</g>
	<g>
		<g>
			<rect x="467.3" y="815.6" class="st0" width="9.1" height="3"/>
		</g>
	</g>
	<g>
		<g>
			<rect x="467.3" y="809.6" class="st0" width="6.1" height="3"/>
		</g>
	</g>
</g>
</svg>
