<?xml version="1.0" encoding="utf-8"?>
<!-- Generator: Adobe Illustrator 16.0.0, SVG Export Plug-In . SVG Version: 6.00 Build 0)  -->
<!DOCTYPE svg PUBLIC "-//W3C//DTD SVG 1.1//EN" "http://www.w3.org/Graphics/SVG/1.1/DTD/svg11.dtd">
<svg version="1.1" id="Capa_1" xmlns="http://www.w3.org/2000/svg" xmlns:xlink="http://www.w3.org/1999/xlink" x="0px" y="0px"
	 width="150px" height="150px" viewBox="0 0 150 150" enable-background="new 0 0 150 150" xml:space="preserve">
<path fill="#B6883E" d="M141.746,75c0,36.861-29.883,66.746-66.746,66.746c-36.861,0-66.746-29.885-66.746-66.746
	C8.254,38.137,38.139,8.253,75,8.253C111.863,8.253,141.746,38.137,141.746,75"/>
<g>
	<g>
		<g>
			<path fill="#FFFFFF" d="M47.758,73.638c4.514,0,8.172-3.659,8.172-8.172c0-4.513-3.658-8.172-8.172-8.172
				s-8.172,3.659-8.172,8.172C39.592,69.977,43.248,73.634,47.758,73.638z M47.758,60.017c3.01,0,5.449,2.44,5.449,5.448
				c0,3.009-2.439,5.449-5.449,5.449c-3.008,0-5.447-2.439-5.447-5.449C42.311,62.457,44.75,60.017,47.758,60.017z"/>
			<path fill="#FFFFFF" d="M45.035,45.035c3.758,0.004,6.805,3.051,6.811,6.81c0,0.753,0.609,1.362,1.361,1.362
				s1.361-0.609,1.361-1.362c0.006-3.759,3.053-6.806,6.811-6.81c0.752,0,1.361-0.61,1.361-1.362c0-0.752-0.609-1.362-1.361-1.362
				c-3.758-0.004-6.805-3.051-6.811-6.81c0-0.752-0.609-1.362-1.361-1.362s-1.361,0.61-1.361,1.362
				c-0.006,3.759-3.053,6.806-6.811,6.81c-0.752,0-1.361,0.61-1.361,1.362C43.674,44.425,44.283,45.035,45.035,45.035z
				 M53.207,40.404c0.809,1.339,1.93,2.461,3.27,3.269c-1.34,0.808-2.461,1.93-3.27,3.269c-0.807-1.339-1.93-2.46-3.27-3.269
				C51.277,42.865,52.4,41.743,53.207,40.404z"/>
			<path fill="#FFFFFF" d="M99.518,102.242c-3.76-0.006-6.807-3.053-6.811-6.811c0-0.752-0.609-1.361-1.361-1.361
				s-1.361,0.609-1.361,1.361c-0.006,3.758-3.053,6.805-6.811,6.811c-0.752,0-1.363,0.609-1.363,1.361s0.611,1.361,1.363,1.361
				c3.758,0.006,6.805,3.053,6.811,6.811c0,0.752,0.609,1.361,1.361,1.361s1.361-0.609,1.361-1.361
				c0.004-3.758,3.051-6.805,6.811-6.811c0.752,0,1.361-0.609,1.361-1.361S100.27,102.242,99.518,102.242z M91.346,106.873
				c-0.809-1.34-1.93-2.463-3.27-3.27c1.34-0.807,2.461-1.93,3.27-3.27c0.807,1.34,1.93,2.463,3.268,3.27
				C93.275,104.41,92.152,105.533,91.346,106.873z"/>
			<path fill="#FFFFFF" d="M66.828,61.379c-2.258,0-4.088,1.83-4.088,4.086v5.449H55.93v2.724h8.174c0.752,0,1.361-0.61,1.361-1.361
				v-6.811c0-0.751,0.611-1.362,1.363-1.362s1.361,0.611,1.361,1.362V75c0,0.752-0.609,1.362-1.361,1.362H55.93
				c-0.752,0-1.361,0.61-1.361,1.361v6.812c0,0.359,0.145,0.707,0.4,0.961l7.375,7.377c0.256,0.254,0.396,0.602,0.396,0.963v12.49
				c0,0.754-0.609,1.363-1.361,1.363s-1.361-0.609-1.361-1.363V95.432c0-0.363-0.145-0.707-0.398-0.963L54.17,89.02
				c-0.531-0.533-1.395-0.533-1.926,0l-4.086,4.086c-0.533,0.533-0.533,1.395,0,1.926l3.287,3.289c0.256,0.254,0.4,0.602,0.4,0.965
				v12.49c0,0.752-0.609,1.361-1.363,1.361c-0.752,0-1.361-0.609-1.361-1.361v-10.896c0-0.361-0.143-0.707-0.4-0.963l-6.01-6.012
				c-0.258-0.256-0.4-0.604-0.4-0.965v-4.318h2.725c2.256,0,4.086-1.83,4.086-4.086c0-2.258-1.83-4.086-4.086-4.086h-2.725v-4.087
				h-2.725v5.448c0,0.752,0.609,1.361,1.361,1.361h4.088c0.752,0,1.361,0.611,1.361,1.363s-0.609,1.361-1.361,1.361h-6.811
				c-0.752,0-1.361-0.609-1.361-1.361V75c0-0.752,0.609-1.362,1.361-1.362v-2.724c-2.258,0-4.086,1.829-4.086,4.086v9.535
				c0,2.256,1.828,4.086,4.086,4.086h1.361v4.318c-0.002,1.086,0.43,2.125,1.197,2.891l5.613,5.613v10.332
				c0,2.258,1.83,4.086,4.086,4.086c2.258,0,4.086-1.828,4.086-4.086v-12.49c0.004-1.086-0.428-2.127-1.197-2.891l-2.324-2.324
				l2.16-2.162l4.086,4.086v10.332c0,2.258,1.83,4.088,4.086,4.088c2.258,0,4.086-1.83,4.086-4.088v-12.49
				c0.004-1.084-0.426-2.127-1.197-2.891l-6.975-6.975v-4.885h9.535c2.256,0,4.086-1.829,4.086-4.086v-9.535
				C70.914,63.209,69.084,61.379,66.828,61.379z"/>
			<path fill="#FFFFFF" d="M96.793,50.483c4.514,0,8.172-3.659,8.172-8.173s-3.658-8.172-8.172-8.172s-8.172,3.659-8.172,8.172
				C88.625,46.823,92.281,50.479,96.793,50.483z M96.793,36.863c3.008,0,5.447,2.439,5.447,5.448c0,3.009-2.439,5.448-5.447,5.448
				s-5.447-2.439-5.447-5.448C91.346,39.302,93.785,36.863,96.793,36.863z"/>
			<path fill="#FFFFFF" d="M111.775,47.759h-8.172v2.725h8.172c0.752,0,1.361,0.61,1.361,1.361v8.172
				c0,0.752-0.609,1.362-1.361,1.362c-0.754,0-1.363-0.61-1.363-1.362v-5.448c0-0.752-0.609-1.362-1.361-1.362h-5.447
				c-0.754,0-1.363,0.61-1.363,1.362v15.215c0,0.361-0.143,0.709-0.398,0.964l-4.65,4.65c-0.531,0.532-0.531,1.394,0,1.926
				l6.246,6.245c0.531,0.533,0.531,1.395,0,1.926l-0.234,0.234c-0.531,0.531-1.393,0.531-1.924,0l-8.408-8.406
				c-0.531-0.532-0.531-1.394,0-1.926l3.521-3.523c0.533-0.532,0.533-1.394,0-1.925l-4.084-4.086c-0.531-0.532-1.395-0.532-1.928,0
				l-5.449,5.448c-0.254,0.256-0.396,0.603-0.396,0.965v10.896c0,0.752-0.611,1.363-1.361,1.363c-0.752,0-1.363-0.611-1.363-1.363
				v-12.49c0-0.362,0.143-0.709,0.398-0.965l7.373-7.374c0.256-0.255,0.402-0.602,0.402-0.963v-6.81
				c0-0.752-0.611-1.362-1.363-1.362h-8.172c-0.754,0-1.363-0.609-1.363-1.362v-9.534c0-0.752,0.609-1.362,1.363-1.362
				c0.75,0,1.361,0.61,1.361,1.362v6.811c0,0.752,0.611,1.362,1.363,1.362h5.447v-2.725h-4.086v-5.448
				c0-2.257-1.83-4.086-4.086-4.086c-2.258,0-4.088,1.829-4.088,4.086v9.534c0,2.257,1.83,4.086,4.088,4.086h6.809v4.884
				l-6.975,6.975c-0.77,0.765-1.201,1.806-1.197,2.891v12.49c0,2.258,1.828,4.088,4.088,4.088c2.254,0,4.084-1.83,4.084-4.088V72.84
				l4.088-4.086l2.16,2.16l-2.561,2.558c-1.596,1.595-1.596,4.182-0.002,5.78c0.002,0,0.002,0,0.002,0l8.408,8.404
				c1.596,1.596,4.182,1.596,5.777,0l0.234-0.232c1.594-1.594,1.594-4.184,0-5.777l0,0l-5.283-5.284l3.686-3.688
				c0.77-0.764,1.201-1.806,1.197-2.89V55.931h2.725v4.086c0,2.257,1.83,4.086,4.086,4.086c2.258,0,4.086-1.829,4.086-4.086v-8.172
				C115.861,49.588,114.033,47.759,111.775,47.759z"/>
			<rect x="95.432" y="40.949" fill="#FFFFFF" width="2.725" height="4.086"/>
			<path fill="#FFFFFF" d="M51.846,66.828v-4.086h-2.725v2.724h-2.725v2.725h4.086C51.236,68.19,51.846,67.58,51.846,66.828z"/>
		</g>
	</g>
</g>
</svg>
