<?xml version="1.0" encoding="utf-8"?>
<!-- Generator: Adobe Illustrator 16.0.0, SVG Export Plug-In . SVG Version: 6.00 Build 0)  -->
<!DOCTYPE svg PUBLIC "-//W3C//DTD SVG 1.1//EN" "http://www.w3.org/Graphics/SVG/1.1/DTD/svg11.dtd">
<svg version="1.1" id="Capa_1" xmlns="http://www.w3.org/2000/svg" xmlns:xlink="http://www.w3.org/1999/xlink" x="0px" y="0px"
	 width="204.794px" height="144px" viewBox="0 0 204.794 144" enable-background="new 0 0 204.794 144" xml:space="preserve">
<g>
	<g>
		<path fill="#FFFFFF" d="M23.891,103.36c0.285-0.25,0.543-0.375,0.775-0.375c0.107,0,0.223,0.027,0.348,0.08
			c0.125,0.055,0.24,0.152,0.347,0.295l0.696,0.908c0.142,0.197,0.214,0.365,0.214,0.508c0.017,0.143-0.036,0.291-0.161,0.441
			c-0.125,0.15-0.312,0.352-0.562,0.602c-1.248,1.176-2.633,2.107-4.156,2.793c-1.524,0.686-3.204,1.029-5.039,1.029
			c-1.907,0-3.662-0.357-5.266-1.07c-1.604-0.711-2.993-1.691-4.17-2.939c-1.176-1.248-2.094-2.699-2.753-4.357
			c-0.66-1.656-0.989-3.438-0.989-5.346c0-1.889,0.33-3.666,0.989-5.332c0.659-1.666,1.577-3.119,2.753-4.357
			c1.177-1.238,2.566-2.215,4.17-2.928c1.604-0.711,3.359-1.068,5.266-1.068c1.729,0,3.332,0.299,4.811,0.895
			c1.479,0.598,2.825,1.432,4.037,2.5c0.196,0.143,0.383,0.316,0.561,0.521s0.268,0.414,0.268,0.629c0,0.213-0.08,0.41-0.241,0.588
			l-0.562,0.721c-0.16,0.197-0.298,0.344-0.414,0.441c-0.116,0.098-0.245,0.146-0.388,0.146c-0.231,0-0.481-0.133-0.749-0.4
			c-0.962-0.945-2.054-1.688-3.274-2.232c-1.221-0.543-2.552-0.814-3.996-0.814c-1.479,0-2.838,0.279-4.076,0.842
			c-1.239,0.561-2.308,1.328-3.208,2.299c-0.9,0.971-1.604,2.107-2.112,3.408S6.25,94.468,6.25,95.929
			c0,1.479,0.254,2.865,0.762,4.156c0.508,1.293,1.211,2.428,2.112,3.408c0.899,0.98,1.969,1.752,3.208,2.313
			c1.238,0.561,2.597,0.842,4.076,0.842c0.712,0,1.413-0.084,2.099-0.254c0.686-0.168,1.35-0.404,1.991-0.709
			c0.642-0.303,1.247-0.65,1.817-1.041C22.885,104.251,23.41,103.823,23.891,103.36z"/>
		<path fill="#FFFFFF" d="M42.602,106.728c1.176,0,2.308-0.174,3.395-0.521s2.085-0.859,2.993-1.537
			c0.232-0.178,0.49-0.373,0.776-0.588c0.285-0.213,0.525-0.338,0.722-0.373c0.142,0,0.294,0.07,0.454,0.213
			c0.161,0.143,0.312,0.316,0.455,0.521c0.142,0.205,0.262,0.432,0.36,0.682c0.098,0.25,0.147,0.48,0.147,0.695
			c-0.161,0.268-0.37,0.518-0.628,0.748c-0.259,0.232-0.513,0.438-0.762,0.615c-1.123,0.766-2.335,1.367-3.635,1.805
			c-1.301,0.436-2.708,0.654-4.224,0.654c-1.889,0-3.666-0.357-5.332-1.07c-1.667-0.711-3.119-1.684-4.357-2.912
			c-1.239-1.23-2.214-2.674-2.927-4.33c-0.713-1.658-1.069-3.432-1.069-5.32s0.348-3.666,1.042-5.332s1.64-3.119,2.833-4.357
			s2.588-2.213,4.184-2.928c1.594-0.711,3.301-1.068,5.119-1.068c1.746,0,3.39,0.338,4.932,1.016
			c1.542,0.678,2.891,1.613,4.049,2.807s2.076,2.605,2.753,4.236c0.677,1.631,1.016,3.391,1.016,5.279
			c0,0.57-0.17,0.941-0.508,1.109c-0.338,0.17-0.766,0.254-1.283,0.254H31.991c0.107,1.373,0.458,2.65,1.056,3.836
			c0.597,1.186,1.372,2.209,2.325,3.074s2.049,1.547,3.288,2.045C39.898,106.479,41.212,106.728,42.602,106.728z M51.958,94.378
			c-0.143-1.264-0.495-2.453-1.056-3.568c-0.562-1.113-1.283-2.08-2.165-2.9c-0.882-0.818-1.889-1.465-3.021-1.938
			c-1.132-0.471-2.33-0.709-3.595-0.709c-1.266,0-2.468,0.232-3.608,0.695c-1.141,0.465-2.161,1.105-3.061,1.926
			c-0.9,0.818-1.653,1.785-2.258,2.9c-0.606,1.113-1.007,2.311-1.203,3.594H51.958z"/>
		<path fill="#FFFFFF" d="M59.415,109.054c-0.214,0-0.419-0.059-0.615-0.174c-0.197-0.115-0.294-0.326-0.294-0.629
			c0-0.105,0.031-0.213,0.093-0.32s0.138-0.23,0.227-0.375l16.68-21.705H60.965c-0.695,0-1.042-0.346-1.042-1.041v-0.963
			c0-0.658,0.348-0.988,1.042-0.988h18.604c0.16,0,0.375,0.045,0.642,0.133c0.267,0.09,0.401,0.295,0.401,0.615
			c0,0.125-0.036,0.244-0.107,0.361c-0.071,0.115-0.151,0.244-0.241,0.387l-16.679,21.758h16.599c0.659,0,0.989,0.34,0.989,1.016
			v0.91c0,0.285-0.089,0.525-0.267,0.721c-0.178,0.197-0.418,0.295-0.722,0.295H59.415z"/>
		<path fill="#FFFFFF" d="M110.709,108.146c0,0.303-0.098,0.539-0.294,0.707c-0.196,0.17-0.464,0.254-0.802,0.254h-0.855
			c-0.713,0-1.069-0.355-1.069-1.068v-4.652c-0.321,0.998-0.793,1.885-1.417,2.66s-1.359,1.43-2.205,1.965
			c-0.847,0.535-1.787,0.945-2.82,1.23c-1.034,0.283-2.13,0.428-3.288,0.428c-1.818,0-3.511-0.357-5.079-1.07
			s-2.927-1.684-4.076-2.914c-1.149-1.229-2.054-2.672-2.713-4.33c-0.659-1.656-0.989-3.43-0.989-5.318s0.325-3.666,0.976-5.334
			c0.65-1.666,1.55-3.121,2.7-4.369s2.508-2.227,4.077-2.941c1.567-0.711,3.27-1.068,5.105-1.068c1.176,0,2.294,0.152,3.354,0.455
			c1.06,0.303,2.018,0.73,2.874,1.283c0.856,0.551,1.586,1.207,2.192,1.963c0.605,0.758,1.042,1.592,1.31,2.5l0.107-4.57
			c0.018-0.357,0.107-0.629,0.268-0.816c0.161-0.186,0.418-0.279,0.775-0.279h0.775c0.321,0,0.583,0.094,0.789,0.279
			c0.204,0.188,0.307,0.459,0.307,0.816V108.146z M107.662,96.062c0-1.459-0.236-2.842-0.708-4.143
			c-0.473-1.301-1.137-2.441-1.991-3.422c-0.855-0.979-1.881-1.754-3.074-2.324c-1.194-0.57-2.504-0.855-3.929-0.855
			c-1.444,0-2.767,0.285-3.97,0.855c-1.203,0.57-2.237,1.34-3.101,2.313c-0.865,0.971-1.542,2.107-2.032,3.408
			s-0.735,2.682-0.735,4.143s0.245,2.838,0.735,4.129c0.49,1.293,1.171,2.42,2.045,3.383c0.873,0.961,1.911,1.723,3.115,2.285
			c1.202,0.561,2.517,0.842,3.942,0.842c1.407,0,2.708-0.277,3.902-0.83c1.194-0.551,2.219-1.305,3.075-2.258
			c0.855-0.953,1.524-2.076,2.005-3.367C107.421,98.927,107.662,97.542,107.662,96.062z"/>
		<path fill="#FFFFFF" d="M121.722,108.091c0,0.643-0.33,0.963-0.989,0.963h-1.096c-0.677,0-1.016-0.32-1.016-0.963V83.606
			c0-0.25,0.071-0.455,0.214-0.615c0.143-0.16,0.348-0.24,0.615-0.24h1.578c0.16,0,0.297,0.053,0.414,0.16
			c0.115,0.107,0.182,0.25,0.2,0.428l0.08,3.635c0.446-0.658,0.972-1.273,1.578-1.844c0.605-0.57,1.273-1.064,2.004-1.484
			c0.73-0.418,1.51-0.748,2.339-0.988s1.698-0.361,2.607-0.361c1.532,0,2.953,0.285,4.263,0.855c1.31,0.57,2.447,1.355,3.408,2.354
			c0.963,0.998,1.72,2.17,2.272,3.514c0.552,1.346,0.83,2.785,0.83,4.318v14.646c0,0.357-0.094,0.625-0.281,0.803
			c-0.188,0.178-0.441,0.268-0.763,0.268h-1.095c-0.357,0-0.607-0.084-0.749-0.254c-0.143-0.17-0.214-0.432-0.214-0.789V93.282
			c-0.018-1.104-0.241-2.139-0.668-3.1c-0.428-0.963-1.003-1.801-1.724-2.514c-0.722-0.713-1.563-1.273-2.526-1.684
			s-1.987-0.615-3.074-0.615c-1.069,0-2.09,0.197-3.062,0.588c-0.971,0.393-1.831,0.932-2.579,1.617
			c-0.749,0.688-1.35,1.498-1.804,2.434c-0.455,0.936-0.708,1.947-0.763,3.033V108.091z"/>
		<path fill="#FFFFFF" d="M151.099,108.091c0,0.643-0.33,0.963-0.989,0.963h-1.096c-0.678,0-1.016-0.32-1.016-0.963V83.606
			c0-0.25,0.07-0.455,0.213-0.615s0.348-0.24,0.615-0.24h1.578c0.16,0,0.298,0.053,0.414,0.16c0.115,0.107,0.183,0.25,0.2,0.428
			l0.081,3.635c0.445-0.658,0.971-1.273,1.577-1.844c0.605-0.57,1.273-1.064,2.004-1.484c0.731-0.418,1.51-0.748,2.339-0.988
			s1.698-0.361,2.606-0.361c1.533,0,2.954,0.285,4.263,0.855s2.446,1.355,3.408,2.354s1.72,2.17,2.272,3.514
			c0.552,1.346,0.829,2.785,0.829,4.318v14.646c0,0.357-0.093,0.625-0.28,0.803c-0.188,0.178-0.441,0.268-0.762,0.268h-1.097
			c-0.356,0-0.606-0.084-0.748-0.254c-0.143-0.17-0.214-0.432-0.214-0.789V93.282c-0.018-1.104-0.241-2.139-0.668-3.1
			c-0.428-0.963-1.002-1.801-1.724-2.514c-0.722-0.713-1.564-1.273-2.526-1.684c-0.963-0.41-1.987-0.615-3.074-0.615
			c-1.069,0-2.089,0.197-3.061,0.588c-0.972,0.393-1.831,0.932-2.579,1.617c-0.749,0.688-1.351,1.498-1.805,2.434
			s-0.708,1.947-0.762,3.033V108.091z"/>
		<path fill="#FFFFFF" d="M189.323,106.728c1.176,0,2.308-0.174,3.395-0.521c1.086-0.348,2.084-0.859,2.993-1.537
			c0.232-0.178,0.49-0.373,0.776-0.588c0.285-0.213,0.525-0.338,0.722-0.373c0.143,0,0.294,0.07,0.454,0.213
			c0.161,0.143,0.312,0.316,0.455,0.521c0.142,0.205,0.262,0.432,0.361,0.682c0.098,0.25,0.146,0.48,0.146,0.695
			c-0.16,0.268-0.37,0.518-0.628,0.748c-0.259,0.232-0.513,0.438-0.762,0.615c-1.123,0.766-2.335,1.367-3.635,1.805
			c-1.301,0.436-2.708,0.654-4.223,0.654c-1.889,0-3.667-0.357-5.333-1.07c-1.667-0.711-3.119-1.684-4.357-2.912
			c-1.239-1.23-2.214-2.674-2.926-4.33c-0.714-1.658-1.07-3.432-1.07-5.32s0.347-3.666,1.042-5.332
			c0.695-1.666,1.64-3.119,2.833-4.357s2.588-2.213,4.184-2.928c1.594-0.711,3.301-1.068,5.119-1.068
			c1.746,0,3.39,0.338,4.932,1.016c1.541,0.678,2.891,1.613,4.049,2.807s2.076,2.605,2.753,4.236
			c0.677,1.631,1.016,3.391,1.016,5.279c0,0.57-0.17,0.941-0.508,1.109c-0.339,0.17-0.767,0.254-1.284,0.254H178.71
			c0.107,1.373,0.459,2.65,1.056,3.836c0.597,1.186,1.373,2.209,2.326,3.074s2.049,1.547,3.288,2.045
			C186.618,106.479,187.932,106.728,189.323,106.728z M198.679,94.378c-0.143-1.264-0.495-2.453-1.057-3.568
			c-0.562-1.113-1.283-2.08-2.165-2.9c-0.882-0.818-1.889-1.465-3.021-1.938c-1.132-0.471-2.33-0.709-3.595-0.709
			c-1.266,0-2.468,0.232-3.608,0.695c-1.141,0.465-2.161,1.105-3.061,1.926c-0.9,0.818-1.653,1.785-2.258,2.9
			c-0.605,1.113-1.007,2.311-1.203,3.594H198.679z"/>
	</g>
	<g>
		<path fill="#B6883E" d="M119.898,30.028c-1.493,1.508-2.215,3.906-1.367,5.912c0.861,2.038,3.142,3.182,5.152,2.092
			c1.232-0.668,0.135-2.549-1.099-1.879c-0.941,0.51-1.875-0.592-2.095-1.342c-0.186-0.632-0.163-1.21,0.058-1.842
			c0.404-1.154,1.461-2.148,2.671-2.34c2.511-0.398,4.333,2.262,4.415,4.494c0.195,5.353-5.655,8.38-9.397,10.972
			c-3.441,2.385-6.741,5.216-8.771,8.942c-0.908,1.666-1.569,3.473-1.841,5.353c-0.34,2.356,0.094,4.675,0.097,7.036
			c0,0.295,0.124,0.566,0.323,0.766c0.199,0.197,0.47,0.322,0.765,0.322c2.361,0.002,4.679,0.437,7.037,0.096
			c1.879-0.271,3.687-0.934,5.351-1.84c3.727-2.029,6.559-5.33,8.943-8.771c2.592-3.743,5.619-9.592,10.972-9.396
			c2.232,0.08,4.893,1.904,4.494,4.414c-0.192,1.21-1.186,2.268-2.339,2.67c-0.632,0.223-1.21,0.244-1.844,0.059
			c-0.748-0.219-1.849-1.153-1.339-2.096c0.669-1.232-1.211-2.33-1.879-1.098c-1.091,2.01,0.053,4.291,2.092,5.152
			c2.006,0.848,4.404,0.127,5.911-1.367c3.829-3.796,0.197-9.372-4.471-9.869c-6.721-0.718-10.425,6.102-13.684,10.734
			c-2.127,3.022-4.667,5.9-7.954,7.688c-3.47,1.888-6.584,1.54-10.213,1.46c-0.079-3.628-0.427-6.742,1.461-10.213
			c1.787-3.288,4.665-5.826,7.689-7.954c4.631-3.259,11.452-6.962,10.734-13.683C129.27,29.831,123.694,26.2,119.898,30.028z"/>
		<path fill="#B6883E" d="M82.568,48.184c3.023,2.128,5.9,4.666,7.689,7.954c1.887,3.471,1.54,6.585,1.46,10.213
			c-3.629,0.08-6.743,0.428-10.213-1.46c-3.288-1.788-5.826-4.666-7.954-7.688c-3.258-4.633-6.962-11.452-13.683-10.734
			c-4.669,0.497-8.301,6.073-4.472,9.869c1.507,1.494,3.905,2.215,5.912,1.367c2.038-0.861,3.182-3.143,2.091-5.152
			c-0.668-1.232-2.548-0.135-1.879,1.098c0.51,0.942-0.591,1.877-1.34,2.096c-0.633,0.186-1.211,0.164-1.843-0.059
			c-1.154-0.402-2.148-1.46-2.34-2.67c-0.398-2.51,2.262-4.334,4.494-4.414c5.353-0.195,8.38,5.653,10.972,9.396
			c2.384,3.441,5.216,6.742,8.942,8.771c1.665,0.906,3.472,1.569,5.351,1.84c2.358,0.341,4.676-0.094,7.037-0.096
			c0.294,0,0.566-0.125,0.764-0.322c0.199-0.199,0.324-0.471,0.324-0.766c0.002-2.361,0.436-4.68,0.096-7.036
			c-0.271-1.88-0.934-3.687-1.841-5.353c-2.029-3.727-5.33-6.558-8.771-8.942c-3.743-2.592-9.592-5.619-9.398-10.972
			c0.082-2.232,1.905-4.893,4.415-4.494c1.21,0.191,2.267,1.186,2.671,2.34c0.221,0.632,0.243,1.21,0.058,1.842
			c-0.219,0.75-1.154,1.852-2.095,1.342c-1.233-0.67-2.331,1.211-1.099,1.879c2.011,1.09,4.292-0.054,5.153-2.092
			c0.847-2.006,0.126-4.404-1.368-5.912c-3.796-3.828-9.372-0.197-9.87,4.473C71.116,41.222,77.937,44.925,82.568,48.184z"/>
		<path fill="#B6883E" d="M137.812,28.769c-2.024,3.26-3.3,6.906-5.055,10.306c-2.065,4.003-4.881,7.458-8.315,10.364
			c-0.761,0.644-0.199,1.606,0.571,1.783c0.178,0.771,1.14,1.334,1.784,0.571c2.907-3.433,6.361-6.25,10.363-8.315
			c3.4-1.754,7.047-3.029,10.306-5.054c6.729-4.179,9.47-11.313,10.545-18.86c0.062-0.438-0.054-0.805-0.295-1.045
			c-0.241-0.24-0.606-0.355-1.044-0.293C149.125,19.299,141.99,22.04,137.812,28.769z M146.153,23.636
			c2.935-1.643,6.211-2.51,9.512-3.066c-0.557,3.301-1.424,6.577-3.065,9.513c-2.003,3.579-5.038,5.966-8.643,7.806
			c-3.342,1.704-6.889,2.984-10.1,4.943c-0.427,0.261-0.849,0.531-1.262,0.81c0.278-0.414,0.548-0.835,0.809-1.263
			c1.959-3.211,3.239-6.759,4.943-10.1C140.187,28.673,142.575,25.638,146.153,23.636z"/>
		<path fill="#B6883E" d="M54.136,38.424c3.259,2.024,6.905,3.3,10.305,5.054c4.002,2.065,7.457,4.883,10.364,8.315
			c0.645,0.763,1.606,0.2,1.784-0.571c0.77-0.177,1.333-1.14,0.571-1.783c-3.433-2.906-6.25-6.361-8.315-10.364
			c-1.753-3.399-3.03-7.046-5.054-10.306c-4.179-6.729-11.314-9.47-18.861-10.543c-0.438-0.063-0.804,0.053-1.044,0.293
			s-0.356,0.606-0.294,1.045C44.666,27.11,47.406,34.245,54.136,38.424z M55.448,23.636c3.58,2.002,5.966,5.037,7.806,8.643
			c1.704,3.341,2.984,6.889,4.943,10.1c0.261,0.428,0.53,0.849,0.809,1.263c-0.414-0.278-0.834-0.549-1.262-0.81
			c-3.211-1.959-6.759-3.239-10.1-4.943c-3.605-1.84-6.641-4.227-8.643-7.806c-1.642-2.936-2.509-6.212-3.065-9.513
			C49.237,21.126,52.513,21.993,55.448,23.636z"/>
		<path fill="#B6883E" d="M88.557,45.741c1.14,2.887,4.283,5.758,7.599,4.951c2.905-0.707,3.965-3.879,2.175-6.18
			c-0.86-1.105-2.389,0.445-1.54,1.539c1.446,1.859-1.438,2.764-2.541,2.502c-0.613-0.145-1.248-0.545-1.724-0.945
			c-0.957-0.807-1.789-1.963-2.126-3.172c-0.735-2.635,0.842-5.271,2.536-7.162c2.534-2.829,5.736-4.78,7.865-7.877
			c2.128,3.097,5.33,5.048,7.865,7.877c1.694,1.891,3.271,4.527,2.536,7.162c-0.337,1.209-1.169,2.365-2.126,3.172
			c-0.477,0.4-1.11,0.801-1.724,0.945c-1.103,0.262-3.987-0.643-2.542-2.502c0.85-1.094-0.68-2.645-1.539-1.539
			c-1.791,2.301-0.731,5.473,2.175,6.18c3.315,0.807,6.458-2.064,7.598-4.951c3.336-8.455-8.268-12.879-11.305-19.043
			c-0.175-0.354-0.557-0.532-0.939-0.532s-0.765,0.178-0.94,0.532C96.824,32.862,85.22,37.286,88.557,45.741z"/>
		<path fill="#B6883E" d="M108.705,24.987c0.014,0.01,0.029,0.014,0.043,0.021c-0.561,3.645-0.055,7.668,2.224,10.221
			c0.936,1.047,2.472-0.498,1.54-1.539c-1.908-2.135-2.152-5.742-1.529-8.9c5.899-0.715,10.899-4.719,12.873-10.391
			c0.25-0.722-0.396-1.32-1.049-1.379c-2.764-0.239-5.474,0.496-7.763,1.926c-0.157-2-0.982-3.882-2.331-5.43
			c-1.441-1.654-3.971-3.584-6.199-3.916c-0.523-0.077-0.924,0.064-1.23,0.501c-0.851,1.212-0.939,3.267-1.139,4.702
			c-0.3,2.153-0.437,4.324-0.119,6.484C104.494,20.453,106.007,23.218,108.705,24.987z M121.186,15.183
			c-1.833,3.811-5.42,6.544-9.568,7.316c0.218-0.604,0.464-1.17,0.737-1.666C114.159,17.539,117.517,15.421,121.186,15.183z
			 M106.176,11.987c0.107-0.973,0.213-2.858,0.647-4.084c3.541,1.044,6.351,4.99,6.039,8.537c-0.007,0.072-0.003,0.141,0.002,0.206
			c-1.098,1.056-2.025,2.3-2.706,3.694c-0.351,0.721-0.651,1.523-0.899,2.371c-2.144-1.699-3.059-4.332-3.223-7.049
			C105.965,14.44,106.042,13.204,106.176,11.987z"/>
		<path fill="#B6883E" d="M42.655,72.206c3.165-0.465,5.929-1.979,7.699-4.676c0.01-0.016,0.014-0.029,0.022-0.044
			c3.644,0.562,7.668,0.056,10.22-2.224c1.047-0.936-0.497-2.471-1.539-1.539c-2.136,1.906-5.743,2.15-8.9,1.528
			c-0.716-5.899-4.719-10.9-10.391-12.874c-0.722-0.25-1.322,0.396-1.378,1.05c-0.24,2.763,0.496,5.474,1.926,7.763
			c-2.001,0.156-3.883,0.981-5.431,2.33c-1.654,1.441-3.583,3.971-3.916,6.199c-0.077,0.522,0.064,0.924,0.501,1.23
			c1.214,0.85,3.266,0.939,4.701,1.139C38.323,72.388,40.494,72.524,42.655,72.206z M47.865,64.618
			c-0.604-0.219-1.169-0.465-1.667-0.736c-3.293-1.806-5.412-5.164-5.65-8.832C44.359,56.883,47.092,60.47,47.865,64.618z
			 M41.806,63.373c0.074,0.006,0.141,0.003,0.207-0.003c1.057,1.098,2.3,2.025,3.695,2.705c0.721,0.352,1.523,0.652,2.371,0.899
			c-1.699,2.145-4.332,3.06-7.048,3.223c-1.224,0.074-2.459-0.005-3.676-0.139c-0.973-0.106-2.859-0.212-4.083-0.646
			C34.313,65.872,38.259,63.061,41.806,63.373z"/>
		<path fill="#B6883E" d="M170.634,69.72c-0.332-2.229-2.262-4.758-3.916-6.199c-1.548-1.349-3.43-2.174-5.431-2.33
			c1.431-2.289,2.167-5,1.926-7.763c-0.057-0.653-0.656-1.3-1.378-1.05c-5.671,1.974-9.675,6.975-10.391,12.874
			c-3.157,0.622-6.764,0.378-8.9-1.528c-1.042-0.932-2.586,0.604-1.539,1.539c2.552,2.279,6.576,2.785,10.219,2.224
			c0.008,0.015,0.012,0.028,0.022,0.044c1.771,2.697,4.534,4.211,7.699,4.676c2.161,0.318,4.332,0.182,6.486-0.117
			c1.435-0.199,3.488-0.289,4.702-1.139C170.57,70.644,170.711,70.242,170.634,69.72z M161.053,55.05
			c-0.239,3.668-2.357,7.026-5.65,8.832c-0.497,0.271-1.063,0.518-1.667,0.736C154.509,60.47,157.242,56.883,161.053,55.05z
			 M164.248,70.059c-1.217,0.134-2.452,0.213-3.675,0.139c-2.717-0.163-5.35-1.078-7.048-3.223c0.847-0.247,1.65-0.548,2.37-0.899
			c1.395-0.68,2.638-1.607,3.695-2.705c0.066,0.006,0.133,0.009,0.207,0.003c3.546-0.313,7.492,2.499,8.536,6.039
			C167.106,69.847,165.221,69.952,164.248,70.059z"/>
		<path fill="#B6883E" d="M90.619,24.79c0.623,3.158,0.378,6.766-1.529,8.9c-0.932,1.041,0.604,2.586,1.539,1.539
			c2.281-2.553,2.785-6.576,2.226-10.221c0.015-0.008,0.028-0.012,0.042-0.021c2.698-1.77,4.212-4.534,4.678-7.699
			c0.318-2.16,0.181-4.331-0.118-6.484c-0.199-1.436-0.289-3.49-1.139-4.702c-0.307-0.437-0.707-0.578-1.23-0.501
			c-2.229,0.332-4.759,2.262-6.2,3.916c-1.349,1.548-2.173,3.43-2.331,5.43c-2.289-1.43-4.998-2.165-7.762-1.926
			c-0.654,0.059-1.3,0.657-1.049,1.379C79.718,20.071,84.719,24.075,90.619,24.79z M94.778,7.903
			c0.434,1.226,0.541,3.111,0.647,4.084c0.133,1.217,0.212,2.453,0.139,3.676c-0.164,2.717-1.079,5.35-3.224,7.049
			c-0.247-0.848-0.548-1.65-0.899-2.371c-0.68-1.395-1.607-2.639-2.706-3.694c0.006-0.065,0.009-0.134,0.002-0.206
			C88.427,12.894,91.237,8.947,94.778,7.903z M89.247,20.833c0.272,0.496,0.519,1.063,0.737,1.666
			c-4.148-0.772-7.735-3.506-9.567-7.316C84.084,15.421,87.442,17.539,89.247,20.833z"/>
		<path fill="#B6883E" d="M131.303,29.931c0.093,0.682,0.651,0.883,1.17,0.748c0.595,0.07,1.218-0.27,1.159-1.033
			c-0.294-3.791,1.072-7.43,0.917-11.207c-0.137-3.316-1.504-6.335-2.879-9.298c-0.353-0.761-1.497-0.656-1.879,0
			c-1.75,3.004-2.521,6.442-2.038,9.904C128.29,22.894,130.782,26.085,131.303,29.931z M130.695,12.265
			c1.043,2.459,1.819,4.957,1.655,7.723c-0.089,1.486-0.335,2.939-0.553,4.395c-0.584-1.338-1.188-2.67-1.577-4.096
			C129.484,17.589,129.706,14.81,130.695,12.265z"/>
		<path fill="#B6883E" d="M34.507,46.446c3.003,1.75,6.442,2.521,9.903,2.036c3.85-0.537,7.042-3.029,10.887-3.55
			c0.683-0.093,0.883-0.651,0.748-1.17c0.072-0.596-0.269-1.219-1.033-1.16c-3.791,0.295-7.429-1.071-11.207-0.916
			c-3.317,0.137-6.335,1.504-9.298,2.879C33.746,44.919,33.851,46.063,34.507,46.446z M45.354,43.886
			c1.484,0.089,2.939,0.336,4.394,0.553c-1.337,0.584-2.67,1.188-4.096,1.576c-2.698,0.736-5.475,0.514-8.022-0.475
			C40.09,44.495,42.588,43.72,45.354,43.886z"/>
		<path fill="#B6883E" d="M146.59,42.603c-0.765-0.059-1.105,0.564-1.033,1.16c-0.136,0.519,0.064,1.077,0.747,1.17
			c3.845,0.521,7.037,3.013,10.887,3.55c3.461,0.484,6.899-0.286,9.903-2.036c0.656-0.383,0.761-1.527,0-1.881
			c-2.962-1.375-5.981-2.742-9.298-2.879C154.02,41.531,150.38,42.897,146.59,42.603z M155.949,46.015
			c-1.426-0.389-2.759-0.992-4.096-1.576c1.454-0.217,2.909-0.464,4.395-0.553c2.765-0.166,5.263,0.609,7.724,1.654
			C161.425,46.528,158.647,46.751,155.949,46.015z"/>
		<path fill="#B6883E" d="M67.97,29.646c-0.06,0.764,0.563,1.104,1.159,1.033c0.519,0.135,1.077-0.066,1.169-0.748
			c0.521-3.846,3.013-7.037,3.55-10.886c0.484-3.462-0.286-6.9-2.037-9.904c-0.383-0.656-1.526-0.761-1.879,0
			c-1.375,2.963-2.742,5.981-2.879,9.298C66.897,22.216,68.263,25.854,67.97,29.646z M70.905,12.265
			c0.989,2.545,1.212,5.324,0.476,8.021c-0.389,1.426-0.993,2.758-1.576,4.096c-0.219-1.455-0.464-2.908-0.553-4.395
			C69.086,17.222,69.862,14.724,70.905,12.265z"/>
		<circle fill="#B6883E" cx="139.992" cy="18.111" r="2.25"/>
		<circle fill="#B6883E" cx="43.477" cy="36.244" r="2.249"/>
		<circle fill="#B6883E" cx="158.124" cy="36.243" r="2.25"/>
		<circle fill="#B6883E" cx="61.61" cy="18.111" r="2.25"/>
	</g>
	<g>
		<path fill="#FFFFFF" d="M38.136,123.644c0.245,0,0.367,0.119,0.367,0.357v0.338c0,0.11-0.031,0.197-0.092,0.261
			c-0.062,0.065-0.153,0.097-0.275,0.097h-8.61v7.209h6.958c0.109,0,0.198,0.029,0.266,0.087c0.067,0.058,0.102,0.151,0.102,0.28
			v0.348c0,0.11-0.033,0.197-0.097,0.261c-0.064,0.065-0.155,0.097-0.271,0.097h-6.958v3.962h8.765c0.245,0,0.367,0.119,0.367,0.357
			v0.348c0,0.232-0.12,0.348-0.358,0.348h-9.538c-0.109,0-0.188-0.03-0.236-0.092c-0.048-0.061-0.073-0.143-0.073-0.247v-13.664
			c0-0.148,0.037-0.243,0.111-0.285c0.074-0.042,0.156-0.063,0.246-0.063H38.136z"/>
		<path fill="#FFFFFF" d="M50.63,123.875c0.767,1.888,1.53,3.763,2.291,5.625c0.76,1.862,1.527,3.736,2.3,5.624
			c0.077,0.187,0.156,0.38,0.237,0.58s0.163,0.393,0.247,0.58l5.063-12.37c0.045-0.174,0.139-0.261,0.28-0.261
			c0.051,0,0.098,0.008,0.14,0.024c0.042,0.017,0.079,0.034,0.111,0.053l0.357,0.029c0.122,0.013,0.184,0.071,0.184,0.174
			c0,0.039-0.01,0.085-0.029,0.14c-0.02,0.055-0.029,0.085-0.029,0.092l-5.585,13.548c-0.052,0.11-0.103,0.214-0.155,0.314
			c-0.052,0.1-0.106,0.195-0.164,0.285c-0.007,0-0.011-0.001-0.015-0.005s-0.008-0.005-0.015-0.005c-0.032,0-0.063,0.02-0.092,0.058
			c-0.029,0.039-0.072,0.058-0.13,0.058c-0.052,0-0.095-0.021-0.13-0.063c-0.036-0.042-0.066-0.092-0.092-0.15
			c-0.979-2.364-1.949-4.719-2.909-7.064c-0.96-2.345-1.93-4.703-2.909-7.074l-0.02-0.058c-0.006-0.013-0.01-0.027-0.01-0.043
			s-0.003-0.03-0.009-0.043c0-0.09,0.072-0.164,0.217-0.222s0.317-0.087,0.517-0.087c0.083,0,0.154,0.024,0.212,0.072
			S50.598,123.798,50.63,123.875z"/>
		<path fill="#FFFFFF" d="M83.391,123.644c0.245,0,0.367,0.119,0.367,0.357v0.338c0,0.11-0.031,0.197-0.092,0.261
			c-0.062,0.065-0.153,0.097-0.275,0.097h-8.61v7.209h6.958c0.109,0,0.198,0.029,0.266,0.087c0.067,0.058,0.102,0.151,0.102,0.28
			v0.348c0,0.11-0.033,0.197-0.097,0.261c-0.064,0.065-0.155,0.097-0.271,0.097H74.78v3.962h8.765c0.245,0,0.367,0.119,0.367,0.357
			v0.348c0,0.232-0.12,0.348-0.358,0.348h-9.538c-0.109,0-0.188-0.03-0.236-0.092c-0.048-0.061-0.073-0.143-0.073-0.247v-13.664
			c0-0.148,0.037-0.243,0.111-0.285c0.074-0.042,0.156-0.063,0.246-0.063H83.391z"/>
		<path fill="#FFFFFF" d="M96.987,125.692v11.954c0,0.232-0.119,0.348-0.357,0.348h-0.338c-0.238,0-0.357-0.116-0.357-0.348v-14.003
			c0-0.071,0.015-0.143,0.043-0.217c0.029-0.074,0.098-0.111,0.208-0.111c0.09,0,0.17,0.036,0.242,0.106
			c1.726,2.106,3.445,4.202,5.155,6.286s3.429,4.18,5.156,6.286v-12.002c0-0.232,0.119-0.348,0.357-0.348h0.348
			c0.232,0,0.348,0.116,0.348,0.348v14.08c-0.006,0.064-0.026,0.131-0.058,0.198c-0.032,0.068-0.103,0.102-0.212,0.102
			c-0.11,0-0.197-0.042-0.261-0.125L96.987,125.692z"/>
		<path fill="#FFFFFF" d="M129.041,123.644c0.109,0,0.199,0.027,0.271,0.082c0.071,0.055,0.106,0.144,0.106,0.266v0.338
			c0,0.11-0.032,0.198-0.096,0.266c-0.064,0.067-0.158,0.101-0.28,0.101h-4.078v12.95c0,0.232-0.12,0.348-0.358,0.348h-0.348
			c-0.232,0-0.348-0.116-0.348-0.348v-12.95h-4.213c-0.239,0-0.358-0.122-0.358-0.367v-0.338c0-0.232,0.119-0.348,0.358-0.348
			H129.041z"/>
		<path fill="#FFFFFF" d="M139.4,130.833c0-0.677,0.087-1.329,0.261-1.957s0.42-1.214,0.739-1.759s0.702-1.041,1.15-1.488
			s0.944-0.831,1.488-1.15s1.13-0.567,1.759-0.744c0.628-0.177,1.28-0.266,1.957-0.266c0.676,0,1.329,0.088,1.957,0.266
			c0.628,0.177,1.214,0.425,1.759,0.744s1.041,0.702,1.488,1.15s0.831,0.944,1.15,1.488s0.567,1.131,0.744,1.759
			s0.266,1.28,0.266,1.957c0,0.676-0.088,1.327-0.266,1.952s-0.425,1.209-0.744,1.754s-0.702,1.041-1.15,1.488
			s-0.944,0.831-1.488,1.15s-1.13,0.565-1.759,0.739c-0.628,0.174-1.28,0.261-1.957,0.261c-0.677,0-1.329-0.087-1.957-0.261
			c-0.628-0.174-1.214-0.42-1.759-0.739s-1.041-0.702-1.488-1.15s-0.831-0.944-1.15-1.488s-0.565-1.129-0.739-1.754
			S139.4,131.51,139.4,130.833z M140.473,130.833c0,0.863,0.165,1.677,0.493,2.44c0.329,0.764,0.778,1.429,1.348,1.996
			c0.57,0.567,1.237,1.015,2,1.343c0.764,0.329,1.577,0.493,2.44,0.493c0.573,0,1.129-0.074,1.667-0.222
			c0.538-0.148,1.039-0.359,1.502-0.633s0.887-0.603,1.271-0.986c0.383-0.383,0.711-0.807,0.985-1.271s0.486-0.961,0.638-1.493
			c0.151-0.532,0.228-1.087,0.228-1.667c0-0.863-0.166-1.677-0.498-2.44c-0.332-0.764-0.783-1.431-1.353-2
			c-0.57-0.57-1.237-1.021-2-1.353c-0.764-0.332-1.577-0.498-2.44-0.498c-0.58,0-1.136,0.076-1.667,0.227
			c-0.532,0.151-1.031,0.364-1.498,0.638c-0.467,0.274-0.893,0.603-1.275,0.986c-0.384,0.383-0.71,0.807-0.981,1.271
			s-0.482,0.965-0.633,1.503S140.473,130.26,140.473,130.833z"/>
		<path fill="#FFFFFF" d="M165.859,135.269c0.051-0.064,0.119-0.134,0.203-0.208c0.084-0.074,0.174-0.111,0.271-0.111
			c0.032,0,0.092,0.016,0.179,0.048s0.149,0.074,0.188,0.125c0.238,0.329,0.486,0.622,0.744,0.879
			c0.257,0.258,0.539,0.474,0.845,0.647s0.641,0.306,1.005,0.396c0.364,0.09,0.774,0.136,1.232,0.136
			c0.496,0,0.963-0.058,1.401-0.174c0.438-0.116,0.821-0.294,1.15-0.536s0.589-0.551,0.783-0.928s0.29-0.823,0.29-1.338
			c0-0.399-0.081-0.746-0.242-1.039c-0.161-0.293-0.38-0.554-0.657-0.783c-0.277-0.229-0.601-0.43-0.971-0.604
			c-0.371-0.174-0.762-0.344-1.174-0.512c-0.644-0.257-1.245-0.505-1.802-0.744c-0.557-0.238-1.042-0.514-1.454-0.826
			c-0.413-0.312-0.736-0.681-0.971-1.106c-0.235-0.425-0.353-0.95-0.353-1.575c0-0.573,0.1-1.088,0.3-1.546s0.475-0.844,0.826-1.16
			c0.351-0.316,0.768-0.557,1.251-0.725c0.483-0.167,1.005-0.251,1.565-0.251c0.374,0,0.739,0.04,1.097,0.121
			c0.358,0.081,0.699,0.198,1.024,0.353c0.325,0.154,0.628,0.345,0.909,0.57c0.28,0.226,0.533,0.483,0.758,0.773
			c0.032,0.045,0.055,0.082,0.068,0.111c0.013,0.029,0.019,0.069,0.019,0.121c0,0.019-0.019,0.048-0.058,0.087
			c-0.039,0.039-0.084,0.082-0.135,0.13c-0.052,0.048-0.108,0.097-0.169,0.145s-0.111,0.088-0.15,0.121
			c-0.071,0.052-0.135,0.069-0.193,0.053c-0.058-0.016-0.11-0.047-0.155-0.092c-0.393-0.432-0.828-0.773-1.305-1.024
			c-0.477-0.251-1.047-0.377-1.71-0.377c-0.432,0-0.825,0.064-1.179,0.193c-0.354,0.129-0.659,0.308-0.914,0.536
			c-0.254,0.229-0.451,0.501-0.589,0.817s-0.208,0.664-0.208,1.043c0,0.451,0.101,0.831,0.304,1.141
			c0.203,0.309,0.488,0.583,0.855,0.821c0.367,0.238,0.803,0.46,1.309,0.667c0.506,0.207,1.058,0.432,1.657,0.677
			c0.528,0.219,1.01,0.449,1.445,0.691c0.435,0.242,0.805,0.514,1.111,0.816c0.306,0.303,0.543,0.647,0.71,1.034
			s0.251,0.834,0.251,1.343c0,0.664-0.122,1.248-0.367,1.754c-0.245,0.506-0.578,0.931-1,1.275
			c-0.422,0.345-0.918,0.604-1.488,0.778c-0.57,0.174-1.177,0.261-1.822,0.261c-0.973,0-1.857-0.198-2.652-0.594
			c-0.796-0.396-1.487-1.045-2.073-1.947c-0.033-0.045-0.057-0.087-0.073-0.125c-0.016-0.039-0.024-0.084-0.024-0.135
			C165.724,135.388,165.769,135.321,165.859,135.269z"/>
	</g>
</g>
</svg>
